<?xml version="1.0" standalone="no"?>
<!DOCTYPE svg PUBLIC "-//W3C//DTD SVG 1.1//EN" "http://www.w3.org/Graphics/SVG/1.1/DTD/svg11.dtd" >
<svg xmlns="http://www.w3.org/2000/svg">
<metadata>
This is a custom SVG webfont generated by Font Squirrel.
Copyright   : Copyright 2008 by Monotype Imaging Inc All rights reserved
Designer    : Jim Wasco
Foundry     : Monotype Imaging Inc
Foundry URL : httpwwwmonotypeimagingcom
</metadata>
<defs>
<font id="Medium" horiz-adv-x="1124" >
<font-face units-per-em="2048" ascent="1520" descent="-528" />
<missing-glyph horiz-adv-x="526" />
<glyph unicode=" "  horiz-adv-x="526" />
<glyph unicode="&#x09;" horiz-adv-x="526" />
<glyph unicode="&#xa0;" horiz-adv-x="526" />
<glyph unicode="!" horiz-adv-x="502" d="M143 0v219h217v-219h-217zM158 1036v324h182v-324l-37 -651h-104z" />
<glyph unicode="&#x22;" horiz-adv-x="752" d="M145 1204v195h174v-195l-32 -319h-107zM430 1204v195h176v-195l-35 -319h-106z" />
<glyph unicode="#" horiz-adv-x="1176" d="M14 430l49 137h203l99 262h-220l52 138h217l143 393h133l-143 -393h299l141 393h133l-143 -393h203l-52 -138h-200l-99 -262h218l-52 -137h-215l-155 -430h-133l155 430h-299l-155 -430h-134l156 430h-201zM399 567h297l99 262h-299z" />
<glyph unicode="$" horiz-adv-x="1098" d="M106 0l3 401h163v-102q19 -24 42.5 -49.5t51.5 -48.5t60.5 -42t69.5 -30v516q-89 31 -156 67t-113 83.5t-69 108t-23 140.5q0 71 26 134t73.5 111t114 77t147.5 31v147h133v-162q62 -15 108.5 -44t81.5 -64v86h164v-352h-164v73q-12 20 -29.5 43t-41 44t-53 38.5 t-66.5 26.5v-447q108 -32 182.5 -77t120.5 -100.5t66 -120.5t20 -138q0 -68 -23.5 -135.5t-72 -123t-121.5 -92t-172 -40.5v-178h-133v194q-75 19 -132 57t-92 77v-109h-166zM311 1049q0 -80 47 -130.5t138 -87.5v408q-87 -12 -136 -62.5t-49 -127.5zM629 117q53 5 93 25.5 t67 51t41 68t14 76.5q0 40 -11 77t-36 70t-66 62t-102 53v-483z" />
<glyph unicode="%" horiz-adv-x="1550" d="M35 1032q0 80 25 147.5t69.5 116t106 76t135.5 27.5q69 0 130 -23.5t107 -70.5t72.5 -117t26.5 -162q0 -86 -26.5 -154.5t-72 -116t-107.5 -73t-132 -25.5q-55 0 -114 19t-108 63.5t-80.5 116t-31.5 176.5zM180 1032q0 -55 14 -99.5t39 -75.5t60.5 -47.5t77.5 -16.5 q47 0 82.5 17.5t59.5 49t36 74t12 92.5q0 120 -53.5 179t-140.5 59q-44 0 -78.5 -18t-58.5 -49t-37 -73.5t-13 -91.5zM322 -33l745 1422h150l-748 -1422h-147zM844 330q0 80 25 147t69.5 116t106 76t135.5 27q69 0 130 -23.5t107 -70.5t72.5 -116.5t26.5 -161.5 q0 -86 -26.5 -154.5t-72 -116t-107.5 -73t-132 -25.5q-55 0 -114 19t-108 63t-80.5 116t-31.5 177zM989 330q0 -56 14 -100t39 -75.5t60.5 -48t77.5 -16.5q47 0 82.5 17.5t59.5 49t36 74.5t12 93q0 119 -53.5 178t-140.5 59q-44 0 -78.5 -17.5t-58.5 -48.5t-37 -73.5 t-13 -91.5z" />
<glyph unicode="&#x26;" horiz-adv-x="1305" d="M55 352q0 71 22 133t63 116t98.5 99t128.5 82q-19 28 -40 62.5t-38.5 75t-29 85.5t-11.5 93q0 58 20.5 112.5t62.5 96.5t106.5 67t152.5 25q69 0 129.5 -19.5t105.5 -56.5t71 -90.5t26 -120.5q0 -62 -21 -115.5t-61 -100.5t-98 -87.5t-132 -77.5l82 -105l73 -93l71 -89 l77 -96q29 54 46.5 108.5t25.5 114.5h-131v166h403v-166h-116q-11 -97 -44 -178t-81 -149q25 -26 49 -41t49.5 -23.5t53.5 -11t61 -2.5h28v-166h-40q-98 0 -175 33t-131 90q-36 -32 -79 -61.5t-93.5 -53t-110 -37.5t-128.5 -14q-112 0 -195.5 33.5t-139 88.5t-83 126 t-27.5 147zM250 373q0 -115 71.5 -178.5t196.5 -63.5q45 0 87.5 8t79 22t67 32t53.5 38l-88 107l-81 100l-83 102l-92 117q-109 -60 -160 -132t-51 -152zM430 1087q0 -28 5 -55t15.5 -55.5t28 -60t41.5 -68.5q120 60 176 120.5t56 137.5q0 28 -10 54t-30 45t-50 30.5 t-70 11.5t-70.5 -12t-50.5 -33.5t-30.5 -51t-10.5 -63.5z" />
<glyph unicode="'" horiz-adv-x="465" d="M145 1204v195h174v-195l-32 -319h-107z" />
<glyph unicode="(" horiz-adv-x="635" d="M129 481q0 121 17.5 249t54.5 255t94.5 248t138.5 229h139q-76 -114 -129.5 -237.5t-87.5 -249.5t-49.5 -251t-15.5 -243q0 -117 15.5 -241.5t49.5 -250.5t87.5 -250t129.5 -239h-139q-81 108 -138.5 229.5t-94.5 248.5t-54.5 255t-17.5 248z" />
<glyph unicode=")" horiz-adv-x="635" d="M59 -500q76 115 130 238.5t88 249.5t49.5 251.5t15.5 243.5q0 116 -15.5 240.5t-49.5 250.5t-88 250t-130 238h140q81 -107 139 -228.5t95 -248.5t54 -254.5t17 -247.5q0 -122 -17 -250.5t-54 -255.5t-95 -248t-139 -229h-140z" />
<glyph unicode="*" horiz-adv-x="791" d="M78 1114l41 127l237 -104l-26 262h133l-35 -262l242 104l43 -127l-256 -49l172 -188l-109 -76l-127 223l-127 -223l-108 76l172 188z" />
<glyph unicode="+" horiz-adv-x="1051" d="M80 561v146h375v391h139v-391h377v-146h-377v-389h-139v389h-375z" />
<glyph unicode="," horiz-adv-x="502" d="M141 0v217h219v-102q0 -63 -8.5 -119.5t-23 -105.5t-32.5 -90t-36 -72h-102q32 65 51 133t24 139h-92z" />
<glyph unicode="-" horiz-adv-x="872" d="M131 561v146h608v-146h-608z" />
<glyph unicode="." horiz-adv-x="502" d="M141 0v219h219v-219h-219z" />
<glyph unicode="/" horiz-adv-x="827" d="M-31 -270l672 1691h158l-672 -1691h-158z" />
<glyph unicode="0" d="M55 700q0 191 45.5 323.5t119 214.5t167.5 118.5t191 36.5q57 0 116 -14.5t113.5 -47.5t102 -86t83 -130.5t56 -181t20.5 -237.5q0 -149 -23.5 -261t-63.5 -193t-91.5 -134t-108 -84.5t-113 -44t-106.5 -12.5q-59 0 -119.5 14.5t-117 48t-106 88.5t-86 136.5t-58 191.5 t-21.5 254zM242 707q0 -154 22.5 -262.5t64.5 -177.5t102 -100.5t134 -31.5q63 0 120.5 30t101.5 96t70 171.5t26 257.5q0 271 -84 403t-238 132q-67 0 -125 -28.5t-101 -91t-68 -161t-25 -237.5z" />
<glyph unicode="1" d="M289 0v166h190v1028h-190v166h368v-1194h191v-166h-559z" />
<glyph unicode="2" d="M115 0v184l465 478q47 47 86 90.5t67.5 87t44 89t15.5 97.5q0 37 -14.5 73t-42.5 64.5t-69.5 46t-95.5 17.5q-56 0 -100.5 -18.5t-76.5 -52t-51 -81t-24 -104.5h-194q6 87 39 164t89.5 134.5t133.5 90.5t172 33q106 0 185 -31t131 -82.5t78 -117t26 -134.5 q0 -78 -26 -145t-69.5 -128.5t-99.5 -119.5l-118 -119l-336 -328h504v240h165v-428h-884z" />
<glyph unicode="3" d="M104 369h189q18 -108 89.5 -172t190.5 -64q59 0 109 19.5t86 55t56 84t20 105.5q0 58 -21.5 104t-65.5 78t-112 49t-162 17h-53v166h47q72 0 131 15.5t100.5 43.5t64 67t22.5 87q0 37 -12.5 73.5t-39.5 65.5t-70 46.5t-104 17.5q-57 0 -99.5 -15.5t-71.5 -43t-45.5 -64.5 t-22.5 -80h-187q9 75 42.5 142.5t87.5 117.5t128 79.5t164 29.5t166 -24t131.5 -70t87 -112t31.5 -151q0 -62 -21.5 -111t-56 -86.5t-79 -62.5t-89.5 -37v-6q64 -13 118 -41t93.5 -71t61.5 -102.5t22 -135.5q0 -78 -28 -153t-84.5 -133.5t-142.5 -94t-202 -35.5 q-111 0 -194.5 30.5t-141 84.5t-90.5 127.5t-43 159.5z" />
<glyph unicode="4" d="M72 360v156l592 844h182v-834h227v-166h-227v-194h170v-166h-518v166h170v194h-596zM258 526h410v588h-4z" />
<glyph unicode="5" d="M115 383h200q5 -63 27 -110t57.5 -78t81 -46.5t97.5 -15.5q133 0 204.5 79t71.5 224q0 55 -16 109t-49.5 97t-85.5 69t-123 26q-85 0 -146.5 -26.5t-103.5 -71.5h-168l65 721h734v-166h-568l-39 -379q12 12 33.5 26.5t52 28t71 22.5t89.5 9q119 0 203.5 -42t138 -109 t78 -149t24.5 -163q0 -101 -30 -187t-88.5 -149t-144.5 -99t-199 -36q-101 0 -183.5 29t-142.5 83t-96.5 131t-44.5 173z" />
<glyph unicode="6" d="M94 629q0 197 31.5 341t95 238t159.5 139.5t226 45.5q56 0 120 -20t121.5 -61.5t102 -105.5t62.5 -153h-172q-31 86 -94 130t-148 44q-97 0 -158.5 -40t-97 -111t-50.5 -168.5t-18 -211.5h5q16 34 44 69.5t68.5 63.5t93.5 46t121 18q104 0 187 -35t140.5 -96t88.5 -144 t31 -178q0 -91 -31.5 -176.5t-89.5 -151.5t-140 -105.5t-184 -39.5q-100 0 -192.5 36t-164 115.5t-114.5 205t-43 305.5zM311 430q0 -63 22.5 -117.5t62 -94t93 -62.5t115.5 -23q54 0 101 20t82 58t55 93t20 126q0 67 -19.5 121.5t-55 93.5t-86 60.5t-111.5 21.5 q-63 0 -114.5 -21t-88 -60t-56.5 -94t-20 -122z" />
<glyph unicode="7" d="M129 958v402h924v-127l-510 -1233h-205l510 1194h-553v-236h-166z" />
<glyph unicode="8" d="M76 379q0 72 20 128.5t57 100t89.5 74t117.5 51.5v4q-111 32 -174 113t-63 197q0 73 29 136.5t85 110t137.5 73t186.5 26.5t186.5 -24.5t138 -70t86 -110t29.5 -144.5q0 -106 -63.5 -188t-187.5 -119v-4q68 -18 123.5 -50t95 -76.5t61 -101.5t21.5 -126q0 -90 -34 -165.5 t-97.5 -130.5t-155 -85.5t-205.5 -30.5q-109 0 -198 30.5t-152.5 85.5t-98 130.5t-34.5 165.5zM254 387q0 -57 22 -103.5t62 -80t96.5 -52t124.5 -18.5q71 0 128.5 18.5t98 52t62.5 80t22 103.5q0 59 -23.5 107t-65 82t-98.5 52.5t-124 18.5q-66 0 -122 -19t-96.5 -53.5 t-63.5 -82t-23 -105.5zM301 1022q0 -44 20.5 -82t56 -66.5t82.5 -44.5t101 -16t101.5 16t83.5 44t56.5 66t20.5 81q0 102 -70 154.5t-192 52.5t-191 -53t-69 -152z" />
<glyph unicode="9" d="M92 936q0 93 32 176t91 145.5t142.5 99t187.5 36.5q119 0 211.5 -42t156 -124.5t96.5 -205t33 -284.5q0 -188 -28.5 -331.5t-89 -241t-156.5 -147.5t-231 -50q-69 0 -136.5 20t-124 61.5t-96 104t-53.5 146.5h170q62 -166 254 -166q94 0 154.5 40t96 111.5t50 168.5 t16.5 211h-6q-14 -37 -42.5 -72.5t-71.5 -63t-98.5 -44.5t-123.5 -17q-105 0 -186 37t-136 100.5t-83.5 149t-28.5 182.5zM283 924q0 -63 18 -116.5t52.5 -92t86 -60.5t119.5 -22q64 0 115 21.5t85.5 60t53 92t18.5 117.5t-19.5 119t-55.5 96t-88.5 64.5t-118.5 23.5 q-62 0 -111.5 -22t-84 -62t-52.5 -96t-18 -123z" />
<glyph unicode=":" horiz-adv-x="502" d="M141 0v219h219v-219h-219zM141 643v219h219v-219h-219z" />
<glyph unicode=";" horiz-adv-x="502" d="M141 0v217h219v-102q0 -63 -8.5 -119.5t-23 -105.5t-32.5 -90t-36 -72h-102q32 65 51 133t24 139h-92zM141 643v219h219v-219h-219z" />
<glyph unicode="&#x3c;" horiz-adv-x="1376" d="M74 565v125l1226 580v-152l-1064 -489l1064 -488v-151z" />
<glyph unicode="=" horiz-adv-x="1376" d="M80 317v146h1218v-146h-1218zM80 803v145h1218v-145h-1218z" />
<glyph unicode="&#x3e;" horiz-adv-x="1376" d="M74 -10v151l1065 490l-1065 487v152l1226 -576v-125z" />
<glyph unicode="?" horiz-adv-x="979" d="M35 1026q7 76 38 143.5t84.5 118t128 80t169.5 29.5q97 0 172.5 -28.5t126.5 -78t77.5 -116.5t26.5 -144q0 -75 -22.5 -134.5t-57 -108t-76.5 -88.5l-81 -74q-31 -30 -52 -58t-33.5 -58t-18 -65t-5.5 -79h-147q1 48 7.5 94.5t24 91.5t48.5 88.5t81 85.5q36 30 66.5 63 t53 68.5t35.5 73.5t13 78q0 51 -15 95.5t-45 77.5t-75.5 51.5t-105.5 18.5q-52 0 -97 -15t-79.5 -44t-56 -70.5t-25.5 -95.5h-160zM332 0v219h219v-219h-219z" />
<glyph unicode="@" horiz-adv-x="1843" d="M127 489q0 122 29.5 237t85.5 216t137 184.5t184 144t225.5 93.5t262.5 33q144 0 269 -37t217.5 -112.5t145 -189.5t52.5 -267q0 -88 -18.5 -169.5t-51 -152.5t-77 -129t-96 -99.5t-108.5 -64t-114 -22.5q-45 0 -77.5 13t-54 35t-32 50.5t-10.5 60.5q0 19 1 31.5t3 22.5 h-6q-29 -51 -65 -92t-76.5 -70t-85.5 -44.5t-93 -15.5q-65 0 -114.5 24.5t-82.5 67t-50 100.5t-17 126q0 73 18 145t50 137t76 120.5t97 96.5t113 64t123 23q50 0 87 -13t63.5 -34t42 -47t22.5 -52h6l31 109h211l-20 -105h-99l-100 -442q-6 -25 -9 -50.5t-3 -56.5 q0 -38 16.5 -61t58.5 -23q33 0 70 18t73 51.5t69 80t57.5 104t39.5 124t15 139.5q0 121 -39.5 214t-113 156.5t-179 96t-237.5 32.5q-115 0 -218 -28.5t-191.5 -80t-159.5 -124.5t-120.5 -161.5t-76.5 -190t-27 -211.5q0 -149 45.5 -267t134 -200t218.5 -126t298 -44 q55 0 109 6t104.5 17.5t94 28t77.5 36.5l41 -88q-37 -22 -86 -41.5t-106 -34t-120 -23t-128 -8.5q-187 0 -337 51t-255.5 146.5t-162 232.5t-56.5 309zM655 469q0 -90 39 -142.5t113 -52.5q54 0 101 24.5t86.5 64.5t71 91t53 104t33 103t11.5 89q0 86 -40.5 135t-125.5 49 q-63 0 -124.5 -36.5t-109.5 -99.5t-78 -147.5t-30 -181.5z" />
<glyph unicode="A" horiz-adv-x="1305" d="M0 0v166h127l362 1028h-161v166h432l418 -1194h127v-166h-488v166h170l-94 283h-498l-90 -283h172v-166h-477zM446 604h396l-199 590h-4z" />
<glyph unicode="B" horiz-adv-x="1231" d="M90 0v166h170v1028h-170v166h557q100 0 182 -20.5t140.5 -61.5t90.5 -104t32 -148q0 -61 -19 -109.5t-51.5 -86t-76 -64t-91.5 -41.5v-4q78 -10 137 -41t98.5 -76t59.5 -102t20 -119q0 -95 -36.5 -166.5t-100.5 -119.5t-150.5 -72.5t-185.5 -24.5h-606zM438 166h258 q141 0 211 60t70 165q0 60 -23 104.5t-63 73.5t-95.5 43.5t-119.5 14.5h-238v-461zM438 782h191q128 0 200 55.5t72 157.5q0 50 -15.5 87.5t-52.5 62t-98 37t-151 12.5h-146v-412z" />
<glyph unicode="C" horiz-adv-x="1524" d="M61 684q0 150 50.5 280.5t141 226.5t215 151t271.5 55q76 0 137.5 -14t112 -37t91 -53.5t75.5 -63.5v131h166v-447h-166v101q-34 46 -76.5 84.5t-92 66t-105.5 43t-117 15.5q-104 0 -197 -35t-163 -103.5t-111 -169.5t-41 -233q0 -115 37.5 -214.5t105.5 -173t162 -115.5 t207 -42q83 0 150 22t118.5 60.5t89 91.5t60.5 115h178q-34 -106 -89 -191.5t-131.5 -146t-174 -93t-215.5 -32.5q-156 1 -283 55t-217.5 150t-139.5 228t-49 288z" />
<glyph unicode="D" horiz-adv-x="1458" d="M90 0v166h170v1028h-170v166h567q181 0 319.5 -52.5t232 -144t141 -215.5t47.5 -266q0 -139 -48.5 -263t-142 -217t-231.5 -147.5t-316 -54.5h-569zM438 166h226q137 0 239 41t169.5 111.5t100.5 163.5t33 198q0 112 -34 206.5t-102 162.5t-170 106.5t-238 38.5h-224 v-1028z" />
<glyph unicode="E" horiz-adv-x="1235" d="M90 0v166h170v1028h-170v166h1034v-354h-168v188h-518v-408h459v-165h-459v-455h518v229h168v-395h-1034z" />
<glyph unicode="F" horiz-adv-x="1190" d="M90 0v166h170v1028h-170v166h1034v-354h-166v188h-520v-430h459v-166h-459v-432h191v-166h-539z" />
<glyph unicode="G" horiz-adv-x="1501" d="M61 678q0 151 47 282.5t135.5 228.5t215 152.5t286.5 55.5q80 0 146.5 -11.5t121 -30.5t97 -42t74.5 -47v94h164v-399h-164v98q-25 28 -60.5 57t-85 53t-115.5 39t-151 15q-114 0 -209.5 -37t-164.5 -106.5t-107.5 -169.5t-38.5 -226q0 -125 41.5 -226t113.5 -172 t170 -110t211 -39q138 0 240 31.5t162 75.5v311h-430v166h608v-586q-119 -83 -262 -127.5t-326 -44.5q-119 0 -218.5 27t-179 75t-140 114.5t-100.5 146t-60.5 169t-20.5 183.5z" />
<glyph unicode="H" horiz-adv-x="1575" d="M90 0v166h170v1028h-170v166h518v-166h-170v-408h699v408h-170v166h518v-166h-170v-1028h170v-166h-518v166h170v455h-699v-455h170v-166h-518z" />
<glyph unicode="I" horiz-adv-x="698" d="M90 0v166h170v1028h-170v166h518v-166h-170v-1028h170v-166h-518z" />
<glyph unicode="J" horiz-adv-x="641" d="M8 0v168q26 -8 55.5 -10t55.5 -2q77 0 109 53t32 153v832h-170v166h518v-166h-170v-832q0 -86 -15 -156t-49.5 -120t-91 -77t-139.5 -27q-32 0 -64.5 3.5t-70.5 14.5z" />
<glyph unicode="K" horiz-adv-x="1391" d="M90 0v166h170v1028h-170v166h518v-166h-170v-508l496 508h-189v166h570v-166h-170l-418 -416l494 -612h170v-166h-570v166h189l-396 498l-176 -179v-319h170v-166h-518z" />
<glyph unicode="L" horiz-adv-x="1190" d="M90 0v166h170v1028h-170v166h559v-166h-211v-1028h520v256h166v-422h-1034z" />
<glyph unicode="M" horiz-adv-x="1772" d="M90 0v166h170v1028h-170v166h434l365 -1030h6l358 1030h428v-166h-170v-1028h170v-166h-526v166h191v1028h-9l-17 -60l-19 -65l-21 -65l-20 -60l-328 -944h-98l-338 948q-17 48 -36.5 112.5t-37.5 135.5h-8v-1030h190v-166h-514z" />
<glyph unicode="N" horiz-adv-x="1524" d="M90 0v166h170v1028h-170v166h342l539 -799l97 -140q45 -65 79 -130h4q-4 34 -6 80t-3 92.5t-1 90.5v73v567h-191v166h525v-166h-170v-1194h-162l-430 633l-81 122l-78 121l-70 112l-62 97h-6q3 -30 4.5 -72t2.5 -84.5t1 -82.5v-64v-616h190v-166h-524z" />
<glyph unicode="O" horiz-adv-x="1524" d="M61 678q0 146 51 276.5t143 229t220 156t283 57.5q109 0 203.5 -27t173 -75t139 -114.5t102.5 -146.5t64 -170.5t22 -185.5q0 -150 -52 -280t-145 -227t-221 -152.5t-280 -55.5q-121 0 -220 30t-177 81.5t-135.5 121t-95.5 149t-56.5 164.5t-18.5 169zM252 678 q0 -117 38.5 -216.5t107 -171.5t161.5 -112.5t201 -40.5t201.5 40.5t162.5 112.5t108.5 171.5t39.5 216.5q0 114 -37 213.5t-104.5 173t-162 116t-208.5 42.5q-108 0 -200.5 -41t-161 -114t-107.5 -173t-39 -217z" />
<glyph unicode="P" horiz-adv-x="1231" d="M90 0v166h170v1028h-170v166h578q133 0 224.5 -38t148 -99.5t81.5 -140.5t25 -160t-27.5 -157.5t-83.5 -136t-143 -96t-205 -36.5h-250v-330h191v-166h-539zM438 662h240q70 0 122.5 21.5t87 57.5t51.5 84t17 101q0 128 -71.5 198t-210.5 70h-236v-532z" />
<glyph unicode="Q" horiz-adv-x="1524" d="M61 678q0 146 51 276.5t143 229t220 156t283 57.5q109 0 203.5 -27t173 -75t139 -114.5t102.5 -146.5t64 -170.5t22 -185.5q0 -135 -45.5 -254.5t-128 -210.5t-197 -149t-251.5 -70v-4q45 -8 83 -14t72 -10.5t66 -6.5t65 -2q15 0 33 1.5t37.5 4.5t38.5 8t35 13v-160 q-25 -11 -62.5 -16t-81.5 -5q-64 0 -129 10t-132 22t-136 22t-139 10q-23 0 -52 -2t-60.5 -6.5t-62.5 -12.5t-59 -20v129q56 23 127 33t144 10v4q-140 21 -246 85.5t-177 157t-107 205t-36 228.5zM252 678q0 -117 38.5 -216.5t107 -171.5t161.5 -112.5t201 -40.5t201.5 40.5 t162.5 112.5t108.5 171.5t39.5 216.5q0 114 -37 213.5t-104.5 173t-162 116t-208.5 42.5q-108 0 -200.5 -41t-161 -114t-107.5 -173t-39 -217z" />
<glyph unicode="R" horiz-adv-x="1268" d="M90 0v166h170v1028h-170v166h592q121 0 211.5 -27t149.5 -76t88.5 -116t29.5 -148q0 -73 -24 -130t-63 -97.5t-89.5 -64.5t-103.5 -31v-4q68 -12 115.5 -39t77 -67.5t43 -92t13.5 -111.5v-190h156v-166h-334v317q0 130 -64 196.5t-204 66.5h-246v-414h170v-166h-518z M438 745h254q133 0 206 58.5t73 173.5q0 105 -74.5 161t-208.5 56h-250v-449z" />
<glyph unicode="S" horiz-adv-x="1098" d="M106 0v401h166v-102q25 -31 57 -62t72 -56.5t87 -41.5t102 -16q60 0 106 17.5t77.5 47.5t48 69t16.5 81q0 40 -12.5 79.5t-43.5 75t-84.5 67t-134.5 56.5q-104 32 -184 69t-134 86.5t-82 115.5t-28 157q0 72 27 136.5t76 112.5t117.5 76t150.5 28q109 0 185.5 -35.5 t127.5 -87.5v86h164v-352h-164v73q-15 25 -38.5 52.5t-56 50.5t-76 38t-99.5 15q-48 0 -90 -12t-73.5 -36t-50 -58.5t-18.5 -79.5q0 -53 19 -91.5t58.5 -67.5t99.5 -53t141 -48q108 -33 181 -77.5t118 -99.5t64.5 -121t19.5 -143q0 -69 -25 -138t-76 -124.5t-128.5 -90 t-182.5 -34.5q-55 0 -105 13t-93 34t-77.5 47t-58.5 52v-109h-166z" />
<glyph unicode="T" horiz-adv-x="1149" d="M29 958v402h1091v-402h-164v236h-292v-1028h190v-166h-559v166h190v1028h-292v-236h-164z" />
<glyph unicode="U" horiz-adv-x="1436" d="M49 1194v166h539v-166h-191v-664q0 -89 22 -161.5t65 -124t105 -79.5t142 -28q87 0 147 30t97.5 82.5t54.5 124.5t17 156v664h-191v166h530v-166h-169v-649q0 -158 -37 -269t-103 -180.5t-157 -101t-199 -31.5q-98 0 -188.5 30t-160 98.5t-111.5 178.5t-42 271v653h-170z " />
<glyph unicode="V" horiz-adv-x="1284" d="M0 1194v166h504v-166h-164l301 -952h8l305 952h-166v166h496v-166h-154l-397 -1194h-198l-388 1194h-147z" />
<glyph unicode="W" horiz-adv-x="1937" d="M0 1194v166h512v-166h-180l272 -995h6l258 995h-174v166h580v-166h-174l258 -995h6l258 995h-174v166h489v-166h-149l-322 -1194h-221l-264 1061h-6l-266 -1061h-222l-337 1194h-150z" />
<glyph unicode="X" horiz-adv-x="1292" d="M20 0v166h152l369 530l-344 498h-150v166h531v-166h-187l252 -387l260 387h-178v166h514v-166h-149l-349 -502l375 -526h150v-166h-531v166h185l-283 403l-277 -403h177v-166h-517z" />
<glyph unicode="Y" horiz-adv-x="1290" d="M0 1194v166h524v-166h-184l313 -530h4l312 530h-185v166h506v-166h-149l-406 -680v-348h170v-166h-518v166h170v348l-407 680h-150z" />
<glyph unicode="Z" horiz-adv-x="1208" d="M117 0v133l764 1061h-557v-209h-166v375h944v-137l-768 -1057h614v240h166v-406h-997z" />
<glyph unicode="[" horiz-adv-x="588" d="M190 -465v1899h361v-125h-199v-1649h199v-125h-361z" />
<glyph unicode="\" horiz-adv-x="827" d="M20 1421h158l670 -1691h-158z" />
<glyph unicode="]" horiz-adv-x="588" d="M37 -340h199v1649h-199v125h360v-1899h-360v125z" />
<glyph unicode="^" horiz-adv-x="1376" d="M223 600l400 760h125l401 -760h-152l-311 614l-311 -614h-152z" />
<glyph unicode="_" horiz-adv-x="1024" d="M0 -154h1024v-100h-1024v100z" />
<glyph unicode="`" horiz-adv-x="643" d="M-57 1362h247l316 -299h-156z" />
<glyph unicode="a" horiz-adv-x="1079" d="M80 299q0 60 24.5 119t73 106t119.5 76t164 29q105 0 180.5 -25t120.5 -63v55q0 60 -14.5 103.5t-47.5 71t-86 41t-129 13.5q-55 0 -122 -10t-125 -29l-31 142q31 10 68 18t76 13.5t78.5 8.5t76.5 3q124 0 204 -26t126.5 -74.5t65 -117.5t18.5 -155v-453h120v-145h-264 l-6 92h-4q-48 -56 -122 -90.5t-179 -34.5q-91 0 -162.5 26.5t-121 72t-75.5 105.5t-26 128zM238 303q0 -45 18.5 -81t52 -60.5t80.5 -37.5t105 -13q62 0 113 13.5t87 39t56 62.5t20 83q0 44 -20.5 79t-57 59.5t-86.5 37.5t-110 13q-63 0 -111 -16t-81 -43t-49.5 -62 t-16.5 -74z" />
<glyph unicode="b" horiz-adv-x="1253" d="M49 0v145h141v1069h-141v146h299v-565h4q28 39 65 71.5t83 55.5t102 36t123 13q96 0 178.5 -38t143 -105.5t95 -160t34.5 -202.5q0 -107 -34.5 -198t-95.5 -158t-145 -104.5t-184 -37.5q-69 0 -123.5 12t-98 33t-78 51t-65.5 66h-4l-10 -129h-289zM342 469 q0 -82 25.5 -148t70 -112t105 -71t129.5 -25q87 0 151 30.5t106 80t62.5 113t20.5 130.5q0 71 -21 136t-63 114.5t-105 78.5t-147 29q-65 0 -125 -25t-106.5 -71.5t-74.5 -112.5t-28 -147z" />
<glyph unicode="c" horiz-adv-x="1108" d="M78 473q0 100 31 190t89.5 158.5t144 109t194.5 40.5q54 0 101.5 -11t86.5 -27.5t68.5 -36.5t48.5 -38v80h145v-342h-145v94q-48 59 -116.5 97t-150.5 38q-68 0 -128 -23t-106 -68t-72.5 -110.5t-26.5 -150.5q0 -79 24 -145t67.5 -114t104 -74.5t133.5 -26.5 q56 0 100 13.5t77 38t55.5 58.5t34.5 74h170q-17 -64 -51.5 -123.5t-89.5 -105.5t-130.5 -73.5t-173.5 -27.5q-99 0 -187 35t-154.5 100t-105 159t-38.5 212z" />
<glyph unicode="d" horiz-adv-x="1241" d="M78 465q0 110 35 202.5t96 160t144 105.5t179 38q66 0 121.5 -13t101.5 -36t82 -55t64 -70h6v417h-162v146h320v-1215h141v-145h-288l-11 137h-6q-28 -35 -62.5 -65.5t-78 -54t-97.5 -37t-120 -13.5q-102 0 -187.5 37t-147 103.5t-96 158t-34.5 199.5zM242 467 q0 -67 20 -130.5t62 -113t106 -80t152 -30.5q67 0 127 25t105 71t71 112t26 148q0 81 -27.5 147t-73 112.5t-105.5 71.5t-125 25q-83 0 -146.5 -29t-106 -78.5t-64 -114.5t-21.5 -136z" />
<glyph unicode="e" horiz-adv-x="1102" d="M78 471q0 105 34.5 196t97 158.5t150.5 106.5t195 39q103 0 189 -39.5t148 -108.5t97 -163t35 -203v-16q0 -6 -2 -15h-778q3 -70 30.5 -127.5t71.5 -99t102 -64t123 -22.5q51 0 91 9.5t72.5 26.5t57.5 41.5t46 53.5h170q-26 -57 -65.5 -107.5t-93 -88t-123 -59.5 t-155.5 -22q-107 0 -197 36.5t-156 103t-103 159.5t-37 205zM248 559h606q-8 50 -30 97.5t-59.5 85t-91.5 60.5t-124 23q-67 0 -120.5 -22t-91.5 -59t-61 -85t-28 -100z" />
<glyph unicode="f" horiz-adv-x="600" d="M70 0v145h141v648h-141v145h141v104q0 74 17.5 133t53.5 100t90.5 63t127.5 22h133v-146h-117q-63 0 -105 -44t-42 -132v-100h192v-145h-192v-648h192v-145h-491z" />
<glyph unicode="g" horiz-adv-x="1239" d="M78 469q0 113 36 205.5t98.5 158.5t147.5 102t183 36q70 0 127.5 -15.5t102 -41t77 -57.5t53.5 -64h8l11 145h268v-145h-121v-619q0 -122 -27 -222t-87.5 -171t-157 -110.5t-234.5 -39.5q-106 0 -192 13.5t-166 36.5l33 137q36 -9 77.5 -17t83 -13t80.5 -8t70 -3 q107 0 177 28.5t111 77.5t57.5 115t16.5 141v17h-6q-60 -77 -146 -123.5t-200 -46.5q-104 0 -192.5 33t-152.5 95.5t-100 152t-36 202.5zM242 473q0 -68 21 -130t63 -109t106 -75t150 -28q69 0 129 24.5t104.5 69.5t70 109.5t25.5 144.5t-27.5 144t-73.5 109t-106 69 t-124 24q-85 0 -148.5 -28.5t-105.5 -76.5t-63 -112t-21 -135z" />
<glyph unicode="h" horiz-adv-x="1239" d="M49 0v145h141v1069h-141v146h299v-555h4q25 34 58 64.5t73.5 53t88.5 35.5t104 13q77 0 143.5 -24.5t116 -76t78 -131t28.5 -190.5v-404h142v-145h-461v145h162v396q0 140 -66.5 212t-185.5 72q-62 0 -114.5 -20.5t-90.5 -61t-59 -100t-21 -137.5v-361h162v-145h-461z " />
<glyph unicode="i" horiz-adv-x="545" d="M70 0v145h141v648h-141v145h299v-793h141v-145h-440zM188 1143v180h191v-180h-191z" />
<glyph unicode="j" horiz-adv-x="545" d="M27 -190h32q46 0 75.5 16t46.5 45.5t23.5 70t6.5 89.5v762h-141v145h299v-928q0 -74 -14 -137t-47.5 -109.5t-89.5 -73t-140 -26.5h-51v146zM188 1143v180h191v-180h-191z" />
<glyph unicode="k" horiz-adv-x="1110" d="M49 0v145h141v1069h-141v146h299v-883l336 316h-156v145h500v-145h-151l-248 -230l332 -418h141v-145h-477v145h145l-250 320l-172 -164v-156h141v-145h-440z" />
<glyph unicode="l" horiz-adv-x="524" d="M49 0v145h141v1069h-141v146h299v-1215h141v-145h-440z" />
<glyph unicode="m" horiz-adv-x="1835" d="M70 0v145h141v648h-141v145h288l11 -133h4q23 35 52 65.5t65.5 53t80.5 35t97 12.5q52 0 96.5 -13.5t81 -38.5t64.5 -59t46 -76h7q54 90 131 138.5t188 48.5q76 0 141 -24.5t113 -76.5t75 -131.5t27 -189.5v-404h142v-145h-461v145h162v410q0 58 -13 107.5t-41.5 85.5 t-73 56.5t-106.5 20.5q-50 0 -94 -16t-77 -50.5t-52.5 -89t-19.5 -130.5v-394h161v-145h-481v145h162v392q0 146 -61 217t-164 71q-55 0 -101 -20.5t-79.5 -60.5t-52.5 -100t-19 -138v-361h161v-145h-460z" />
<glyph unicode="n" horiz-adv-x="1264" d="M70 0v145h141v648h-141v145h288l11 -133h4q24 34 56.5 64.5t73 53t89.5 35.5t106 13q77 0 144 -24.5t117 -76t79 -131t29 -190.5v-404h141v-145h-460v145h161v396q0 72 -18 125.5t-51 88.5t-80 52.5t-105 17.5q-62 0 -114.5 -20.5t-90.5 -61t-59.5 -100t-21.5 -137.5 v-361h161v-145h-460z" />
<glyph unicode="o" horiz-adv-x="1157" d="M78 471q0 108 38.5 200t106 158.5t159.5 104t198 37.5q109 0 200.5 -38.5t158 -105.5t103.5 -158.5t37 -197.5q0 -105 -37.5 -197t-104 -160.5t-158 -107.5t-199.5 -39q-107 0 -198.5 38.5t-159 106t-106 159.5t-38.5 200zM242 469q0 -79 27 -144.5t73.5 -112.5 t107.5 -73t130 -26q73 0 135 27t106 74.5t69 112.5t25 142q0 74 -23.5 139t-67.5 113t-106 76t-138 28q-75 0 -137.5 -26.5t-107 -74t-69 -112.5t-24.5 -143z" />
<glyph unicode="p" horiz-adv-x="1274" d="M70 -190h141v983h-141v145h288l11 -143h4q28 39 65 71.5t83 55.5t101.5 36t122.5 13q96 0 178.5 -38t143 -105.5t95 -160t34.5 -202.5q0 -107 -34 -198t-95 -158t-145.5 -104.5t-184.5 -37.5q-69 0 -123 12t-97.5 33t-78 51t-65.5 66h-4v-319h161v-146h-460v146zM362 469 q0 -82 25.5 -148t70.5 -112t105 -71t129 -25q87 0 151 30.5t106 80t62.5 113t20.5 130.5q0 71 -21 136t-63 114.5t-105 78.5t-147 29q-65 0 -125 -25t-106.5 -71.5t-74.5 -112.5t-28 -147z" />
<glyph unicode="q" horiz-adv-x="1284" d="M78 465q0 110 35 202.5t96 160t144 105.5t179 38q66 0 121.5 -13t101.5 -36t82 -55t64 -70h6l11 141h288v-145h-141v-983h141v-146h-461v146h162v327h-6q-28 -35 -62.5 -65.5t-78 -54t-97.5 -37t-120 -13.5q-102 0 -187.5 37t-147 103.5t-96 158t-34.5 199.5zM242 467 q0 -67 20 -130.5t62 -113t106 -80t152 -30.5q67 0 127 25t105 71t71 112t26 148q0 81 -27.5 147t-73 112.5t-105.5 71.5t-125 25q-83 0 -146.5 -29t-106 -78.5t-64 -114.5t-21.5 -136z" />
<glyph unicode="r" horiz-adv-x="801" d="M70 0v145h141v648h-141v145h288l11 -156h4q21 36 49.5 66.5t65.5 53t82.5 35.5t99.5 13q29 0 46.5 -2t39.5 -8v-158q-23 7 -47 10t-58 3q-82 0 -136.5 -30.5t-86.5 -79t-45.5 -109.5t-13.5 -121v-310h161v-145h-460z" />
<glyph unicode="s" horiz-adv-x="840" d="M76 0v303h129v-84q15 -18 38.5 -39t54 -39t67.5 -29.5t79 -11.5q46 0 78.5 14t53.5 35t30.5 46.5t9.5 48.5q0 36 -12 61t-37 44t-63.5 33t-91.5 28q-80 21 -140 47t-100 61.5t-60 83t-20 111.5q0 55 21.5 102.5t59 82t88.5 54t110 19.5q39 0 73 -7.5t62.5 -20.5t52 -29 t41.5 -33v57h131v-258h-129v68q-9 13 -26 28.5t-42 29t-59 23t-76 9.5q-66 0 -108.5 -32t-42.5 -91q0 -33 13.5 -56t43 -41t74.5 -33t108 -32q70 -18 123.5 -43t89.5 -59.5t54 -80t18 -106.5t-21.5 -115t-61.5 -94.5t-96 -64t-126 -23.5q-46 0 -86 10.5t-73.5 27t-59 36 t-43.5 37.5v-78h-129z" />
<glyph unicode="t" horiz-adv-x="621" d="M0 793v145h150v299h157v-299h244v-145h-244v-471q0 -39 8.5 -71.5t28 -56t51 -36.5t76.5 -13h80v-145h-121q-139 0 -209.5 76.5t-70.5 232.5v484h-150z" />
<glyph unicode="u" horiz-adv-x="1210" d="M35 793v145h297v-537q0 -71 17.5 -125t49 -90t76.5 -54.5t100 -18.5q61 0 111 21.5t86 63t56 101.5t20 137v357h-141v145h299v-793h141v-145h-295l-10 129h-4q-23 -32 -53.5 -61.5t-69.5 -52t-87 -35.5t-104 -13q-74 0 -137.5 25.5t-111 77t-74.5 130.5t-27 187v406h-139 z" />
<glyph unicode="v" horiz-adv-x="1024" d="M0 793v145h406v-145h-119l233 -582h4l226 582h-121v145h395v-145h-115l-321 -793h-144l-331 793h-113z" />
<glyph unicode="w" horiz-adv-x="1516" d="M0 793v145h406v-145h-130l195 -596h4l201 596h-131v145h436v-145h-129l195 -596h4l200 596h-131v145h396v-145h-115l-287 -793h-143l-211 645h-4l-217 -645h-144l-282 793h-113z" />
<glyph unicode="x" horiz-adv-x="1077" d="M27 0v145h120l299 336l-278 312h-121v145h451v-145h-136l181 -218l190 218h-131v145h436v-145h-120l-283 -314l295 -334h121v-145h-447v145h135l-202 236l-205 -236h131v-145h-436z" />
<glyph unicode="y" horiz-adv-x="1024" d="M0 793v145h406v-145h-119l233 -576h4l226 576h-121v145h395v-145h-115l-336 -828q-32 -77 -66.5 -133.5t-78.5 -94t-100 -55.5t-129 -18h-76v146h74q43 0 75 10.5t56.5 31t44 51.5t39.5 72l22 50l-321 768h-113z" />
<glyph unicode="z" horiz-adv-x="1012" d="M86 0v141l616 652h-432v-158h-145v303h776v-141l-616 -652h475v177h145v-322h-819z" />
<glyph unicode="{" horiz-adv-x="735" d="M92 432v111q59 0 100.5 16.5t67.5 46t37.5 69t11.5 85.5v391q0 67 15.5 124t49 98.5t85.5 65t125 23.5h90v-110h-66q-38 0 -65.5 -14t-44.5 -38t-25 -57t-8 -72v-391q0 -56 -8.5 -103t-31 -84.5t-61.5 -64t-100 -41.5v-4q59 -11 98 -37.5t62 -65.5t32 -89t9 -107v-383 q0 -41 8 -75.5t25 -59.5t44.5 -39t65.5 -14h66v-111h-90q-73 0 -125 23.5t-85.5 66t-49 101.5t-15.5 129v385q0 45 -11.5 85.5t-37.5 71.5t-67.5 49t-100.5 19z" />
<glyph unicode="|" horiz-adv-x="735" d="M295 -549v2269h160v-2269h-160z" />
<glyph unicode="}" horiz-adv-x="735" d="M61 -387h66q38 0 65 14t44.5 39t25.5 59.5t8 75.5v383q0 57 9 107t32 89t62 65.5t98 37.5v4q-61 15 -100 41.5t-61.5 64t-31 84.5t-8.5 103v391q0 39 -8 72t-25.5 57t-44.5 38t-65 14h-66v110h91q73 0 125 -23.5t85 -65t48.5 -98.5t15.5 -124v-391q0 -46 11.5 -85.5 t37.5 -69t67.5 -46t100.5 -16.5v-111q-59 -1 -100.5 -19t-67.5 -49t-37.5 -71.5t-11.5 -85.5v-385q0 -70 -15.5 -129t-48.5 -101.5t-85 -66t-125 -23.5h-91v111z" />
<glyph unicode="~" horiz-adv-x="1376" d="M61 532q22 52 54.5 97t75.5 78.5t96.5 53t118.5 19.5q51 0 99.5 -12t96 -30t93.5 -39t91.5 -39t90 -30t88.5 -12q72 0 130 40.5t89 121.5l131 -61q-50 -116 -136 -182t-210 -66q-51 0 -100 12t-96.5 30t-93.5 39t-90.5 39t-87 30t-83.5 12t-76 -12t-63.5 -33.5t-50.5 -51 t-35 -63.5z" />
<glyph unicode="&#xa1;" horiz-adv-x="502" d="M143 717v219h217v-219h-217zM162 -100l37 651h104l41 -651v-326h-182v326z" />
<glyph unicode="&#xa2;" d="M127 666q0 81 25.5 155.5t74.5 133.5t120 98t163 51v256h127v-256q32 -5 61 -15t53 -22t42.5 -24.5t29.5 -24.5v72h146v-302h-146v62q-28 40 -77 69t-109 37v-585q78 8 124 46.5t66 94.5h170q-15 -53 -43.5 -102t-73 -88t-105 -65t-138.5 -32v-225h-127v229 q-81 12 -151 47t-121.5 91t-81 131.5t-29.5 167.5zM295 666q0 -54 15 -100.5t42.5 -83.5t67.5 -63.5t90 -39.5v567q-45 -12 -84.5 -35.5t-68.5 -59t-45.5 -82t-16.5 -103.5z" />
<glyph unicode="&#xa3;" d="M98 -10v160q53 25 90.5 57.5t61 70.5t34.5 80t11 86q0 24 -1 44.5t-3 40.5t-6.5 41.5t-10.5 47.5h-176v166h140q-14 60 -23.5 119.5t-9.5 118.5q0 78 23.5 146.5t71.5 119.5t121 81t171 30q73 0 138.5 -26t115.5 -74.5t81.5 -118t37.5 -156.5h-164q-11 99 -62 150 t-147 51q-51 0 -88.5 -17t-62.5 -47t-37.5 -71t-12.5 -89q0 -57 10 -109l21 -108h375v-166h-338l9 -48q3 -21 5 -40t3 -39t1 -47q0 -75 -25 -138t-77 -103q11 2 24 2h25q45 0 85 -8.5t85 -24.5q38 -14 72 -22.5t75 -8.5q48 0 76.5 14.5t43.5 39.5t19.5 58.5t4.5 70.5h164 q0 -77 -13 -142.5t-47 -113t-91.5 -74.5t-147.5 -27q-50 0 -98 10.5t-107 28.5q-122 35 -240 35q-54 0 -105 -12.5t-102 -38.5z" />
<glyph unicode="&#xa4;" d="M92 336l139 133q-35 53 -56 113t-21 123q0 61 19.5 122.5t57.5 112.5l-139 135l92 94l140 -137q60 44 122.5 61t114.5 17q57 0 122 -19t116 -59l139 137l94 -94l-139 -135q42 -57 59 -118.5t17 -116.5q0 -62 -19 -121t-57 -115l139 -133l-94 -94l-137 137 q-51 -37 -112.5 -57.5t-127.5 -20.5q-26 0 -55.5 3.5t-60.5 12.5t-62 24t-59 38l-140 -137zM287 707q0 -56 22 -106.5t59.5 -88.5t87 -60t105.5 -22q57 0 107.5 22t88 59.5t59.5 88t22 107.5q0 60 -23.5 110t-62.5 86t-88.5 56t-100.5 20q-59 0 -109.5 -22t-87.5 -59 t-58 -86.5t-21 -104.5z" />
<glyph unicode="&#xa5;" d="M0 1194v166h500v-166h-164l235 -446h7l225 446h-162v166h485v-166h-127l-276 -463h248v-139h-320v-150h320v-139h-320v-137h170v-166h-518v166h170v137h-317v139h317v150h-317v139h243l-272 463h-127z" />
<glyph unicode="&#xa6;" horiz-adv-x="735" d="M295 371h160v-920h-160v920zM295 807v913h160v-913h-160z" />
<glyph unicode="&#xa7;" horiz-adv-x="840" d="M127 0v303h129v-84q19 -21 43.5 -42.5t54 -38.5t65 -27.5t77.5 -10.5q45 0 77.5 12.5t53.5 32.5t31 45t10 50q0 20 -4.5 42t-24.5 43.5t-61.5 42.5t-114.5 38q-70 18 -129 41t-101.5 57t-66 82t-23.5 116q0 76 32.5 129.5t86.5 88.5q-52 32 -85.5 84.5t-33.5 138.5 q0 51 20 97.5t56.5 81t88 55t114.5 20.5q38 0 72.5 -7.5t63.5 -20.5t52.5 -29t40.5 -33v61h131v-258h-129v64q-14 18 -33 34t-44 28.5t-56.5 20t-68.5 7.5q-39 0 -68 -9.5t-47.5 -26t-27.5 -38t-9 -45.5q0 -31 12 -53.5t40 -40.5t74 -34t114 -34q90 -23 145.5 -54t86 -68.5 t41.5 -79.5t11 -87q0 -78 -29 -133t-71 -90q31 -24 51 -49.5t30.5 -52t14.5 -54t4 -55.5q0 -53 -19 -105.5t-57 -94t-95.5 -67.5t-135.5 -26q-45 0 -84 10.5t-72 26.5t-59.5 36t-44.5 38v-78h-129zM297 721q0 -31 10.5 -54t31 -40t49.5 -30t65 -24q48 -14 85.5 -23.5 t57.5 -17.5q29 22 50.5 55t21.5 77q0 30 -7 53.5t-24 42.5t-45.5 34.5t-71.5 28.5q-28 9 -46.5 13.5l-31.5 7.5l-23 6q-10 3 -20 8q-21 -10 -39.5 -23.5t-32.5 -30.5t-22 -38t-8 -45z" />
<glyph unicode="&#xa8;" horiz-adv-x="643" d="M59 1118v180h181v-180h-181zM416 1118v180h178v-180h-178z" />
<glyph unicode="&#xa9;" horiz-adv-x="1616" d="M84 690q0 102 26 195.5t74 174.5t114.5 147.5t148 113.5t174.5 72.5t194 25.5t195 -25.5t175 -72.5t147.5 -113.5t114 -147.5t73.5 -174.5t26 -195.5q0 -101 -26 -194.5t-73.5 -174t-114 -146.5t-147.5 -113.5t-175 -73t-195 -25.5t-194 25.5t-174.5 73t-148 113.5 t-114.5 146.5t-74 174t-26 194.5zM203 690q0 -127 48.5 -238.5t132 -194.5t195 -131t236.5 -48q127 0 239 48t195.5 131t132 194.5t48.5 238.5q0 84 -22 162.5t-62.5 146.5t-96.5 124t-124.5 96t-147 62t-162.5 22q-83 0 -161 -22t-146 -62t-124 -96t-96.5 -124 t-62.5 -146.5t-22 -162.5zM453 698q0 81 25 150.5t71.5 121.5t114 81.5t151.5 29.5q63 0 118.5 -23.5t92.5 -62.5v70h107v-285h-107v58q-10 27 -27.5 51.5t-42.5 42.5t-57.5 28.5t-71.5 10.5q-50 0 -94.5 -18.5t-78 -54t-53 -87.5t-19.5 -119q0 -57 18 -107t51.5 -87.5 t81.5 -59.5t107 -22q75 0 122.5 41t67.5 104h123q-16 -57 -45 -104t-70.5 -80.5t-94 -52.5t-116.5 -19q-87 0 -156.5 29t-118 81.5t-74 124.5t-25.5 158z" />
<glyph unicode="&#xaa;" horiz-adv-x="778" d="M74 958q0 42 16.5 79t49 65t81 44.5t113.5 16.5q63 0 108 -18.5t74 -44.5v33q0 38 -9.5 62.5t-29 38t-49 18.5t-70.5 5q-40 0 -87 -4.5t-95 -19.5l-22 96q45 14 103.5 21.5t115.5 7.5q82 0 133.5 -16t80 -46t38.5 -73.5t10 -98.5v-254h90v-98h-201l-6 62h-4 q-34 -35 -81 -54.5t-114 -19.5q-57 0 -102 15.5t-77 42.5t-49 63t-17 77zM190 967q0 -21 11 -40.5t33 -35t55 -24.5t78 -9q74 0 113.5 29.5t39.5 83.5q0 27 -12 47t-32 32.5t-47 18.5t-58 6q-90 0 -135.5 -31t-45.5 -77z" />
<glyph unicode="&#xab;" horiz-adv-x="862" d="M84 455l221 344h131l-176 -340l178 -340h-133zM408 455l221 344h133l-180 -340l182 -340h-135z" />
<glyph unicode="&#xac;" horiz-adv-x="1376" d="M80 561v146h1218v-699h-139v553h-1079z" />
<glyph unicode="&#xad;" horiz-adv-x="872" d="M131 561v146h608v-146h-608z" />
<glyph unicode="&#xae;" horiz-adv-x="1169" d="M102 909q0 102 38 190t103 153t153 102t188 37t188.5 -37t153.5 -102t103 -153t38 -190q0 -100 -38 -187t-103 -152t-153.5 -102.5t-188.5 -37.5t-188 37.5t-153 102.5t-103 152t-38 187zM180 909q0 -83 32.5 -156.5t87.5 -128t128.5 -86.5t155.5 -32q84 0 157.5 32 t128.5 86.5t87 128t32 156.5q0 84 -32 158t-87 129t-128.5 87t-157.5 32q-82 0 -155.5 -32t-128.5 -87t-87.5 -129t-32.5 -158zM373 666v69h55v371h-55v72h196q115 0 169.5 -43t54.5 -109q0 -26 -8 -49.5t-23 -42.5t-36.5 -32.5t-49.5 -18.5l108 -148h58v-69h-109l-145 198 h-80v-129h63v-69h-198zM510 936h82q54 0 86.5 22t32.5 64q0 48 -32.5 66t-92.5 18h-76v-170z" />
<glyph unicode="&#xaf;" horiz-adv-x="643" d="M25 1124v133h591v-133h-591z" />
<glyph unicode="&#xb0;" horiz-adv-x="733" d="M80 1110q0 60 22.5 112.5t61 91t90.5 61t111 22.5t111 -22.5t91 -61t61.5 -91t22.5 -112.5q0 -59 -22.5 -111t-61.5 -90.5t-91 -61t-111 -22.5t-111 22.5t-90.5 61t-61 90.5t-22.5 111zM188 1110q0 -36 12.5 -69.5t35.5 -59t55.5 -40.5t73.5 -15q40 0 72.5 15t55.5 40.5 t35.5 59t12.5 69.5q0 37 -12.5 70.5t-35.5 59t-55.5 41t-72.5 15.5q-41 0 -73.5 -15.5t-55.5 -41t-35.5 -59t-12.5 -70.5z" />
<glyph unicode="&#xb1;" horiz-adv-x="1376" d="M80 0v145h1218v-145h-1218zM80 739v146h538v501h140v-501h540v-146h-540v-501h-140v501h-538z" />
<glyph unicode="&#xb2;" horiz-adv-x="668" d="M70 545v121l268 290q28 29 49 53.5t35 47.5t21.5 47t7.5 53q0 50 -26 81.5t-83 31.5q-31 0 -53 -10.5t-37 -30t-23 -46.5t-10 -59h-145q4 62 27 112t58.5 85t81.5 53.5t97 18.5q63 0 110.5 -18.5t79.5 -49t48 -71t16 -85.5q0 -77 -36.5 -145.5t-111.5 -142.5l-202 -205 h233v137h127v-268h-532z" />
<glyph unicode="&#xb3;" horiz-adv-x="668" d="M51 782h139q8 -65 45 -99t103 -34q36 0 62 12.5t43.5 32.5t25.5 45.5t8 51.5q0 66 -48 101.5t-144 35.5h-39v116h37q72 0 119 30t47 87q0 51 -28.5 79t-82.5 28q-31 0 -53 -9.5t-37 -25.5t-23.5 -37t-11.5 -43h-143q6 47 27 90.5t55 76.5t80 53t102 20q66 0 115 -18 t81 -49t48 -71t16 -84q0 -37 -12 -66.5t-32 -51.5t-46 -37t-53 -23v-2q77 -18 124.5 -70t47.5 -143q0 -49 -18 -95t-54 -81t-91 -56.5t-128 -21.5q-70 0 -120.5 21.5t-84 57t-52 82t-24.5 97.5z" />
<glyph unicode="&#xb4;" horiz-adv-x="643" d="M170 1063l315 299h246l-405 -299h-156z" />
<glyph unicode="&#xb5;" horiz-adv-x="1210" d="M35 793v145h297v-530q0 -72 17.5 -126t49 -91t76.5 -55.5t100 -18.5q61 0 111 21.5t86 62.5t56 100.5t20 136.5v355h-141v145h299v-793h141v-145h-295l-10 129h-4q-41 -69 -114 -113.5t-169 -44.5q-65 0 -128 21.5t-103 64.5l-5 -2q3 -26 5.5 -56t4 -60t2.5 -58t1 -51 v-166h-158v1129h-139z" />
<glyph unicode="&#xb6;" horiz-adv-x="1143" d="M78 973q0 97 28.5 170t82.5 121t132 72t177 24h571v-146h-145v-1407h145v-143h-291v1550h-143v-1550h-291v143h145v791q-94 0 -170 27t-129.5 76t-82.5 118.5t-29 153.5z" />
<glyph unicode="&#xb7;" horiz-adv-x="502" d="M141 586v219h219v-219h-219z" />
<glyph unicode="&#xb8;" horiz-adv-x="643" d="M145 -270h84q58 0 79.5 17.5t21.5 43.5q0 31 -24.5 42t-59.5 11h-70l86 166h131l-55 -96q31 -2 57 -13.5t45 -29.5t30 -41t11 -49q0 -75 -54.5 -116.5t-170.5 -41.5h-111v107z" />
<glyph unicode="&#xb9;" horiz-adv-x="668" d="M111 545v121h145v573h-145v121h292v-694h148v-121h-440z" />
<glyph unicode="&#xba;" horiz-adv-x="840" d="M72 1055q0 65 26.5 120.5t73.5 96t110.5 63.5t137.5 23q75 0 139 -23t110.5 -64t72.5 -96.5t26 -119.5q0 -65 -26.5 -121t-73 -97t-110.5 -65t-138 -24q-75 0 -138.5 23t-110 64.5t-73 97.5t-26.5 122zM209 1055q0 -44 17 -80t45.5 -61.5t67 -39.5t81.5 -14 q47 0 85.5 14.5t66 40.5t42.5 62t15 78q0 39 -14.5 73.5t-41.5 60.5t-66 41t-87 15t-86.5 -14t-66.5 -39t-43 -60t-15 -77z" />
<glyph unicode="&#xbb;" horiz-adv-x="862" d="M98 799h135l222 -336l-222 -344h-133l181 340l-91 169zM422 799h133l221 -336l-221 -344h-131l178 340z" />
<glyph unicode="&#xbc;" horiz-adv-x="1520" d="M100 545v121h145v573h-145v121h292v-694h148v-121h-440zM324 0l713 1360h149l-715 -1360h-147zM828 228v113l368 475h150v-475h125v-113h-125v-115h92v-112h-336v112h109v115h-383zM957 341h254v319h-6z" />
<glyph unicode="&#xbd;" horiz-adv-x="1532" d="M100 545v121h145v573h-145v121h292v-694h148v-121h-440zM320 0l713 1360h149l-715 -1360h-147zM932 1v121l268 290q28 29 49 53.5t35 47.5t21.5 47t7.5 53q0 50 -26 81.5t-83 31.5q-31 0 -53 -10.5t-37 -30t-23 -46.5t-10 -59h-145q4 62 27 112t58.5 85t81.5 53.5 t97 18.5q63 0 110.5 -18.5t79.5 -49t48 -71t16 -85.5q0 -77 -36.5 -145.5t-111.5 -142.5l-202 -205h233v137h127v-268h-532z" />
<glyph unicode="&#xbe;" horiz-adv-x="1538" d="M51 782h139q8 -65 45 -99t103 -34q36 0 62 12.5t43.5 32.5t25.5 45.5t8 51.5q0 66 -48 101.5t-144 35.5h-39v116h37q72 0 119 30t47 87q0 51 -28.5 79t-82.5 28q-31 0 -53 -9.5t-37 -25.5t-23.5 -37t-11.5 -43h-143q6 47 27 90.5t55 76.5t80 53t102 20q66 0 115 -18 t81 -49t48 -71t16 -84q0 -37 -12 -66.5t-32 -51.5t-46 -37t-53 -23v-2q77 -18 124.5 -70t47.5 -143q0 -49 -18 -95t-54 -81t-91 -56.5t-128 -21.5q-70 0 -120.5 21.5t-84 57t-52 82t-24.5 97.5zM350 0l713 1360h149l-715 -1360h-147zM846 230v113l368 475h150v-475h125v-113 h-125v-115h92v-112h-336v112h109v115h-383zM975 343h254v319h-6z" />
<glyph unicode="&#xbf;" horiz-adv-x="979" d="M106 -92q0 74 22.5 133.5t57.5 108.5t77 88l81 75q31 30 51.5 58t33.5 58t18.5 65t5.5 79h147q-1 -48 -7.5 -94.5t-24.5 -91.5t-49 -88.5t-81 -85.5q-35 -30 -66 -63t-53.5 -68.5t-35.5 -73.5t-13 -78q0 -51 14.5 -95.5t44.5 -77.5t75.5 -51.5t107.5 -18.5q51 0 96 15 t79.5 44t56 70.5t26.5 95.5h160q-7 -76 -38 -143.5t-84.5 -118t-128.5 -80t-169 -29.5q-98 0 -173 28.5t-126.5 78t-78 116.5t-26.5 144zM414 719v219h219v-219h-219z" />
<glyph unicode="&#xc0;" horiz-adv-x="1305" d="M0 0v166h127l362 1028h-161v166h432l418 -1194h127v-166h-488v166h170l-94 283h-498l-90 -283h172v-166h-477zM234 1741h247l316 -299h-156zM446 604h396l-199 590h-4z" />
<glyph unicode="&#xc1;" horiz-adv-x="1305" d="M0 0v166h127l362 1028h-161v166h432l418 -1194h127v-166h-488v166h170l-94 283h-498l-90 -283h172v-166h-477zM424 1442l315 299h246l-405 -299h-156zM446 604h396l-199 590h-4z" />
<glyph unicode="&#xc2;" horiz-adv-x="1305" d="M0 0v166h127l362 1028h-161v166h432l418 -1194h127v-166h-488v166h170l-94 283h-498l-90 -283h172v-166h-477zM281 1442l336 319l335 -319h-165l-170 135l-168 -135h-168zM446 604h396l-199 590h-4z" />
<glyph unicode="&#xc3;" horiz-adv-x="1305" d="M0 0v166h127l362 1028h-161v166h432l418 -1194h127v-166h-488v166h170l-94 283h-498l-90 -283h172v-166h-477zM289 1452q0 121 46.5 181.5t131.5 60.5q22 0 44.5 -6t43 -14t38.5 -18t32 -17q31 -17 60.5 -30t52.5 -13q35 0 50 25.5t15 70.5h131q0 -115 -44 -178.5 t-128 -63.5q-50 0 -88 18l-76 38q-31 17 -60 30t-52 13q-38 0 -52 -26.5t-14 -70.5h-131zM446 604h396l-199 590h-4z" />
<glyph unicode="&#xc4;" horiz-adv-x="1305" d="M0 0v166h127l362 1028h-161v166h432l418 -1194h127v-166h-488v166h170l-94 283h-498l-90 -283h172v-166h-477zM358 1480v180h181v-180h-181zM446 604h396l-199 590h-4zM715 1480v180h178v-180h-178z" />
<glyph unicode="&#xc5;" horiz-adv-x="1305" d="M0 0v166h127l362 1028h-161v166h432l418 -1194h127v-166h-488v166h170l-94 283h-498l-90 -283h172v-166h-477zM403 1616q0 45 17 85t46.5 69.5t70 47t87.5 17.5q48 0 89 -17.5t71 -47t47 -69.5t17 -85t-17 -85t-47 -70t-71 -47t-89 -17q-47 0 -87.5 17t-70 47t-46.5 70 t-17 85zM446 604h396l-199 590h-4zM510 1616q0 -23 8 -44.5t23 -38t36 -26.5t47 -10q27 0 48.5 10t36 26.5t22.5 38t8 44.5t-8 44t-22.5 37.5t-36 26.5t-48.5 10q-26 0 -47 -10t-36 -26.5t-23 -37.5t-8 -44z" />
<glyph unicode="&#xc6;" horiz-adv-x="1774" d="M0 0v166h127l518 1028h-166v166h1184v-354h-168v188h-412v-408h353v-165h-353v-455h412v229h168v-395h-928v166h170v385h-405l-185 -385h162v-166h-477zM569 696h336v498h-94z" />
<glyph unicode="&#xc7;" horiz-adv-x="1524" d="M61 684q0 150 50.5 280.5t141 226.5t215 151t271.5 55q76 0 137.5 -14t112 -37t91 -53.5t75.5 -63.5v131h166v-447h-166v101q-34 46 -76.5 84.5t-92 66t-105.5 43t-117 15.5q-104 0 -197 -35t-163 -103.5t-111 -169.5t-41 -233q0 -115 37.5 -214.5t105.5 -173t162 -115.5 t207 -42q83 0 150 22t118.5 60.5t89 91.5t60.5 115h178q-31 -96 -79 -175t-113.5 -138t-148 -95.5t-181.5 -48.5l-31 -55q31 -2 57 -13.5t45 -29.5t30 -41t11 -49q0 -75 -54.5 -116.5t-170.5 -41.5h-111v107h84q58 0 79.5 17.5t21.5 43.5q0 31 -24.5 42t-59.5 11h-70l62 121 q-147 8 -266.5 65t-203.5 152t-130 223.5t-46 278.5z" />
<glyph unicode="&#xc8;" horiz-adv-x="1235" d="M90 0v166h170v1028h-170v166h1034v-354h-168v188h-518v-408h459v-165h-459v-455h518v229h168v-395h-1034zM203 1741h247l316 -299h-156z" />
<glyph unicode="&#xc9;" horiz-adv-x="1235" d="M90 0v166h170v1028h-170v166h1034v-354h-168v188h-518v-408h459v-165h-459v-455h518v229h168v-395h-1034zM389 1442l315 299h246l-405 -299h-156z" />
<glyph unicode="&#xca;" horiz-adv-x="1235" d="M90 0v166h170v1028h-170v166h1034v-354h-168v188h-518v-408h459v-165h-459v-455h518v229h168v-395h-1034zM271 1442l336 319l335 -319h-165l-170 135l-168 -135h-168z" />
<glyph unicode="&#xcb;" horiz-adv-x="1235" d="M90 0v166h170v1028h-170v166h1034v-354h-168v188h-518v-408h459v-165h-459v-455h518v229h168v-395h-1034zM393 1480v180h181v-180h-181zM750 1480v180h178v-180h-178z" />
<glyph unicode="&#xcc;" horiz-adv-x="698" d="M-24 1741h247l316 -299h-156zM90 0v166h170v1028h-170v166h518v-166h-170v-1028h170v-166h-518z" />
<glyph unicode="&#xcd;" horiz-adv-x="698" d="M90 0v166h170v1028h-170v166h518v-166h-170v-1028h170v-166h-518zM124 1442l315 299h246l-405 -299h-156z" />
<glyph unicode="&#xce;" horiz-adv-x="698" d="M9 1442l336 319l335 -319h-165l-170 135l-168 -135h-168zM90 0v166h170v1028h-170v166h518v-166h-170v-1028h170v-166h-518z" />
<glyph unicode="&#xcf;" horiz-adv-x="698" d="M79 1480v180h181v-180h-181zM90 0v166h170v1028h-170v166h518v-166h-170v-1028h170v-166h-518zM436 1480v180h178v-180h-178z" />
<glyph unicode="&#xd0;" horiz-adv-x="1458" d="M90 0v166h170v455h-170v165h170v408h-170v166h567q181 0 319.5 -52.5t232 -144t141 -215.5t47.5 -266q0 -139 -48.5 -263t-142 -217t-231.5 -147.5t-316 -54.5h-569zM438 166h226q137 0 239 41t169.5 111.5t100.5 163.5t33 198q0 112 -34 206.5t-102 162.5t-170 106.5 t-238 38.5h-224v-408h328v-165h-328v-455z" />
<glyph unicode="&#xd1;" horiz-adv-x="1524" d="M90 0v166h170v1028h-170v166h342l539 -799l97 -140q45 -65 79 -130h4q-4 34 -6 80t-3 92.5t-1 90.5v73v567h-191v166h525v-166h-170v-1194h-162l-430 633l-81 122l-78 121l-70 112l-62 97h-6q3 -30 4.5 -72t2.5 -84.5t1 -82.5v-64v-616h190v-166h-524zM459 1452 q0 121 46.5 181.5t131.5 60.5q22 0 44.5 -6t43 -14t38.5 -18t32 -17q31 -17 60.5 -30t52.5 -13q35 0 50 25.5t15 70.5h131q0 -115 -44 -178.5t-128 -63.5q-50 0 -88 18l-76 38q-31 17 -60 30t-52 13q-38 0 -52 -26.5t-14 -70.5h-131z" />
<glyph unicode="&#xd2;" horiz-adv-x="1524" d="M61 678q0 146 51 276.5t143 229t220 156t283 57.5q109 0 203.5 -27t173 -75t139 -114.5t102.5 -146.5t64 -170.5t22 -185.5q0 -150 -52 -280t-145 -227t-221 -152.5t-280 -55.5q-121 0 -220 30t-177 81.5t-135.5 121t-95.5 149t-56.5 164.5t-18.5 169zM252 678 q0 -117 38.5 -216.5t107 -171.5t161.5 -112.5t201 -40.5t201.5 40.5t162.5 112.5t108.5 171.5t39.5 216.5q0 114 -37 213.5t-104.5 173t-162 116t-208.5 42.5q-108 0 -200.5 -41t-161 -114t-107.5 -173t-39 -217zM357 1784h247l316 -299h-156z" />
<glyph unicode="&#xd3;" horiz-adv-x="1524" d="M61 678q0 146 51 276.5t143 229t220 156t283 57.5q109 0 203.5 -27t173 -75t139 -114.5t102.5 -146.5t64 -170.5t22 -185.5q0 -150 -52 -280t-145 -227t-221 -152.5t-280 -55.5q-121 0 -220 30t-177 81.5t-135.5 121t-95.5 149t-56.5 164.5t-18.5 169zM252 678 q0 -117 38.5 -216.5t107 -171.5t161.5 -112.5t201 -40.5t201.5 40.5t162.5 112.5t108.5 171.5t39.5 216.5q0 114 -37 213.5t-104.5 173t-162 116t-208.5 42.5q-108 0 -200.5 -41t-161 -114t-107.5 -173t-39 -217zM594 1485l315 299h246l-405 -299h-156z" />
<glyph unicode="&#xd4;" horiz-adv-x="1524" d="M61 678q0 146 51 276.5t143 229t220 156t283 57.5q109 0 203.5 -27t173 -75t139 -114.5t102.5 -146.5t64 -170.5t22 -185.5q0 -150 -52 -280t-145 -227t-221 -152.5t-280 -55.5q-121 0 -220 30t-177 81.5t-135.5 121t-95.5 149t-56.5 164.5t-18.5 169zM252 678 q0 -117 38.5 -216.5t107 -171.5t161.5 -112.5t201 -40.5t201.5 40.5t162.5 112.5t108.5 171.5t39.5 216.5q0 114 -37 213.5t-104.5 173t-162 116t-208.5 42.5q-108 0 -200.5 -41t-161 -114t-107.5 -173t-39 -217zM418 1485l336 319l335 -319h-165l-170 135l-168 -135h-168z " />
<glyph unicode="&#xd5;" horiz-adv-x="1524" d="M61 678q0 146 51 276.5t143 229t220 156t283 57.5q109 0 203.5 -27t173 -75t139 -114.5t102.5 -146.5t64 -170.5t22 -185.5q0 -150 -52 -280t-145 -227t-221 -152.5t-280 -55.5q-121 0 -220 30t-177 81.5t-135.5 121t-95.5 149t-56.5 164.5t-18.5 169zM252 678 q0 -117 38.5 -216.5t107 -171.5t161.5 -112.5t201 -40.5t201.5 40.5t162.5 112.5t108.5 171.5t39.5 216.5q0 114 -37 213.5t-104.5 173t-162 116t-208.5 42.5q-108 0 -200.5 -41t-161 -114t-107.5 -173t-39 -217zM440 1495q0 121 46.5 181.5t131.5 60.5q22 0 44.5 -6t43 -14 t38.5 -18t32 -17q31 -17 60.5 -30t52.5 -13q35 0 50 25.5t15 70.5h131q0 -115 -44 -178.5t-128 -63.5q-50 0 -89 19l-75 37q-31 17 -60 30t-52 13q-38 0 -52 -26.5t-14 -70.5h-131z" />
<glyph unicode="&#xd6;" horiz-adv-x="1524" d="M61 678q0 146 51 276.5t143 229t220 156t283 57.5q109 0 203.5 -27t173 -75t139 -114.5t102.5 -146.5t64 -170.5t22 -185.5q0 -150 -52 -280t-145 -227t-221 -152.5t-280 -55.5q-121 0 -220 30t-177 81.5t-135.5 121t-95.5 149t-56.5 164.5t-18.5 169zM252 678 q0 -117 38.5 -216.5t107 -171.5t161.5 -112.5t201 -40.5t201.5 40.5t162.5 112.5t108.5 171.5t39.5 216.5q0 114 -37 213.5t-104.5 173t-162 116t-208.5 42.5q-108 0 -200.5 -41t-161 -114t-107.5 -173t-39 -217zM495 1524v180h181v-180h-181zM852 1524v180h178v-180h-178z " />
<glyph unicode="&#xd7;" horiz-adv-x="1376" d="M137 1087l99 97l450 -449l438 441l105 -105l-441 -438l451 -451l-98 -98l-449 451l-440 -441l-105 105l441 438z" />
<glyph unicode="&#xd8;" horiz-adv-x="1524" d="M61 678q0 146 51 276.5t143 229t220 156t283 57.5q112 0 208 -29t177 -80l98 129h176l-166 -215q102 -102 156.5 -237t54.5 -287q0 -150 -52 -280t-145 -227t-221 -152.5t-280 -55.5q-116 0 -212 27.5t-171 75.5l-94 -123h-176l161 211q-54 53 -93.5 115.5t-65.5 130 t-39 138t-13 140.5zM252 678q0 -121 31 -215.5t94 -171.5l665 866q-60 40 -130.5 53t-151.5 13q-108 0 -201 -40.5t-161.5 -113t-107 -172.5t-38.5 -219zM485 203q59 -32 126.5 -49t148.5 -17q111 0 205 41.5t162.5 114.5t106.5 172t38 213t-30 208.5t-95 176.5z" />
<glyph unicode="&#xd9;" horiz-adv-x="1436" d="M49 1194v166h539v-166h-191v-664q0 -89 22 -161.5t65 -124t105 -79.5t142 -28q87 0 147 30t97.5 82.5t54.5 124.5t17 156v664h-191v166h530v-166h-169v-649q0 -158 -37 -269t-103 -180.5t-157 -101t-199 -31.5q-98 0 -188.5 30t-160 98.5t-111.5 178.5t-42 271v653h-170z M303 1741h247l316 -299h-156z" />
<glyph unicode="&#xda;" horiz-adv-x="1436" d="M49 1194v166h539v-166h-191v-664q0 -89 22 -161.5t65 -124t105 -79.5t142 -28q87 0 147 30t97.5 82.5t54.5 124.5t17 156v664h-191v166h530v-166h-169v-649q0 -158 -37 -269t-103 -180.5t-157 -101t-199 -31.5q-98 0 -188.5 30t-160 98.5t-111.5 178.5t-42 271v653h-170z M594 1442l315 299h246l-405 -299h-156z" />
<glyph unicode="&#xdb;" horiz-adv-x="1436" d="M49 1194v166h539v-166h-191v-664q0 -89 22 -161.5t65 -124t105 -79.5t142 -28q87 0 147 30t97.5 82.5t54.5 124.5t17 156v664h-191v166h530v-166h-169v-649q0 -158 -37 -269t-103 -180.5t-157 -101t-199 -31.5q-98 0 -188.5 30t-160 98.5t-111.5 178.5t-42 271v653h-170z M377 1442l336 319l335 -319h-165l-170 135l-168 -135h-168z" />
<glyph unicode="&#xdc;" horiz-adv-x="1436" d="M49 1194v166h539v-166h-191v-664q0 -89 22 -161.5t65 -124t105 -79.5t142 -28q87 0 147 30t97.5 82.5t54.5 124.5t17 156v664h-191v166h530v-166h-169v-649q0 -158 -37 -269t-103 -180.5t-157 -101t-199 -31.5q-98 0 -188.5 30t-160 98.5t-111.5 178.5t-42 271v653h-170z M450 1497v180h181v-180h-181zM807 1497v180h178v-180h-178z" />
<glyph unicode="&#xdd;" horiz-adv-x="1290" d="M0 1194v166h524v-166h-184l313 -530h4l312 530h-185v166h506v-166h-149l-406 -680v-348h170v-166h-518v166h170v348l-407 680h-150zM553 1442l315 299h246l-405 -299h-156z" />
<glyph unicode="&#xde;" horiz-adv-x="1231" d="M90 0v166h170v1028h-170v166h348v-268h230q133 0 224.5 -36t148 -94.5t81.5 -132.5t25 -151q0 -76 -27.5 -148.5t-83.5 -128.5t-143 -90.5t-205 -34.5h-250v-276h-348zM438 442h240q70 0 122.5 19.5t87 52.5t51.5 76.5t17 91.5q0 116 -71.5 180t-210.5 64h-236v-484z" />
<glyph unicode="&#xdf;" horiz-adv-x="1087" d="M70 0v145h141v648h-141v145h141v55q0 91 23 164.5t68.5 126t112.5 81t154 28.5q78 0 139.5 -23t104 -65t65.5 -102t23 -134q0 -43 -11.5 -86t-33.5 -81t-55 -68.5t-76 -49.5v-4q67 -15 120 -47t90 -79t56 -109t19 -135q0 -92 -28 -167.5t-81.5 -129.5t-131 -83.5 t-177.5 -29.5h-82v145h82q66 0 114 22.5t79 60t46 87t15 103.5q0 131 -84.5 204.5t-251.5 73.5v144q58 0 100.5 17t70.5 47t42 70t14 85q0 40 -11 74.5t-32 60t-52.5 39.5t-72.5 14q-43 0 -79.5 -15t-63.5 -46t-42 -79t-15 -114v-993h-299z" />
<glyph unicode="&#xe0;" horiz-adv-x="1079" d="M80 299q0 60 24.5 119t73 106t119.5 76t164 29q105 0 180.5 -25t120.5 -63v55q0 60 -14.5 103.5t-47.5 71t-86 41t-129 13.5q-55 0 -122 -10t-125 -29l-31 142q31 10 68 18t76 13.5t78.5 8.5t76.5 3q124 0 204 -26t126.5 -74.5t65 -117.5t18.5 -155v-453h120v-145h-264 l-6 92h-4q-48 -56 -122 -90.5t-179 -34.5q-91 0 -162.5 26.5t-121 72t-75.5 105.5t-26 128zM131 1362h247l316 -299h-156zM238 303q0 -45 18.5 -81t52 -60.5t80.5 -37.5t105 -13q62 0 113 13.5t87 39t56 62.5t20 83q0 44 -20.5 79t-57 59.5t-86.5 37.5t-110 13 q-63 0 -111 -16t-81 -43t-49.5 -62t-16.5 -74z" />
<glyph unicode="&#xe1;" horiz-adv-x="1079" d="M80 299q0 60 24.5 119t73 106t119.5 76t164 29q105 0 180.5 -25t120.5 -63v55q0 60 -14.5 103.5t-47.5 71t-86 41t-129 13.5q-55 0 -122 -10t-125 -29l-31 142q31 10 68 18t76 13.5t78.5 8.5t76.5 3q124 0 204 -26t126.5 -74.5t65 -117.5t18.5 -155v-453h120v-145h-264 l-6 92h-4q-48 -56 -122 -90.5t-179 -34.5q-91 0 -162.5 26.5t-121 72t-75.5 105.5t-26 128zM238 303q0 -45 18.5 -81t52 -60.5t80.5 -37.5t105 -13q62 0 113 13.5t87 39t56 62.5t20 83q0 44 -20.5 79t-57 59.5t-86.5 37.5t-110 13q-63 0 -111 -16t-81 -43t-49.5 -62 t-16.5 -74zM344 1063l315 299h246l-405 -299h-156z" />
<glyph unicode="&#xe2;" horiz-adv-x="1079" d="M80 299q0 60 24.5 119t73 106t119.5 76t164 29q105 0 180.5 -25t120.5 -63v55q0 60 -14.5 103.5t-47.5 71t-86 41t-129 13.5q-55 0 -122 -10t-125 -29l-31 142q31 10 68 18t76 13.5t78.5 8.5t76.5 3q124 0 204 -26t126.5 -74.5t65 -117.5t18.5 -155v-453h120v-145h-264 l-6 92h-4q-48 -56 -122 -90.5t-179 -34.5q-91 0 -162.5 26.5t-121 72t-75.5 105.5t-26 128zM166 1063l336 319l335 -319h-165l-170 135l-168 -135h-168zM238 303q0 -45 18.5 -81t52 -60.5t80.5 -37.5t105 -13q62 0 113 13.5t87 39t56 62.5t20 83q0 44 -20.5 79t-57 59.5 t-86.5 37.5t-110 13q-63 0 -111 -16t-81 -43t-49.5 -62t-16.5 -74z" />
<glyph unicode="&#xe3;" horiz-adv-x="1079" d="M80 299q0 60 24.5 119t73 106t119.5 76t164 29q105 0 180.5 -25t120.5 -63v55q0 60 -14.5 103.5t-47.5 71t-86 41t-129 13.5q-55 0 -122 -10t-125 -29l-31 142q31 10 68 18t76 13.5t78.5 8.5t76.5 3q124 0 204 -26t126.5 -74.5t65 -117.5t18.5 -155v-453h120v-145h-264 l-6 92h-4q-48 -56 -122 -90.5t-179 -34.5q-91 0 -162.5 26.5t-121 72t-75.5 105.5t-26 128zM197 1081q0 121 46.5 181.5t131.5 60.5q22 0 44.5 -6t43 -14t38.5 -18t32 -17q31 -17 60.5 -30t52.5 -13q35 0 50 25.5t15 70.5h131q0 -115 -44 -178.5t-128 -63.5q-50 0 -88 19 l-76 37q-31 17 -60 30t-52 13q-38 0 -52 -26.5t-14 -70.5h-131zM238 303q0 -45 18.5 -81t52 -60.5t80.5 -37.5t105 -13q62 0 113 13.5t87 39t56 62.5t20 83q0 44 -20.5 79t-57 59.5t-86.5 37.5t-110 13q-63 0 -111 -16t-81 -43t-49.5 -62t-16.5 -74z" />
<glyph unicode="&#xe4;" horiz-adv-x="1079" d="M80 299q0 60 24.5 119t73 106t119.5 76t164 29q105 0 180.5 -25t120.5 -63v55q0 60 -14.5 103.5t-47.5 71t-86 41t-129 13.5q-55 0 -122 -10t-125 -29l-31 142q31 10 68 18t76 13.5t78.5 8.5t76.5 3q124 0 204 -26t126.5 -74.5t65 -117.5t18.5 -155v-453h120v-145h-264 l-6 92h-4q-48 -56 -122 -90.5t-179 -34.5q-91 0 -162.5 26.5t-121 72t-75.5 105.5t-26 128zM238 303q0 -45 18.5 -81t52 -60.5t80.5 -37.5t105 -13q62 0 113 13.5t87 39t56 62.5t20 83q0 44 -20.5 79t-57 59.5t-86.5 37.5t-110 13q-63 0 -111 -16t-81 -43t-49.5 -62 t-16.5 -74zM270 1118v180h181v-180h-181zM627 1118v180h178v-180h-178z" />
<glyph unicode="&#xe5;" horiz-adv-x="1079" d="M80 299q0 60 24.5 119t73 106t119.5 76t164 29q105 0 180.5 -25t120.5 -63v55q0 60 -14.5 103.5t-47.5 71t-86 41t-129 13.5q-55 0 -122 -10t-125 -29l-31 142q31 10 68 18t76 13.5t78.5 8.5t76.5 3q124 0 204 -26t126.5 -74.5t65 -117.5t18.5 -155v-453h120v-145h-264 l-6 92h-4q-48 -56 -122 -90.5t-179 -34.5q-91 0 -162.5 26.5t-121 72t-75.5 105.5t-26 128zM238 303q0 -45 18.5 -81t52 -60.5t80.5 -37.5t105 -13q62 0 113 13.5t87 39t56 62.5t20 83q0 44 -20.5 79t-57 59.5t-86.5 37.5t-110 13q-63 0 -111 -16t-81 -43t-49.5 -62 t-16.5 -74zM284 1266q0 45 17 85t46.5 69.5t70 47t87.5 17.5q48 0 89 -17.5t71 -47t47 -69.5t17 -85t-17 -85t-47 -70t-71 -47t-89 -17q-47 0 -87.5 17t-70 47t-46.5 70t-17 85zM391 1266q0 -23 8 -44.5t23 -38t36 -26.5t47 -10q27 0 48.5 10t36 26.5t22.5 38t8 44.5t-8 44 t-22.5 37.5t-36 26.5t-48.5 10q-26 0 -47 -10t-36 -26.5t-23 -37.5t-8 -44z" />
<glyph unicode="&#xe6;" horiz-adv-x="1616" d="M35 248q0 84 39 143.5t121 96.5t208 54t299 17v45q0 45 -14.5 85t-44.5 70t-76 47t-110 17q-47 0 -82 -8.5t-61 -23.5t-44.5 -36t-31.5 -46h-168q19 61 54.5 109.5t83.5 82t108 51t128 17.5q76 0 133.5 -17t99.5 -45t69 -64t42 -73h7q22 45 54 81.5t73 62.5t91 40.5 t109 14.5q102 0 179.5 -43t130 -114t79.5 -163.5t27 -191.5q0 -8 -1 -15.5t-1 -15.5h-686v-14q2 -65 25.5 -120.5t61 -95.5t86 -62.5t101.5 -22.5q42 0 76 9.5t61 27t49 42t42 54.5h172q-25 -56 -59 -107t-80.5 -89t-107.5 -60.5t-140 -22.5q-62 0 -116 15.5t-100 43.5 t-83 67t-64 87h-4q-21 -36 -53 -74t-80 -68.5t-113 -50.5t-151 -20q-73 0 -135 20.5t-107 57.5t-70.5 89t-25.5 116zM203 260q0 -37 15.5 -65t43.5 -46.5t66.5 -28t83.5 -9.5q50 0 101 18t92.5 51.5t68 82t26.5 110.5v53q-133 0 -227 -8t-154 -27t-88 -51t-28 -80zM850 559 h516q-6 49 -24.5 96.5t-50 84.5t-77 60t-106.5 23q-55 0 -101 -20.5t-79.5 -56.5t-53.5 -84t-24 -103z" />
<glyph unicode="&#xe7;" horiz-adv-x="1108" d="M78 473q0 100 31 190t89.5 158.5t144 109t194.5 40.5q54 0 101.5 -11t86.5 -27.5t68.5 -36.5t48.5 -38v80h145v-342h-145v94q-48 59 -116.5 97t-150.5 38q-68 0 -128 -23t-106 -68t-72.5 -110.5t-26.5 -150.5q0 -79 24 -145t67.5 -114t104 -74.5t133.5 -26.5 q56 0 100 13.5t77 38t55.5 58.5t34.5 74h170q-15 -58 -45 -112t-75 -97.5t-107 -74t-142 -40.5l-33 -59q31 -2 57 -13.5t45.5 -29.5t30.5 -41t11 -49q0 -75 -55 -116.5t-171 -41.5h-110v107h84q58 0 79 17.5t21 43.5q0 31 -24.5 42t-59.5 11h-70l66 127q-90 9 -169 47 t-137.5 102t-92 153t-33.5 200z" />
<glyph unicode="&#xe8;" horiz-adv-x="1102" d="M78 471q0 105 34.5 196t97 158.5t150.5 106.5t195 39q103 0 189 -39.5t148 -108.5t97 -163t35 -203v-16q0 -6 -2 -15h-778q3 -70 30.5 -127.5t71.5 -99t102 -64t123 -22.5q51 0 91 9.5t72.5 26.5t57.5 41.5t46 53.5h170q-26 -57 -65.5 -107.5t-93 -88t-123 -59.5 t-155.5 -22q-107 0 -197 36.5t-156 103t-103 159.5t-37 205zM176 1362h247l316 -299h-156zM248 559h606q-8 50 -30 97.5t-59.5 85t-91.5 60.5t-124 23q-67 0 -120.5 -22t-91.5 -59t-61 -85t-28 -100z" />
<glyph unicode="&#xe9;" horiz-adv-x="1102" d="M78 471q0 105 34.5 196t97 158.5t150.5 106.5t195 39q103 0 189 -39.5t148 -108.5t97 -163t35 -203v-16q0 -6 -2 -15h-778q3 -70 30.5 -127.5t71.5 -99t102 -64t123 -22.5q51 0 91 9.5t72.5 26.5t57.5 41.5t46 53.5h170q-26 -57 -65.5 -107.5t-93 -88t-123 -59.5 t-155.5 -22q-107 0 -197 36.5t-156 103t-103 159.5t-37 205zM248 559h606q-8 50 -30 97.5t-59.5 85t-91.5 60.5t-124 23q-67 0 -120.5 -22t-91.5 -59t-61 -85t-28 -100zM365 1063l315 299h246l-405 -299h-156z" />
<glyph unicode="&#xea;" horiz-adv-x="1102" d="M78 471q0 105 34.5 196t97 158.5t150.5 106.5t195 39q103 0 189 -39.5t148 -108.5t97 -163t35 -203v-16q0 -6 -2 -15h-778q3 -70 30.5 -127.5t71.5 -99t102 -64t123 -22.5q51 0 91 9.5t72.5 26.5t57.5 41.5t46 53.5h170q-26 -57 -65.5 -107.5t-93 -88t-123 -59.5 t-155.5 -22q-107 0 -197 36.5t-156 103t-103 159.5t-37 205zM209 1063l336 319l335 -319h-165l-170 135l-168 -135h-168zM248 559h606q-8 50 -30 97.5t-59.5 85t-91.5 60.5t-124 23q-67 0 -120.5 -22t-91.5 -59t-61 -85t-28 -100z" />
<glyph unicode="&#xeb;" horiz-adv-x="1102" d="M78 471q0 105 34.5 196t97 158.5t150.5 106.5t195 39q103 0 189 -39.5t148 -108.5t97 -163t35 -203v-16q0 -6 -2 -15h-778q3 -70 30.5 -127.5t71.5 -99t102 -64t123 -22.5q51 0 91 9.5t72.5 26.5t57.5 41.5t46 53.5h170q-26 -57 -65.5 -107.5t-93 -88t-123 -59.5 t-155.5 -22q-107 0 -197 36.5t-156 103t-103 159.5t-37 205zM248 559h606q-8 50 -30 97.5t-59.5 85t-91.5 60.5t-124 23q-67 0 -120.5 -22t-91.5 -59t-61 -85t-28 -100zM282 1118v180h181v-180h-181zM639 1118v180h178v-180h-178z" />
<glyph unicode="&#xec;" horiz-adv-x="545" d="M-115 1362h247l316 -299h-156zM70 0v145h141v648h-141v145h299v-793h141v-145h-440z" />
<glyph unicode="&#xed;" horiz-adv-x="545" d="M70 0v145h141v648h-141v145h299v-793h141v-145h-440zM73 1063l315 299h246l-405 -299h-156z" />
<glyph unicode="&#xee;" horiz-adv-x="545" d="M-58 1063l336 319l335 -319h-165l-170 135l-168 -135h-168zM70 0v145h141v648h-141v145h299v-793h141v-145h-440z" />
<glyph unicode="&#xef;" horiz-adv-x="545" d="M17 1118v180h181v-180h-181zM70 0v145h141v648h-141v145h299v-793h141v-145h-440zM374 1118v180h178v-180h-178z" />
<glyph unicode="&#xf0;" horiz-adv-x="1157" d="M78 459q0 106 38.5 195t104.5 154t154.5 101.5t189.5 36.5q55 0 104 -13t92 -35.5t78.5 -53.5t63.5 -68h4q-20 49 -51.5 100.5t-75 99t-99 88t-122.5 69.5l-266 -177l-66 101l195 129q-50 12 -98.5 20.5t-102.5 12.5v143q88 -6 172.5 -23t179.5 -51l168 111l66 -103 l-109 -71q85 -47 155 -115t120 -157t78 -200.5t28 -244.5q0 -109 -33 -207t-97 -172.5t-156.5 -118t-212.5 -43.5q-107 0 -198.5 38t-159 104t-106 156t-38.5 194zM242 457q0 -75 27 -138.5t73.5 -109t107.5 -71t130 -25.5q73 0 134.5 26.5t105.5 72.5t68.5 109t24.5 136 q0 71 -23.5 134t-66.5 109.5t-105 73.5t-138 27q-75 0 -137.5 -26t-107 -72t-69 -109t-24.5 -137z" />
<glyph unicode="&#xf1;" horiz-adv-x="1264" d="M70 0v145h141v648h-141v145h288l11 -133h4q24 34 56.5 64.5t73 53t89.5 35.5t106 13q77 0 144 -24.5t117 -76t79 -131t29 -190.5v-404h141v-145h-460v145h161v396q0 72 -18 125.5t-51 88.5t-80 52.5t-105 17.5q-62 0 -114.5 -20.5t-90.5 -61t-59.5 -100t-21.5 -137.5 v-361h161v-145h-460zM299 1081q0 121 46.5 181.5t131.5 60.5q22 0 44.5 -6t43 -14t38.5 -18t32 -17q31 -17 60.5 -30t52.5 -13q35 0 50 25.5t15 70.5h131q0 -115 -44 -178.5t-128 -63.5q-50 0 -88 19l-76 37q-31 17 -60 30t-52 13q-38 0 -52 -26.5t-14 -70.5h-131z" />
<glyph unicode="&#xf2;" horiz-adv-x="1157" d="M78 471q0 108 38.5 200t106 158.5t159.5 104t198 37.5q109 0 200.5 -38.5t158 -105.5t103.5 -158.5t37 -197.5q0 -105 -37.5 -197t-104 -160.5t-158 -107.5t-199.5 -39q-107 0 -198.5 38.5t-159 106t-106 159.5t-38.5 200zM213 1362h247l316 -299h-156zM242 469 q0 -79 27 -144.5t73.5 -112.5t107.5 -73t130 -26q73 0 135 27t106 74.5t69 112.5t25 142q0 74 -23.5 139t-67.5 113t-106 76t-138 28q-75 0 -137.5 -26.5t-107 -74t-69 -112.5t-24.5 -143z" />
<glyph unicode="&#xf3;" horiz-adv-x="1157" d="M78 471q0 108 38.5 200t106 158.5t159.5 104t198 37.5q109 0 200.5 -38.5t158 -105.5t103.5 -158.5t37 -197.5q0 -105 -37.5 -197t-104 -160.5t-158 -107.5t-199.5 -39q-107 0 -198.5 38.5t-159 106t-106 159.5t-38.5 200zM242 469q0 -79 27 -144.5t73.5 -112.5 t107.5 -73t130 -26q73 0 135 27t106 74.5t69 112.5t25 142q0 74 -23.5 139t-67.5 113t-106 76t-138 28q-75 0 -137.5 -26.5t-107 -74t-69 -112.5t-24.5 -143zM406 1063l315 299h246l-405 -299h-156z" />
<glyph unicode="&#xf4;" horiz-adv-x="1157" d="M78 471q0 108 38.5 200t106 158.5t159.5 104t198 37.5q109 0 200.5 -38.5t158 -105.5t103.5 -158.5t37 -197.5q0 -105 -37.5 -197t-104 -160.5t-158 -107.5t-199.5 -39q-107 0 -198.5 38.5t-159 106t-106 159.5t-38.5 200zM236 1063l336 319l335 -319h-165l-170 135 l-168 -135h-168zM242 469q0 -79 27 -144.5t73.5 -112.5t107.5 -73t130 -26q73 0 135 27t106 74.5t69 112.5t25 142q0 74 -23.5 139t-67.5 113t-106 76t-138 28q-75 0 -137.5 -26.5t-107 -74t-69 -112.5t-24.5 -143z" />
<glyph unicode="&#xf5;" horiz-adv-x="1157" d="M78 471q0 108 38.5 200t106 158.5t159.5 104t198 37.5q109 0 200.5 -38.5t158 -105.5t103.5 -158.5t37 -197.5q0 -105 -37.5 -197t-104 -160.5t-158 -107.5t-199.5 -39q-107 0 -198.5 38.5t-159 106t-106 159.5t-38.5 200zM242 469q0 -79 27 -144.5t73.5 -112.5 t107.5 -73t130 -26q73 0 135 27t106 74.5t69 112.5t25 142q0 74 -23.5 139t-67.5 113t-106 76t-138 28q-75 0 -137.5 -26.5t-107 -74t-69 -112.5t-24.5 -143zM258 1081q0 121 46.5 181.5t131.5 60.5q22 0 44.5 -6t43 -14t38.5 -18t32 -17q31 -17 60.5 -30t52.5 -13 q35 0 50 25.5t15 70.5h131q0 -115 -44 -178.5t-128 -63.5q-50 0 -89 19l-75 37q-31 17 -60 30t-52 13q-38 0 -52 -26.5t-14 -70.5h-131z" />
<glyph unicode="&#xf6;" horiz-adv-x="1157" d="M78 471q0 108 38.5 200t106 158.5t159.5 104t198 37.5q109 0 200.5 -38.5t158 -105.5t103.5 -158.5t37 -197.5q0 -105 -37.5 -197t-104 -160.5t-158 -107.5t-199.5 -39q-107 0 -198.5 38.5t-159 106t-106 159.5t-38.5 200zM242 469q0 -79 27 -144.5t73.5 -112.5 t107.5 -73t130 -26q73 0 135 27t106 74.5t69 112.5t25 142q0 74 -23.5 139t-67.5 113t-106 76t-138 28q-75 0 -137.5 -26.5t-107 -74t-69 -112.5t-24.5 -143zM311 1118v180h181v-180h-181zM668 1118v180h178v-180h-178z" />
<glyph unicode="&#xf7;" horiz-adv-x="1376" d="M80 561v148h1218v-148h-1218zM590 119v196h194v-196h-194zM590 954v197h194v-197h-194z" />
<glyph unicode="&#xf8;" horiz-adv-x="1157" d="M78 471q0 108 38.5 199.5t106 158t159.5 103.5t198 37q75 0 141 -19t123 -53l78 100h143l-131 -168q69 -66 107 -158t38 -200q0 -104 -37.5 -196t-104 -160.5t-158 -108t-199.5 -39.5q-73 0 -139 19t-122 51l-77 -100h-144l131 167q-71 70 -111 163t-40 204zM242 469 q0 -72 20.5 -136.5t59.5 -111.5l436 563q-37 22 -83 30.5t-95 8.5q-75 0 -137.5 -26t-107 -73t-69 -112t-24.5 -143zM408 152q37 -22 81 -30.5t91 -8.5q73 0 135 27t106 75t69 113t25 141q0 68 -18 131t-55 111z" />
<glyph unicode="&#xf9;" horiz-adv-x="1210" d="M35 793v145h297v-537q0 -71 17.5 -125t49 -90t76.5 -54.5t100 -18.5q61 0 111 21.5t86 63t56 101.5t20 137v357h-141v145h299v-793h141v-145h-295l-10 129h-4q-23 -32 -53.5 -61.5t-69.5 -52t-87 -35.5t-104 -13q-74 0 -137.5 25.5t-111 77t-74.5 130.5t-27 187v406h-139 zM170 1362h247l316 -299h-156z" />
<glyph unicode="&#xfa;" horiz-adv-x="1210" d="M35 793v145h297v-537q0 -71 17.5 -125t49 -90t76.5 -54.5t100 -18.5q61 0 111 21.5t86 63t56 101.5t20 137v357h-141v145h299v-793h141v-145h-295l-10 129h-4q-23 -32 -53.5 -61.5t-69.5 -52t-87 -35.5t-104 -13q-74 0 -137.5 25.5t-111 77t-74.5 130.5t-27 187v406h-139 zM426 1063l315 299h246l-405 -299h-156z" />
<glyph unicode="&#xfb;" horiz-adv-x="1210" d="M35 793v145h297v-537q0 -71 17.5 -125t49 -90t76.5 -54.5t100 -18.5q61 0 111 21.5t86 63t56 101.5t20 137v357h-141v145h299v-793h141v-145h-295l-10 129h-4q-23 -32 -53.5 -61.5t-69.5 -52t-87 -35.5t-104 -13q-74 0 -137.5 25.5t-111 77t-74.5 130.5t-27 187v406h-139 zM226 1063l336 319l335 -319h-165l-170 135l-168 -135h-168z" />
<glyph unicode="&#xfc;" horiz-adv-x="1210" d="M35 793v145h297v-537q0 -71 17.5 -125t49 -90t76.5 -54.5t100 -18.5q61 0 111 21.5t86 63t56 101.5t20 137v357h-141v145h299v-793h141v-145h-295l-10 129h-4q-23 -32 -53.5 -61.5t-69.5 -52t-87 -35.5t-104 -13q-74 0 -137.5 25.5t-111 77t-74.5 130.5t-27 187v406h-139 zM305 1118v180h181v-180h-181zM662 1118v180h178v-180h-178z" />
<glyph unicode="&#xfd;" horiz-adv-x="1024" d="M0 793v145h406v-145h-119l233 -576h4l226 576h-121v145h395v-145h-115l-336 -828q-32 -77 -66.5 -133.5t-78.5 -94t-100 -55.5t-129 -18h-76v146h74q43 0 75 10.5t56.5 31t44 51.5t39.5 72l22 50l-321 768h-113zM381 1063l315 299h246l-405 -299h-156z" />
<glyph unicode="&#xfe;" horiz-adv-x="1274" d="M70 -190h141v1404h-141v146h299v-565h4q28 39 65 71.5t83 55.5t101.5 36t122.5 13q96 0 178.5 -38t143 -105.5t95 -160t34.5 -202.5q0 -107 -34 -198t-95 -158t-145.5 -104.5t-184.5 -37.5q-69 0 -123 12t-97.5 33t-78 51t-65.5 66h-4v-319h161v-146h-460v146zM362 469 q0 -82 25.5 -148t70.5 -112t105 -71t129 -25q87 0 151 30.5t106 80t62.5 113t20.5 130.5q0 71 -21 136t-63 114.5t-105 78.5t-147 29q-65 0 -125 -25t-106.5 -71.5t-74.5 -112.5t-28 -147z" />
<glyph unicode="&#xff;" horiz-adv-x="1024" d="M0 793v145h406v-145h-119l233 -576h4l226 576h-121v145h395v-145h-115l-336 -828q-32 -77 -66.5 -133.5t-78.5 -94t-100 -55.5t-129 -18h-76v146h74q43 0 75 10.5t56.5 31t44 51.5t39.5 72l22 50l-321 768h-113zM247 1118v180h181v-180h-181zM604 1118v180h178v-180h-178 z" />
<glyph unicode="&#x152;" horiz-adv-x="1870" d="M61 678q0 80 19.5 161.5t59 157t101 142t145 115.5t190 77.5t237.5 28.5h946v-354h-168v188h-471v-408h412v-165h-412v-455h471v229h168v-395h-950q-134 0 -241.5 28t-190.5 77t-142.5 115t-98 141t-57 156t-18.5 161zM252 678q0 -114 39 -208.5t111.5 -162t177.5 -104.5 t237 -37h125v1028h-133q-142 0 -247 -41.5t-174 -112t-102.5 -164t-33.5 -198.5z" />
<glyph unicode="&#x153;" horiz-adv-x="1788" d="M78 471q0 109 34.5 200.5t95 157.5t143 103t177.5 37q70 0 131 -19.5t109.5 -53.5t84 -81t54.5 -102h4q23 62 61 110t86 80.5t104 49t116 16.5q100 0 180 -41t136 -110.5t86 -161.5t30 -193v-21q0 -8 -2 -16h-719q2 -70 26.5 -127.5t64.5 -99t92.5 -64t111.5 -22.5 q91 0 147 35.5t93 95.5h168q-24 -57 -59.5 -107.5t-84 -88t-111.5 -59.5t-141 -22q-64 0 -123 17t-109 50t-89 81t-62 110h-4q-24 -59 -62 -106.5t-87.5 -81.5t-109 -52t-124.5 -18q-95 0 -177 38.5t-142 106.5t-94.5 160t-34.5 199zM244 469q0 -78 24 -143.5t65 -113 t95 -73.5t115 -26q65 0 120 27t94.5 75t62 113t22.5 141q0 74 -21 138.5t-60 112.5t-94.5 75.5t-123.5 27.5q-67 0 -122 -26t-94.5 -73t-61 -112t-21.5 -143zM991 559h549q-6 50 -26 97.5t-54.5 84.5t-83 59.5t-112.5 22.5q-60 0 -108.5 -21.5t-83.5 -58t-55.5 -84.5 t-25.5 -100z" />
<glyph unicode="&#x178;" horiz-adv-x="1290" d="M0 1194v166h524v-166h-184l313 -530h4l312 530h-185v166h506v-166h-149l-406 -680v-348h170v-166h-518v166h170v348l-407 680h-150zM389 1497v180h181v-180h-181zM746 1497v180h178v-180h-178z" />
<glyph unicode="&#x2c6;" horiz-adv-x="643" d="M-14 1063l336 319l335 -319h-165l-170 135l-168 -135h-168z" />
<glyph unicode="&#x2dc;" horiz-adv-x="643" d="M0 1081q0 121 46.5 181.5t131.5 60.5q22 0 44.5 -6t43 -14t38.5 -18t32 -17q31 -17 60.5 -30t52.5 -13q35 0 50 25.5t15 70.5h131q0 -115 -44 -178.5t-128 -63.5q-50 0 -89 19l-75 37q-31 17 -60 30t-52 13q-38 0 -52 -26.5t-14 -70.5h-131z" />
<glyph unicode="&#x2013;" horiz-adv-x="1024" d="M131 463v162h762v-162h-762z" />
<glyph unicode="&#x2014;" horiz-adv-x="2048" d="M131 463v162h1786v-162h-1786z" />
<glyph unicode="&#x2018;" horiz-adv-x="459" d="M68 899l69 207l135 293h105l-68 -305l-63 -195h-178z" />
<glyph unicode="&#x2019;" horiz-adv-x="459" d="M82 899l68 307l65 193h178l-69 -205l-136 -295h-106z" />
<glyph unicode="&#x201a;" horiz-adv-x="459" d="M78 -283l67 308l66 192h178l-70 -205l-135 -295h-106z" />
<glyph unicode="&#x201c;" horiz-adv-x="737" d="M70 899l71 207l135 293h105l-66 -305l-65 -195h-180zM344 899l72 207l133 293h106l-67 -305l-64 -195h-180z" />
<glyph unicode="&#x201d;" horiz-adv-x="737" d="M82 899l68 307l63 193h178l-69 -205l-136 -295h-104zM360 899l64 307l68 193h176l-68 -205l-135 -295h-105z" />
<glyph unicode="&#x201e;" horiz-adv-x="737" d="M82 -283l68 308l63 192h178l-69 -205l-136 -295h-104zM360 -283l64 308l68 192h176l-68 -205l-135 -295h-105z" />
<glyph unicode="&#x2022;" horiz-adv-x="1219" d="M285 674q0 67 25 125.5t69 102.5t102.5 69.5t126.5 25.5q67 0 126.5 -25.5t104 -69.5t70 -102.5t25.5 -125.5q0 -68 -25.5 -127t-70 -102.5t-104 -69t-126.5 -25.5q-68 0 -126.5 25.5t-102.5 69t-69 102.5t-25 127z" />
<glyph unicode="&#x2026;" horiz-adv-x="1698" d="M174 0v219h219v-219h-219zM739 0v219h219v-219h-219zM1305 0v219h219v-219h-219z" />
<glyph unicode="&#x2039;" horiz-adv-x="539" d="M86 455l221 344h133l-178 -340l180 -340h-135z" />
<glyph unicode="&#x203a;" horiz-adv-x="539" d="M96 799h135l222 -336l-222 -344h-133l183 340l-93 169z" />
<glyph unicode="&#x20ac;" d="M31 451l32 155h127q-2 14 -2 38v40v38q0 21 2 40h-147l33 156h141q18 91 56 176.5t101 152t152 106.5t209 40q56 0 102 -5t83.5 -14.5t69 -22.5t59.5 -28v-276h-179v159q-31 8 -61.5 13.5t-75.5 5.5q-77 0 -133 -25.5t-94.5 -68t-62 -98t-35.5 -115.5h419l-32 -156h-410 q-3 -17 -4.5 -41t-1.5 -41t1 -38.5t3 -35.5h385l-33 -155h-332q16 -74 43.5 -132.5t71.5 -99.5t107.5 -62.5t152.5 -21.5q84 0 147.5 18.5t118.5 49.5v-166q-60 -35 -131.5 -52.5t-162.5 -17.5q-135 0 -229.5 40t-157.5 107.5t-98.5 154.5t-51.5 182h-182z" />
<glyph unicode="&#x2122;" horiz-adv-x="1518" d="M23 1141v219h559v-219h-93v127h-133v-510h93v-92h-293v92h90v510h-131v-127h-92zM647 1268v92h221l172 -516h4l177 516h225v-92h-74v-510h74v-92h-262v92h78v317q0 15 0.5 36.5t1.5 44.5l2 45q1 21 2 36h-8q-5 -15 -11 -36l-13 -44l-13 -44q-7 -22 -13 -38l-137 -409h-76 l-137 409l-12 37l-14 46l-14 46q-7 22 -11 39h-6q1 -17 1 -39l2 -46v-45q1 -22 1 -38v-317h78v-92h-238v92h70v510h-70z" />
<glyph unicode="&#xe000;" horiz-adv-x="940" d="M0 940h940v-940h-940v940z" />
<glyph unicode="&#xfb01;" horiz-adv-x="1145" d="M70 0v145h141v648h-141v145h141v104q0 74 17.5 133t53.5 100t90.5 63t127.5 22h479v-217h-191v71h-272q-63 0 -105 -44t-42 -132v-100h600v-793h141v-145h-440v145h141v648h-442v-648h192v-145h-491z" />
<glyph unicode="&#xfb02;" d="M70 0v145h141v648h-141v145h141v104q0 74 17.5 133t53.5 100t90.5 63t127.5 22h448v-1215h142v-145h-441v145h142v1069h-275q-63 0 -105 -44t-42 -132v-100h192v-145h-192v-648h192v-145h-491z" />
<glyph unicode="&#xfb03;" horiz-adv-x="1745" d="M70 0v145h141v648h-141v145h141v104q0 74 17.5 133t53.5 100t90.5 63t127.5 22h133v-146h-117q-63 0 -105 -44t-42 -132v-100h192v-145h-192v-648h192v-145h-491zM670 0v145h141v648h-141v145h141v104q0 74 17.5 133t53.5 100t90.5 63t127.5 22h133v-146h-117 q-63 0 -105 -44t-42 -132v-100h192v-145h-192v-648h192v-145h-491zM1270 0v145h141v648h-141v145h299v-793h141v-145h-440zM1388 1143v180h191v-180h-191z" />
<glyph unicode="&#xfb04;" horiz-adv-x="1724" d="M70 0v145h141v648h-141v145h141v104q0 74 17.5 133t53.5 100t90.5 63t127.5 22h133v-146h-117q-63 0 -105 -44t-42 -132v-100h192v-145h-192v-648h192v-145h-491zM670 0v145h141v648h-141v145h141v104q0 74 17.5 133t53.5 100t90.5 63t127.5 22h133v-146h-117 q-63 0 -105 -44t-42 -132v-100h192v-145h-192v-648h192v-145h-491zM1249 0v145h141v1069h-141v146h299v-1215h141v-145h-440z" />
</font>
</defs>
</svg>
