<?xml version="1.0" standalone="no"?>
<!DOCTYPE svg PUBLIC "-//W3C//DTD SVG 1.1//EN" "http://www.w3.org/Graphics/SVG/1.1/DTD/svg11.dtd" >
<svg>
<metadata>
Created by FontForge 20090914 at Tue Nov 29 22:23:11 2011
 By www-data
Copyright (c) 2011 by Dave Whitley. All rights reserved.
</metadata>
<defs>
<font id="Outage-Regular" horiz-adv-x="833" >
  <font-face 
    font-family="Outage"
    font-weight="700"
    font-stretch="normal"
    units-per-em="1000"
    panose-1="2 0 0 0 0 0 0 0 0 0"
    ascent="750"
    descent="-250"
    x-height="700"
    cap-height="700"
    bbox="12 -233.001 1025 934"
    underline-thickness="50"
    underline-position="-50"
    unicode-range="U+0020-U+2212"
  />
<missing-glyph horiz-adv-x="340" 
 />
    <glyph glyph-name=".notdef" horiz-adv-x="340" 
 />
    <glyph glyph-name="space" unicode=" " horiz-adv-x="340" 
 />
    <glyph glyph-name="space" unicode="&#xa0;" horiz-adv-x="340" 
 />
    <glyph glyph-name="exclam" unicode="!" horiz-adv-x="331" 
d="M254 19c0 -12.667 -6.33301 -19 -19 -19h-138c-12.667 -0 -19 6.33301 -19 19v138c0 12.667 6.33301 19 19 19h138c12.667 0 19 -6.33301 19 -19v-138zM235 245c0 -5.33301 -1.83301 -9.83301 -5.5 -13.5s-8.16699 -5.5 -13.5 -5.5h-100
c-5.33301 0 -9.83301 1.83301 -13.5 5.5s-5.5 8.16699 -5.5 13.5l-18 436c-0.666992 5.33301 0.833008 9.83301 4.5 13.5s8.16699 5.5 13.5 5.5h138c5.33301 0 9.83301 -1.83301 13.5 -5.5s5.16699 -8.16699 4.5 -13.5z" />
    <glyph glyph-name="quotedbl" unicode="&#x22;" horiz-adv-x="499" 
d="M218 523c-0.666992 -5.33301 -2.8291 -9.66602 -6.49609 -12.999s-8.16699 -5 -13.5 -5h-87c-5.33301 0 -9.83301 1.66699 -13.5 5s-5.83398 7.66602 -6.50098 12.999l-17 231c-0.666992 5.33301 0.666016 9.83301 3.99902 13.5s7.66602 5.5 12.999 5.5h126
c5.33301 0 9.66602 -1.83301 12.999 -5.5s5 -8.16699 5 -13.5zM409.005 523c-0.666992 -5.33301 -2.83203 -9.66602 -6.49902 -12.999s-8.16699 -5 -13.5 -5h-87c-5.33301 0 -9.83301 1.66699 -13.5 5s-5.83398 7.66602 -6.50098 12.999l-17 231c0 12.667 6 19 18 19h125
c5.33301 0 9.83301 -1.83301 13.5 -5.5s5.16699 -8.16699 4.5 -13.5z" />
    <glyph glyph-name="numbersign" unicode="#" horiz-adv-x="875" 
d="M324 18c-0.666992 -5.33301 -3.00195 -9.66504 -7.00195 -12.998s-8.66699 -5 -14 -5h-136c-5.33301 0 -9.5 1.66699 -12.5 5s-4.16699 7.66602 -3.5 12.999l11 88h-92c-5.33301 0 -9.66602 1.83301 -12.999 5.5s-4.66602 8.16699 -3.99902 13.5l16 126
c0.666992 5.33301 3 9.66602 7 12.999s8.66699 5 14 5h92l17 156h-92c-5.33301 0 -9.66602 1.83301 -12.999 5.5s-4.33301 8.16699 -3 13.5l16 125c1.33301 12.667 8.33301 19 21 19h92l11 93c1.33301 5.33301 3.83301 9.83301 7.5 13.5s8.16699 5.5 13.5 5.5h136
c5.33301 0 9.66602 -1.83301 12.999 -5.5s4.33301 -8.16699 3 -13.5l-11 -93l-21 -169l-6 -52l-37 -304zM804.998 588.001c5.33301 0 9.66797 -1.66992 13.001 -5.00293s4.66602 -7.66602 3.99902 -12.999l-16 -126c-0.666992 -5.33301 -3 -9.83301 -7 -13.5
s-8.66699 -5.5 -14 -5.5h-94l-17 -156h94c5.33301 0 9.5 -1.66699 12.5 -5s4.16699 -7.66602 3.5 -12.999l-16 -126c-0.666992 -5.33301 -3 -9.66602 -7 -12.999s-8.66699 -5 -14 -5h-93l-11 -89c-0.666992 -5.33301 -3 -9.66602 -7 -12.999s-8.66699 -5 -14 -5h-136
c-5.33301 0 -9.5 1.66699 -12.5 5s-4.16699 7.66602 -3.5 12.999l11 88l20 170l17 143l21 169l11 93c0.666992 5.33301 3 9.83301 7 13.5s8.66699 5.5 14 5.5h136c5.33301 0 9.5 -1.83301 12.5 -5.5s4.16699 -8.16699 3.5 -13.5l-11 -93h93z" />
    <glyph glyph-name="dollar" unicode="$" horiz-adv-x="650" 
d="M477 421c16 0 31.167 -3.00195 45.5 -9.00195s26.666 -14.333 36.999 -25s18.666 -23 24.999 -37s9.5 -29 9.5 -45v-7v-170v-11c0 -16 -3.16699 -31.167 -9.5 -45.5s-14.666 -26.833 -24.999 -37.5s-22.666 -19 -36.999 -25s-29.5 -9 -45.5 -9h-94v-49
c0 -5.33301 -1.83301 -9.83301 -5.5 -13.5s-8.16699 -5.5 -13.5 -5.5h-76c-5.33301 0 -9.66602 1.83301 -12.999 5.5s-5 8.16699 -5 13.5v49h-192c-12.667 0 -19 6.33301 -19 19v121c0 5.33301 1.83301 9.83301 5.5 13.5s8.16699 5.5 13.5 5.5h198v120h-20h-40h-40
c-16 0 -31.167 3 -45.5 9s-26.833 14.333 -37.5 25s-19 23 -25 37s-9 29 -9 45v9v175v5c0 16 3 31 9 45s14.333 26.333 25 37s23.167 19 37.5 25s29.5 9 45.5 9h94v49c0 5.33301 1.66699 9.83301 5 13.5s7.66602 5.5 12.999 5.5h76c5.33301 0 9.83301 -1.83301 13.5 -5.5
s5.5 -8.16699 5.5 -13.5v-49h171c5.33301 0 9.66602 -1.66699 12.999 -5s5 -7.66602 5 -12.999v-124c0 -5.33301 -1.66699 -9.66602 -5 -12.999s-7.66602 -5 -12.999 -5h-177v-119h20h40h40zM276 420.998v119h-42c-5.33301 0 -9.66602 -1.83301 -12.999 -5.5
s-5 -8.16699 -5 -13.5v-81c0 -5.33301 1.66699 -9.83301 5 -13.5s7.66602 -5.5 12.999 -5.5h42zM437 259.998c0 5.33301 -1.66699 9.83398 -5 13.501s-7.66602 5.5 -12.999 5.5h-42v-120h42c5.33301 0 9.66602 1.66699 12.999 5s5 7.66602 5 12.999v83z" />
    <glyph glyph-name="percent" unicode="%" horiz-adv-x="786" 
d="M121 384c-14.667 0 -27.167 5 -37.5 15s-15.5 22.333 -15.5 37v211c0 14.667 5.16699 27.167 15.5 37.5s22.833 15.5 37.5 15.5h41h21h15h13h46c14.667 0 27.167 -5.16699 37.5 -15.5s15.5 -22.833 15.5 -37.5v-211c0 -14.667 -5.16699 -27 -15.5 -37
s-22.833 -15 -37.5 -15h-46h-13h-15h-21h-41zM151 617v-150h75v150h-75zM665 316c14.667 0 27.167 -5.16699 37.5 -15.5s15.5 -22.833 15.5 -37.5v-210c0 -14.667 -5.16699 -27.167 -15.5 -37.5s-22.833 -15.5 -37.5 -15.5h-45h-14h-15h-21h-41
c-14.667 0 -27.167 5.16699 -37.5 15.5s-15.5 22.833 -15.5 37.5v210c0 14.667 5.16699 27.167 15.5 37.5s22.833 15.5 37.5 15.5h41h21h15h14h45zM635 233h-76v-150h76v150zM664 700c5.33301 0 8.83301 -1.5 10.5 -4.5s1.16699 -6.83301 -1.5 -11.5l-385 -668
c-2.66699 -4.66699 -6.66699 -8.5 -12 -11.5s-10.666 -4.5 -15.999 -4.5h-139c-5.33301 0 -9 1.5 -11 4.5s-1.33301 6.83301 2 11.5l385 668c2.66699 4.66699 6.66699 8.5 12 11.5s10.666 4.5 15.999 4.5h139z" />
    <glyph glyph-name="ampersand" unicode="&#x26;" horiz-adv-x="723" 
d="M645 423c5.33301 0 9.83008 -1.66504 13.4971 -4.99805s5.5 -7.66602 5.5 -12.999v-110c0 -5.33301 -1.83301 -9.66602 -5.5 -12.999s-8.16699 -5 -13.5 -5h-14h-1c-5.33301 0 -9.66602 -1.83301 -12.999 -5.5s-5 -8.16699 -5 -13.5v-141
c0 -16 -3.16699 -31.167 -9.5 -45.5s-14.666 -26.833 -24.999 -37.5s-22.666 -19 -36.999 -25s-29.5 -9 -45.5 -9h-302c-16 0 -31.167 3 -45.5 9s-26.833 14.333 -37.5 25s-19 23.167 -25 37.5s-9 29.5 -9 45.5v117v19c0 5.33301 1.16699 11.166 3.5 17.499
s5.16602 11.5 8.49902 15.5l12 14l9 11l9 10c3.33301 4 6.66602 8.66699 9.99902 14s5 10.666 5 15.999c0.666992 5.33301 -0.666016 10.333 -3.99902 15s-6.66602 9 -9.99902 13l-32 41c-3.33301 4 -6 9.16699 -8 15.5s-3 12.166 -3 17.499v130c0 16 3 31.167 9 45.5
s14.333 26.666 25 36.999s23.167 18.666 37.5 24.999s29.5 9.5 45.5 9.5h400c5.33301 0 9.83301 -1.83301 13.5 -5.5s5.5 -8.16699 5.5 -13.5v-115c0 -5.33301 -1.83301 -9.66602 -5.5 -12.999s-8.16699 -5 -13.5 -5h-332c-5.33301 0 -9.83301 -1.83301 -13.5 -5.5
s-5.5 -8.16699 -5.5 -13.5v-87c0 -5.33301 1.83301 -9.83301 5.5 -13.5s8.16699 -5.5 13.5 -5.5h384zM450.997 290.002h-215v-137h215v137z" />
    <glyph glyph-name="quotesingle" unicode="'" horiz-adv-x="291" 
d="M208 523c-0.666992 -5.33301 -2.8291 -9.66602 -6.49609 -12.999s-8.16699 -5 -13.5 -5h-87c-5.33301 0 -9.83301 1.66699 -13.5 5s-5.83398 7.66602 -6.50098 12.999l-17 231c-0.666992 5.33301 0.666016 9.83301 3.99902 13.5s7.66602 5.5 12.999 5.5h126
c5.33301 0 9.66602 -1.83301 12.999 -5.5s5 -8.16699 5 -13.5z" />
    <glyph glyph-name="parenleft" unicode="(" horiz-adv-x="436" 
d="M195 934l15 -0.000976562h15h19h6h19h19h45h18c5.33301 0 9.83301 -1.83301 13.5 -5.5s5.5 -8.16699 5.5 -13.5v-19v-87v-19c0 -5.33301 -1.83301 -9.66602 -5.5 -12.999s-8.16699 -5 -13.5 -5h-18h-68c-5.33301 0 -9.83301 -1.83301 -13.5 -5.5
s-5.5 -8.16699 -5.5 -13.5v-806c0 -5.33301 1.83301 -9.66602 5.5 -12.999s8.16699 -5 13.5 -5h68h18c5.33301 0 9.83301 -1.83301 13.5 -5.5s5.5 -8.16699 5.5 -13.5v-19v-87v-19c0 -5.33301 -1.83301 -9.66602 -5.5 -12.999s-8.16699 -5 -13.5 -5h-18h-45h-19h-19h-6h-19
h-15h-15c-16 0 -31.167 3 -45.5 9s-26.833 14.333 -37.5 25s-19 23 -25 37s-9 29 -9 45v15v14v19v44v19v18v676v19v18v58v18v8v8c0 16 3 31.167 9 45.5s14.333 26.666 25 36.999s23.167 18.666 37.5 24.999s29.5 9.5 45.5 9.5z" />
    <glyph glyph-name="parenright" unicode=")" horiz-adv-x="435" 
d="M242 934c16 0 31.167 -3.16602 45.5 -9.49902s26.666 -14.666 36.999 -24.999s18.666 -22.666 24.999 -36.999s9.5 -29.5 9.5 -45.5v-8v-8v-18v-58v-18v-19v-676v-18v-19v-44v-19v-14v-15c0 -16 -3.16699 -31 -9.5 -45s-14.666 -26.333 -24.999 -37
s-22.666 -19 -36.999 -25s-29.5 -9 -45.5 -9h-15h-15h-19h-7h-18h-19h-45h-18c-5.33301 0 -9.83301 1.66699 -13.5 5s-5.5 7.66602 -5.5 12.999v19v87v19c0 5.33301 1.83301 9.83301 5.5 13.5s8.16699 5.5 13.5 5.5h18h68c5.33301 0 9.83301 1.66699 13.5 5
s5.5 7.66602 5.5 12.999v806c0 5.33301 -1.83301 9.83301 -5.5 13.5s-8.16699 5.5 -13.5 5.5h-68h-18c-5.33301 0 -9.83301 1.66699 -13.5 5s-5.5 7.66602 -5.5 12.999v19v87v19c0 5.33301 1.83301 9.83301 5.5 13.5s8.16699 5.5 13.5 5.5h18h45h19h18h7h19h15h15v0z" />
    <glyph glyph-name="asterisk" unicode="*" horiz-adv-x="401" 
d="M363 664c2 -5.33301 2.00195 -10.0029 0.00195312 -14.0029s-5.66699 -6.66699 -11 -8l-105 -22l81 -71c3.33301 -3.33301 5 -7.33301 5 -12s-2 -8.66699 -6 -12l-48 -40c-4 -3.33301 -8.33301 -4.5 -13 -3.5s-8.33398 3.83301 -11.001 8.5l-52 93l-45 -97
c-2 -5.33301 -5.16699 -8.66602 -9.5 -9.99902s-8.83301 -0.333008 -13.5 3l-51 35c-10 6.66699 -11 14.667 -3 24l74 77l-106 14c-5.33301 1.33301 -9.16602 3.83301 -11.499 7.5s-2.83301 8.16699 -1.5 13.5l18 59c1.33301 5.33301 4.16602 8.83301 8.49902 10.5
s8.83301 1.16699 13.5 -1.5l96 -48l-18 106c-1.33301 5.33301 -0.333008 9.66602 3 12.999s7.66602 5 12.999 5h62c5.33301 0 9.5 -1.66699 12.5 -5s3.83301 -7.66602 2.5 -12.999l-17 -101l87 54c4.66699 2.66699 9.16699 3.33398 13.5 2.00098s7.5 -4.66602 9.5 -9.99902
l23 -57v0z" />
    <glyph glyph-name="plus" unicode="+" horiz-adv-x="636" 
d="M612 254c0 -5.33301 -1.83301 -9.83301 -5.5 -13.5s-8.16699 -5.5 -13.5 -5.5h-169c-5.33301 0 -9.66602 -1.66699 -12.999 -5s-5 -7.66602 -5 -12.999v-175c0 -5.33301 -1.83301 -9.83301 -5.5 -13.5s-8.16699 -5.5 -13.5 -5.5h-139
c-5.33301 0 -9.66602 1.83301 -12.999 5.5s-5 8.16699 -5 13.5v175c0 5.33301 -1.83301 9.66602 -5.5 12.999s-8.16699 5 -13.5 5h-168c-5.33301 0 -9.83301 1.83301 -13.5 5.5s-5.5 8.16699 -5.5 13.5v132c0 12.667 6.33301 19 19 19h168
c5.33301 0 9.83301 1.83301 13.5 5.5s5.5 8.16699 5.5 13.5v168c0 5.33301 1.66699 9.83301 5 13.5s7.66602 5.5 12.999 5.5h139c5.33301 0 9.83301 -1.83301 13.5 -5.5s5.5 -8.16699 5.5 -13.5v-168c0 -5.33301 1.66699 -9.83301 5 -13.5s7.66602 -5.5 12.999 -5.5h169
c5.33301 0 9.83301 -1.83301 13.5 -5.5s5.5 -8.16699 5.5 -13.5v-132z" />
    <glyph glyph-name="comma" unicode="," horiz-adv-x="308" 
d="M226 176c12.667 0 19 -6.33203 19 -18.999v-116v-22c0 -5.33301 -1 -11.333 -3 -18s-4.33301 -12.334 -7 -17.001l-40 -60c-3.33301 -4.66699 -7.66602 -8.5 -12.999 -11.5s-10.666 -4.5 -15.999 -4.5h-69c-5.33301 0 -8.83301 1.5 -10.5 4.5
s-0.833984 6.83301 2.49902 11.5l40 60c2.66699 4.66699 4.16699 8.5 4.5 11.5s-0.833984 4.5 -3.50098 4.5h-42c-12.667 -0 -19 6.33301 -19 19v138c0 12.667 6.33301 19 19 19h138v0z" />
    <glyph glyph-name="hyphen" unicode="-" horiz-adv-x="412" 
d="M334 254c0 -5.33301 -1.83301 -9.83301 -5.5 -13.5s-8.16699 -5.5 -13.5 -5.5h-216c-5.33301 0 -9.83301 1.83301 -13.5 5.5s-5.5 8.16699 -5.5 13.5v132c0 12.667 6.33301 19 19 19h216c5.33301 0 9.83301 -1.83301 13.5 -5.5s5.5 -8.16699 5.5 -13.5v-132z" />
    <glyph glyph-name="period" unicode="." horiz-adv-x="333" 
d="M237 176c12.667 0 19 -6.33301 19 -19v-138c0 -12.667 -6.33301 -19 -19 -19h-138c-12.667 -0 -19 6.33301 -19 19v138c0 12.667 6.33301 19 19 19h138v0z" />
    <glyph glyph-name="slash" unicode="/" horiz-adv-x="391" 
d="M350 766c5.33301 -1.33301 9.5 -4.00098 12.5 -8.00098s3.83301 -8.66699 2.5 -14l-172 -822c-1.33301 -5.33301 -4 -9.5 -8 -12.5s-8.66699 -3.83301 -14 -2.5l-129 27c-5.33301 1.33301 -9.5 4 -12.5 8s-3.83301 8.66699 -2.5 14l172 823
c1.33301 5.33301 4 9.33301 8 12s8.66699 3.33398 14 2.00098l129 -27v0z" />
    <glyph glyph-name="zero" unicode="0" horiz-adv-x="689" 
d="M495 700c16 0 31.167 -3.16699 45.5 -9.5s26.666 -14.666 36.999 -24.999s18.666 -22.666 24.999 -36.999s9.5 -29.5 9.5 -45.5v-466c0 -16 -3.16699 -31.167 -9.5 -45.5s-14.666 -26.833 -24.999 -37.5s-22.666 -19 -36.999 -25s-29.5 -9 -45.5 -9h-100h-31h-33h-47h-90
c-16 0 -31.167 3 -45.5 9s-26.833 14.333 -37.5 25s-19 23.167 -25 37.5s-9 29.5 -9 45.5v466c0 16 3 31.167 9 45.5s14.333 26.666 25 36.999s23.167 18.666 37.5 24.999s29.5 9.5 45.5 9.5h90h47h33h31h100zM442 530h-195v-360h195v360z" />
    <glyph glyph-name="one" unicode="1" horiz-adv-x="373" 
d="M276 700c12.667 0 19 -6.33594 19 -19.0029v-662c0 -12.667 -6.33301 -19 -19 -19h-138c-12.667 0 -19 6.33301 -19 19v494c0 2.66699 -1.5 3.83398 -4.5 3.50098s-6.5 -2.16602 -10.5 -5.49902l-49 -38c-4 -3.33301 -7.5 -4.16602 -10.5 -2.49902
s-4.5 5.16699 -4.5 10.5v140c0 5.33301 1.5 10.833 4.5 16.5s6.5 10.167 10.5 13.5l49 38c4 3.33301 9.33301 6 16 8s12.667 3 18 3h23h115v0z" />
    <glyph glyph-name="two" unicode="2" horiz-adv-x="682" 
d="M250 279c-9.33301 0 -15.333 -5.33496 -18 -16.002v-89c2 -10 8 -15 18 -15h20h316c5.33301 0 9.66602 -1.83301 12.999 -5.5s5 -8.16699 5 -13.5v-121c0 -5.33301 -1.66699 -9.83301 -5 -13.5s-7.66602 -5.5 -12.999 -5.5h-314h-43h-37h-1h-97
c-12.667 0 -19 6.33301 -19 19v97v1v11v170v7c0 16 3 31 9 45s14.333 26.333 25 37s23.167 19 37.5 25s29.5 9 45.5 9h40h40h108h49c5.33301 0 9.83301 1.83301 13.5 5.5s5.5 8.16699 5.5 13.5v81c0 5.33301 -1.83301 9.83301 -5.5 13.5s-8.16699 5.5 -13.5 5.5h-53h-261
c-5.33301 0 -9.66602 1.66699 -12.999 5s-5 7.66602 -5 12.999v123c0 5.33301 1.66699 9.83301 5 13.5s7.66602 5.5 12.999 5.5h293h38h42c16 0 31 -3.16699 45 -9.5s26.333 -14.666 37 -24.999s19 -22.666 25 -36.999s9 -29.5 9 -45.5v-5v-23
c0.666992 -0.666992 1 -1.66699 1 -3v-255c0 -5.33301 -1.83301 -9.66602 -5.5 -12.999s-8.16699 -5 -13.5 -5h-98h-21h-19h-40h-146h-12v0z" />
    <glyph glyph-name="three" unicode="3" horiz-adv-x="690" 
d="M573 379c-3.33301 -3.33301 -6.66699 -7.50098 -10 -12.501s-5 -10.167 -5 -15.5c0.666992 -5.33301 2.66699 -10.666 6 -15.999s6.66602 -10 9.99902 -14l9 -10l8 -11l12 -14c3.33301 -4 6.33301 -9.16699 9 -15.5s4 -12.166 4 -17.499v-136
c0 -16 -3.16699 -31.167 -9.5 -45.5s-14.666 -26.833 -24.999 -37.5s-22.666 -19 -36.999 -25s-29.5 -9 -45.5 -9h-155h-198h-47c-12.667 0 -19 6.33301 -19 19v45v8v63c0 5.33301 1.83301 9.66602 5.5 12.999s8.16699 5 13.5 5h80h180h72
c5.33301 0 9.66602 1.83301 12.999 5.5s5 8.16699 5 13.5v86c0 5.33301 -1.66699 9.83301 -5 13.5s-7.66602 5.5 -12.999 5.5h-79h-127h-62c-5.33301 0 -9.66602 1.66699 -12.999 5s-5 7.66602 -5 12.999v110c0 5.33301 1.66699 9.66602 5 12.999s7.66602 5 12.999 5h199h69
c5.33301 0 9.66602 1.83301 12.999 5.5s5 8.16699 5 13.5v87c0 5.33301 -1.66699 9.83301 -5 13.5s-7.66602 5.5 -12.999 5.5h-332c-5.33301 0 -9.83301 1.66699 -13.5 5s-5.5 7.66602 -5.5 12.999v115c0 12.667 6.33301 19 19 19h400c16 0 31.167 -3.16699 45.5 -9.5
s26.666 -14.666 36.999 -24.999s18.666 -22.666 24.999 -36.999s9.5 -29.5 9.5 -45.5v-130c0 -5.33301 -1.16699 -11.166 -3.5 -17.499s-5.16602 -11.5 -8.49902 -15.5l-21 -28z" />
    <glyph glyph-name="four" unicode="4" horiz-adv-x="651" 
d="M553 700c5.33301 0 9.83301 -1.83008 13.5 -5.49707s5.5 -8.16699 5.5 -13.5v-178v-59v-425c0 -5.33301 -1.83301 -9.83301 -5.5 -13.5s-8.16699 -5.5 -13.5 -5.5h-139c-5.33301 0 -9.66602 1.83301 -12.999 5.5s-5 8.16699 -5 13.5v164
c0 5.33301 -1.83301 9.66602 -5.5 12.999s-8.16699 5 -13.5 5h-223c-16 0 -31.167 3.16699 -45.5 9.5s-26.833 14.666 -37.5 24.999s-19 22.666 -25 36.999s-9 29.5 -9 45.5v111v15v112v27v98c0 12.667 6.33301 19 19 19h138c12.667 0 19 -6.33301 19 -19v-109v-35v-93v-48
c0 -5.33301 1.83301 -9.83301 5.5 -13.5s8.16699 -5.5 13.5 -5.5h145c5.33301 0 9.83301 1.83301 13.5 5.5s5.5 8.16699 5.5 13.5v48v22v98v117c0 5.33301 1.66699 9.83301 5 13.5s7.66602 5.5 12.999 5.5h139v0z" />
    <glyph glyph-name="five" unicode="5" horiz-adv-x="682" 
d="M493 421c16 0 31.167 -2.99902 45.5 -8.99902s26.666 -14.333 36.999 -25s18.666 -23 24.999 -37s9.5 -29 9.5 -45v-7v-170v-11c0 -16 -3.16699 -31.167 -9.5 -45.5s-14.666 -26.833 -24.999 -37.5s-22.666 -19 -36.999 -25s-29.5 -9 -45.5 -9h-37h-43h-314
c-5.33301 0 -9.83301 1.83301 -13.5 5.5s-5.5 8.16699 -5.5 13.5v121c0 5.33301 1.83301 9.83301 5.5 13.5s8.16699 5.5 13.5 5.5h316h20c5.33301 0 9.66602 1.66699 12.999 5s5 7.66602 5 12.999v83c0 5.33301 -1.66699 9.83301 -5 13.5s-7.66602 5.5 -12.999 5.5h-12h-146
h-40h-19h-21h-98c-5.33301 0 -9.83301 1.66699 -13.5 5s-5.5 7.66602 -5.5 12.999v384c0 12.667 6.33301 19 19 19h98h21h21h38h293c5.33301 0 9.66602 -1.83301 12.999 -5.5s5 -8.16699 5 -13.5v-123c0 -5.33301 -1.66699 -9.66602 -5 -12.999s-7.66602 -5 -12.999 -5h-261
h-53c-5.33301 0 -9.83301 -1.83301 -13.5 -5.5s-5.5 -8.16699 -5.5 -13.5v-81c0 -5.33301 1.83301 -9.83301 5.5 -13.5s8.16699 -5.5 13.5 -5.5h49h108h40h40v0z" />
    <glyph glyph-name="six" unicode="6" horiz-adv-x="650" 
d="M497 499c16 0 31.167 -3.16992 45.5 -9.50293s26.666 -14.666 36.999 -24.999s18.666 -22.666 24.999 -36.999s9.5 -29.5 9.5 -45.5v-265c0 -16 -3.16699 -31.167 -9.5 -45.5s-14.666 -26.833 -24.999 -37.5s-22.666 -19 -36.999 -25s-29.5 -9 -45.5 -9h-301
c-16 0 -31.167 3 -45.5 9s-26.833 14.333 -37.5 25s-19 23.167 -25 37.5s-9 29.5 -9 45.5v50v30v484c0 12.667 6.33301 19 19 19h138c12.667 0 19 -6.33301 19 -19v-164c0 -5.33301 1.83301 -9.66602 5.5 -12.999s8.16699 -5 13.5 -5h223zM444 334.997h-195v-176h195v176z
" />
    <glyph glyph-name="seven" unicode="7" horiz-adv-x="607" 
d="M555 700c5.33301 0 9.66699 -1.83105 13 -5.49805s5 -8.16699 5 -13.5v-132c0 -5.33301 -0.833008 -11.333 -2.5 -18s-3.83398 -12.334 -6.50098 -17.001l-48 -93l-198 -375l-16 -30c-2 -4.66699 -5.66699 -8.5 -11 -11.5s-10.666 -4.5 -15.999 -4.5h-159
c-12 0 -15.667 5.33301 -11 16l34 65l237 456h-65h-166h-81c-5.33301 0 -9.83301 1.66699 -13.5 5s-5.5 7.66602 -5.5 12.999v126c0 12.667 6.33301 19 19 19h44h212h235v0z" />
    <glyph glyph-name="eight" unicode="8" horiz-adv-x="685" 
d="M568 379c-3.33301 -3.33301 -6.66504 -7.5 -9.99805 -12.5s-5 -10.167 -5 -15.5c0.666992 -5.33301 2.66699 -10.666 6 -15.999s6.66602 -10 9.99902 -14l9 -10l8 -11l13 -14c3.33301 -4 6.16602 -9.16699 8.49902 -15.5s3.5 -12.166 3.5 -17.499v-93v-43
c0 -3.33301 -0.166992 -6.5 -0.5 -9.5s-0.833008 -6.16699 -1.5 -9.5c0 -2 -0.333008 -3.66699 -1 -5c-0.666992 -5.33301 -2.33398 -11 -5.00098 -17c-0.666992 -2 -1.66699 -4.33301 -3 -7c-2 -4.66699 -4.33301 -9.33398 -7 -14.001
c-1.33301 -1.33301 -2 -2.66602 -2 -3.99902c-0.666992 -0.666992 -1.16699 -1 -1.5 -1s-0.833008 -0.333008 -1.5 -1c-1.33301 -2.66699 -2.66602 -4.66699 -3.99902 -6c-0.666992 -2 -2 -3.33301 -4 -4c-0.666992 -1.33301 -2 -3 -4 -5l-4 -4
c-1.33301 -0.666992 -2.66602 -1.66699 -3.99902 -3s-2.33301 -2.16602 -3 -2.49902s-1.66699 -1.16602 -3 -2.49902c-0.666992 -0.666992 -1.16699 -1 -1.5 -1s-0.833008 -0.333008 -1.5 -1l-4 -2c-5.33301 -3.33301 -11.166 -6.5 -17.499 -9.5
s-13.166 -5.16699 -20.499 -6.5h-5c-3.33301 -0.666992 -6.33301 -1.16699 -9 -1.5s-5.66699 -0.5 -9 -0.5h-302c-5.33301 0 -9.33301 0.333008 -12 1c-14.667 1.33301 -28.334 5.33301 -41.001 12s-23.834 15.167 -33.501 25.5s-17.167 22.166 -22.5 35.499
s-8 27.666 -8 42.999v43v93c0 5.33301 1.16699 11.166 3.5 17.499s5.16602 11.5 8.49902 15.5l12 14l9 11l9 10c3.33301 4 6.66602 8.66699 9.99902 14s5 10.666 5 15.999c0.666992 5.33301 -0.666016 10.5 -3.99902 15.5s-6.66602 9.16699 -9.99902 12.5l-10 13l-22 28
c-3.33301 4 -6 9.16699 -8 15.5s-3 12.166 -3 17.499v130c0 16 3 31.167 9 45.5s14.333 26.666 25 36.999s23.167 18.666 37.5 24.999s29.5 9.5 45.5 9.5h108h39h74h81c16 0 31.167 -3.16699 45.5 -9.5s26.666 -14.666 36.999 -24.999s18.666 -22.666 24.999 -36.999
s9.5 -29.5 9.5 -45.5v-130c0 -5.33301 -1.16699 -11.166 -3.5 -17.499s-5.16602 -11.5 -8.49902 -15.5l-21 -28zM444.001 290h-203v-13v-117v-7h203v7v117v13zM444.001 548h-203v-26v-80v-19h19h88h78h18v19v80v26z" />
    <glyph glyph-name="nine" unicode="9" horiz-adv-x="649" 
d="M454 700c16 0 31.168 -3.16406 45.501 -9.49707s26.666 -14.666 36.999 -24.999s18.666 -22.666 24.999 -36.999s9.5 -29.5 9.5 -45.5v-50v-30v-484c0 -5.33301 -1.83301 -9.83301 -5.5 -13.5s-8.16699 -5.5 -13.5 -5.5h-139c-5.33301 0 -9.66602 1.83301 -12.999 5.5
s-5 8.16699 -5 13.5v164c0 5.33301 -1.83301 9.66602 -5.5 12.999s-8.16699 5 -13.5 5h-223c-16 0 -31.167 3.16699 -45.5 9.5s-26.833 14.666 -37.5 24.999s-19 22.666 -25 36.999s-9 29.5 -9 45.5v265c0 16 3 31.167 9 45.5s14.333 26.666 25 36.999
s23.167 18.666 37.5 24.999s29.5 9.5 45.5 9.5h207h94zM401.001 541.003h-195v-176h195v176z" />
    <glyph glyph-name="colon" unicode=":" horiz-adv-x="333" 
d="M237 176c12.667 0 19 -6.33301 19 -19v-138c0 -12.667 -6.33301 -19 -19 -19h-138c-12.667 -0 -19 6.33301 -19 19v138c0 12.667 6.33301 19 19 19h138zM237 470c5.33301 0 9.83301 -1.83301 13.5 -5.5s5.5 -8.16699 5.5 -13.5v-139
c0 -5.33301 -1.83301 -9.66602 -5.5 -12.999s-8.16699 -5 -13.5 -5h-138c-5.33301 0 -9.83301 1.66699 -13.5 5s-5.5 7.66602 -5.5 12.999v139c0 5.33301 1.83301 9.83301 5.5 13.5s8.16699 5.5 13.5 5.5h138z" />
    <glyph glyph-name="semicolon" unicode=";" horiz-adv-x="309" 
d="M223 470c5.33301 0 9.83301 -1.83301 13.5 -5.5s5.5 -8.16699 5.5 -13.5v-139c0 -5.33301 -1.83301 -9.66602 -5.5 -12.999s-8.16699 -5 -13.5 -5h-138c-5.33301 0 -9.83301 1.66699 -13.5 5s-5.5 7.66602 -5.5 12.999v139c0 5.33301 1.83301 9.83301 5.5 13.5
s8.16699 5.5 13.5 5.5h138zM223 176c12.667 0 19 -6.33203 19 -18.999v-116v-22c0 -5.33301 -1 -11.333 -3 -18s-4.33301 -12.334 -7 -17.001l-40 -60c-3.33301 -4.66699 -7.66602 -8.5 -12.999 -11.5s-10.666 -4.5 -15.999 -4.5h-69c-5.33301 0 -8.83301 1.5 -10.5 4.5
s-0.833984 6.83301 2.49902 11.5l40 60c2.66699 4.66699 4.16699 8.5 4.5 11.5s-0.833984 4.5 -3.50098 4.5h-42c-12.667 -0 -19 6.33301 -19 19v138c0 12.667 6.33301 19 19 19h138z" />
    <glyph glyph-name="less" unicode="&#x3c;" horiz-adv-x="631" 
d="M554 498c0 -5.33301 -1.5 -10.333 -4.5 -15s-7.16699 -8 -12.5 -10l-397 -160l397 -161c5.33301 -2 9.5 -5.33301 12.5 -10s4.5 -9.66699 4.5 -15v-108c0 -12.667 -5.66699 -16.667 -17 -12l-508 212c-4.66699 2 -8.66699 5.5 -12 10.5s-5 10.167 -5 15.5v27v81v27
c0 5.33301 1.66699 10.5 5 15.5s7.33301 8.5 12 10.5l508 212c11.333 4.66699 17 0.666992 17 -12v-108v0z" />
    <glyph glyph-name="equal" unicode="=" horiz-adv-x="686" 
d="M607 129c0 -5.33301 -1.83301 -9.83301 -5.5 -13.5s-8.16699 -5.5 -13.5 -5.5h-489c-5.33301 0 -9.83301 1.83301 -13.5 5.5s-5.5 8.16699 -5.5 13.5v119c0 12.667 6.33301 19 19 19h489c5.33301 0 9.83301 -1.83301 13.5 -5.5s5.5 -8.16699 5.5 -13.5v-119zM607 386
c0 -5.33301 -1.83301 -9.83301 -5.5 -13.5s-8.16699 -5.5 -13.5 -5.5h-489c-12.667 0 -19 6.33301 -19 19v119c0 5.33301 1.83301 9.83301 5.5 13.5s8.16699 5.5 13.5 5.5h489c5.33301 0 9.83301 -1.83301 13.5 -5.5s5.5 -8.16699 5.5 -13.5v-119z" />
    <glyph glyph-name="greater" unicode="&#x3e;" horiz-adv-x="632" 
d="M603 406c11.333 -4.66699 17 -13.3301 17 -25.9971v-27v-81v-27c0 -12.667 -5.66699 -21.334 -17 -26.001l-508 -212c-4.66699 -2 -8.66699 -1.83301 -12 0.5s-5 6.16602 -5 11.499v108c0 5.33301 1.66699 10.333 5 15s7.33301 8 12 10l397 161l-397 160
c-4.66699 2 -8.66699 5.33301 -12 10s-5 9.66699 -5 15v108c0 5.33301 1.66699 9.16602 5 11.499s7.33301 2.5 12 0.5l508 -212v0z" />
    <glyph glyph-name="question" unicode="?" horiz-adv-x="537" 
d="M287 19c0 -5.33301 -1.66699 -9.83301 -5 -13.5s-7.66602 -5.5 -12.999 -5.5h-139c-5.33301 -0 -9.83301 1.83301 -13.5 5.5s-5.5 8.16699 -5.5 13.5v138c0 5.33301 1.83301 9.83301 5.5 13.5s8.16699 5.5 13.5 5.5h139c5.33301 0 9.66602 -1.83301 12.999 -5.5
s5 -8.16699 5 -13.5v-138zM377 700c16 0 30.999 -3.16797 44.999 -9.50098s26.333 -14.666 37 -24.999s19 -22.666 25 -36.999s9 -29.5 9 -45.5v-339c0 -5.33301 -1.66699 -9.83301 -5 -13.5s-7.66602 -5.5 -12.999 -5.5h-345c-5.33301 0 -9.83301 1.83301 -13.5 5.5
s-5.5 8.16699 -5.5 13.5v119c0 5.33301 1.83301 9.83301 5.5 13.5s8.16699 5.5 13.5 5.5h168c12.667 0 19 6.33301 19 19v111c0 5.33301 -1.83301 9.66602 -5.5 12.999s-8.16699 5 -13.5 5h-213c-5.33301 0 -9.83301 1.83301 -13.5 5.5s-5.5 8.16699 -5.5 13.5v132
c0 12.667 6.33301 19 19 19h292z" />
    <glyph glyph-name="at" unicode="@" horiz-adv-x="743" 
d="M549 698c16 0 31.1689 -3.16797 45.502 -9.50098s26.666 -14.666 36.999 -24.999s18.666 -22.666 24.999 -36.999s9.5 -29.5 9.5 -45.5v-247c0 -5.33301 -1.83301 -9.83301 -5.5 -13.5s-8.16699 -5.5 -13.5 -5.5h-233c-12.667 0 -19 6.33301 -19 19v176
c0 5.33301 -1.83301 9.66602 -5.5 12.999s-8.16699 5 -13.5 5h-103c-5.33301 0 -9.83301 -1.66699 -13.5 -5s-5.5 -7.66602 -5.5 -12.999v-324c0 -5.33301 1.83301 -9.66602 5.5 -12.999s8.16699 -5 13.5 -5h374c5.33301 0 9.83301 -1.83301 13.5 -5.5
s5.5 -8.16699 5.5 -13.5v-132c0 -5.33301 -1.83301 -9.83301 -5.5 -13.5s-8.16699 -5.5 -13.5 -5.5h-452c-16 0 -31.167 3 -45.5 9s-26.833 14.333 -37.5 25s-19 23.167 -25 37.5s-9 29.5 -9 45.5v18v430v18c0 16 3 31.167 9 45.5s14.333 26.666 25 36.999
s23.167 18.666 37.5 24.999s29.5 9.5 45.5 9.5h354v0z" />
    <glyph glyph-name="A" unicode="A" horiz-adv-x="745" 
d="M550 700c16 0 31.168 -3.16699 45.501 -9.5s26.666 -14.666 36.999 -24.999s18.666 -22.666 24.999 -36.999s9.5 -29.5 9.5 -45.5v-564c0 -5.33301 -1.83301 -9.83301 -5.5 -13.5s-8.16699 -5.5 -13.5 -5.5h-139c-5.33301 0 -9.83301 1.83301 -13.5 5.5
s-5.5 8.16699 -5.5 13.5v179c0 5.33301 -1.66699 9.83301 -5 13.5s-7.66602 5.5 -12.999 5.5h-198c-5.33301 0 -9.83301 -1.83301 -13.5 -5.5s-5.5 -8.16699 -5.5 -13.5v-179c0 -12.667 -6.33301 -19 -19 -19h-138c-12.667 0 -19 6.33301 -19 19v564c0 16 3 31.167 9 45.5
s14.333 26.666 25 36.999s23.167 18.666 37.5 24.999s29.5 9.5 45.5 9.5h354zM490.001 367v176h-235v-176h235z" />
    <glyph glyph-name="B" unicode="B" horiz-adv-x="743" 
d="M613 365c-3.33301 -4 -4.83203 -9.00391 -4.49902 -15.0039s2.16602 -10.667 5.49902 -14l42 -50c3.33301 -4 6.16602 -9.16699 8.49902 -15.5s3.5 -12.166 3.5 -17.499v-136c0 -16 -3.16699 -31.167 -9.5 -45.5s-14.666 -26.833 -24.999 -37.5s-22.666 -19 -36.999 -25
s-29.5 -9 -45.5 -9h-452c-12.667 0 -19 6.33301 -19 19v662c0 12.667 6.33301 19 19 19h452c16 0 31.167 -3.16699 45.5 -9.5s26.666 -14.666 36.999 -24.999s18.666 -22.666 24.999 -36.999s9.5 -29.5 9.5 -45.5v-130c0 -5.33301 -1.16699 -11.166 -3.5 -17.499
s-5.16602 -11.5 -8.49902 -15.5zM508.001 289.996h-269v-137h269v137zM508.001 547.996h-269v-125h269v125z" />
    <glyph glyph-name="C" unicode="C" horiz-adv-x="691" 
d="M272 530c-5.33301 0 -9.83301 -1.66699 -13.5 -5s-5.5 -7.66602 -5.5 -12.999v-324c0 -5.33301 1.83301 -9.66602 5.5 -12.999s8.16699 -5 13.5 -5h321c5.33301 0 9.83301 -1.83301 13.5 -5.5s5.5 -8.16699 5.5 -13.5v-132c0 -5.33301 -1.83301 -9.83301 -5.5 -13.5
s-8.16699 -5.5 -13.5 -5.5h-209h-172h-18c-16 0 -31.167 3 -45.5 9s-26.833 14.333 -37.5 25s-19 23.167 -25 37.5s-9 29.5 -9 45.5v18v73v233v65v77c0 16 3 31.167 9 45.5s14.333 26.666 25 36.999s23.167 18.666 37.5 24.999s29.5 9.5 45.5 9.5h18h381
c5.33301 0 9.83301 -1.83301 13.5 -5.5s5.5 -8.16699 5.5 -13.5v-132c0 -5.33301 -1.83301 -9.83301 -5.5 -13.5s-8.16699 -5.5 -13.5 -5.5h-321v0z" />
    <glyph glyph-name="D" unicode="D" horiz-adv-x="745" 
d="M551 700c16 0 31.167 -3.16895 45.5 -9.50195s26.666 -14.666 36.999 -24.999s18.666 -22.666 24.999 -36.999s9.5 -29.5 9.5 -45.5v-466c0 -16 -3.16699 -31.167 -9.5 -45.5s-14.666 -26.833 -24.999 -37.5s-22.666 -19 -36.999 -25s-29.5 -9 -45.5 -9h-452
c-12.667 -0 -19 6.33301 -19 19v662c0 12.667 6.33301 19 19 19h452zM256 169.998h235v360h-235v-360z" />
    <glyph glyph-name="E" unicode="E" horiz-adv-x="691" 
d="M258 537c-3.33301 0 -5 -1.66602 -5 -4.99902v-109c0 -2.66699 1.66699 -4 5 -4h285c5.33301 0 9.83301 -1.83301 13.5 -5.5s5.5 -8.16699 5.5 -13.5v-100c0 -12.667 -6.33301 -19 -19 -19h-285c-3.33301 0 -5 -1.66699 -5 -5v-108c0 -3.33301 1.66699 -5 5 -5h335
c5.33301 0 9.83301 -1.83301 13.5 -5.5s5.5 -8.16699 5.5 -13.5v-125c0 -5.33301 -1.83301 -9.83301 -5.5 -13.5s-8.16699 -5.5 -13.5 -5.5h-399c-16 0 -31.167 3 -45.5 9s-26.833 14.333 -37.5 25s-19 23.167 -25 37.5s-9 29.5 -9 45.5v466c0 16 3 31.167 9 45.5
s14.333 26.666 25 36.999s23.167 18.666 37.5 24.999s29.5 9.5 45.5 9.5h399c5.33301 0 9.83301 -1.83301 13.5 -5.5s5.5 -8.16699 5.5 -13.5v-126c0 -5.33301 -1.83301 -9.66602 -5.5 -12.999s-8.16699 -5 -13.5 -5h-335v0z" />
    <glyph glyph-name="F" unicode="F" horiz-adv-x="635" 
d="M596 700c5.33301 0 9.83301 -1.83301 13.5 -5.5s5.5 -8.16699 5.5 -13.5v-132c0 -5.33301 -1.83301 -9.83301 -5.5 -13.5s-8.16699 -5.5 -13.5 -5.5h-335c-3.33301 0 -5 -1.33301 -5 -4v-109c0 -3.33301 1.66699 -5 5 -5h254c5.33301 0 9.66602 -1.83301 12.999 -5.5
s5 -8.16699 5 -13.5v-125c0 -5.33301 -1.66699 -9.83301 -5 -13.5s-7.66602 -5.5 -12.999 -5.5h-254c-3.33301 0 -5 -1.66699 -5 -5v-225c0 -12.667 -6.33301 -19 -19 -19h-138c-12.667 -0 -19 6.33301 -19 19v662c0 12.667 6.33301 19 19 19h497v0z" />
    <glyph glyph-name="G" unicode="G" horiz-adv-x="737" 
d="M647 382c5.33301 0 9.83203 -1.83203 13.499 -5.49902s5.5 -8.16699 5.5 -13.5v-246c0 -16 -3.16699 -31.167 -9.5 -45.5s-14.666 -26.833 -24.999 -37.5s-22.666 -19 -36.999 -25s-29.5 -9 -45.5 -9h-354c-16 0 -31.167 3 -45.5 9s-26.833 14.333 -37.5 25
s-19 23.167 -25 37.5s-9 29.5 -9 45.5v466c0 16 3 31.167 9 45.5s14.333 26.666 25 36.999s23.167 18.666 37.5 24.999s29.5 9.5 45.5 9.5h413c5.33301 0 9.83301 -1.83301 13.5 -5.5s5.5 -8.16699 5.5 -13.5v-132c0 -5.33301 -1.83301 -9.83301 -5.5 -13.5
s-8.16699 -5.5 -13.5 -5.5h-335c-5.33301 0 -9.83301 -1.66699 -13.5 -5s-5.5 -7.66602 -5.5 -12.999v-324c0 -5.33301 1.83301 -9.66602 5.5 -12.999s8.16699 -5 13.5 -5h198c5.33301 0 9.66602 1.66699 12.999 5s5 7.66602 5 12.999v175
c0 5.33301 1.83301 9.83301 5.5 13.5s8.16699 5.5 13.5 5.5h139v0z" />
    <glyph glyph-name="H" unicode="H" horiz-adv-x="747" 
d="M649 700c5.33301 0 9.83301 -1.83301 13.5 -5.5s5.5 -8.16699 5.5 -13.5v-662c0 -5.33301 -1.83301 -9.83301 -5.5 -13.5s-8.16699 -5.5 -13.5 -5.5h-139c-5.33301 -0 -9.83301 1.83301 -13.5 5.5s-5.5 8.16699 -5.5 13.5v231c0 5.33301 -1.66699 9.66602 -5 12.999
s-7.66602 5 -12.999 5h-198c-5.33301 0 -9.83301 -1.66699 -13.5 -5s-5.5 -7.66602 -5.5 -12.999v-231c0 -12.667 -6.33301 -19 -19 -19h-138c-12.667 -0 -19 6.33301 -19 19v662c0 12.667 6.33301 19 19 19h138c12.667 0 19 -6.33301 19 -19v-224
c0 -12.667 6.33301 -19 19 -19h198c5.33301 0 9.66602 1.83301 12.999 5.5s5 8.16699 5 13.5v224c0 5.33301 1.83301 9.83301 5.5 13.5s8.16699 5.5 13.5 5.5h139z" />
    <glyph glyph-name="I" unicode="I" horiz-adv-x="333" 
d="M256 19c0 -12.667 -6.33301 -19 -19 -19h-138c-12.667 -0 -19 6.33301 -19 19v662c0 12.667 6.33301 19 19 19h138c12.667 0 19 -6.33301 19 -19v-662z" />
    <glyph glyph-name="J" unicode="J" horiz-adv-x="635" 
d="M538 700c5.33301 0 9.83203 -1.83301 13.499 -5.5s5.5 -8.16699 5.5 -13.5v-564c0 -16 -3.16699 -31.167 -9.5 -45.5s-14.666 -26.833 -24.999 -37.5s-22.666 -19 -36.999 -25s-29.5 -9 -45.5 -9h-301c-16 0 -31.167 3 -45.5 9s-26.833 14.333 -37.5 25
s-19 23.167 -25 37.5s-9 29.5 -9 45.5v214c0 12.667 6.33301 19 19 19h138c12.667 0 19 -6.33301 19 -19v-143c0 -5.33301 1.83301 -9.66602 5.5 -12.999s8.16699 -5 13.5 -5h145c5.33301 0 9.83301 1.66699 13.5 5s5.5 7.66602 5.5 12.999v493
c0 5.33301 1.66699 9.83301 5 13.5s7.66602 5.5 12.999 5.5h139v0z" />
    <glyph glyph-name="K" unicode="K" horiz-adv-x="761" 
d="M478 405c-2 -2 -2.33496 -4.33398 -1.00195 -7.00098l234 -382c2.66699 -4.66699 3 -8.5 1 -11.5s-5.66699 -4.5 -11 -4.5h-166c-5.33301 0 -10.666 1.5 -15.999 4.5s-9.33301 6.83301 -12 11.5l-151 273c-2 3.33301 -3.66699 3.66602 -5 0.999023l-83 -91
c-3.33301 -3.33301 -6.16602 -8.16602 -8.49902 -14.499s-3.5 -12.166 -3.5 -17.499v-148c0 -12.667 -6.33301 -19 -19 -19h-138c-12.667 -0 -19 6.33301 -19 19v662c0 12.667 6.33301 19 19 19h138c12.667 0 19 -6.33301 19 -19v-297l258 302c3.33301 4 8 7.33301 14 10
s11.667 4 17 4h166c5.33301 0 8.5 -1.33301 9.5 -4s-0.166992 -6 -3.5 -10z" />
    <glyph glyph-name="L" unicode="L" horiz-adv-x="567" 
d="M531 170c5.33301 0 9.66602 -1.83398 12.999 -5.50098s5 -8.16699 5 -13.5v-132c0 -5.33301 -1.66699 -9.83301 -5 -13.5s-7.66602 -5.5 -12.999 -5.5h-432c-12.667 0 -19 6.33301 -19 19v662c0 12.667 6.33301 19 19 19h138c12.667 0 19 -6.33301 19 -19v-493
c0 -5.33301 1.83301 -9.66602 5.5 -12.999s8.16699 -5 13.5 -5h256z" />
    <glyph glyph-name="M" unicode="M" horiz-adv-x="897" 
d="M702 700c16 0 31.167 -3.16895 45.5 -9.50195s26.666 -14.666 36.999 -24.999s18.666 -22.666 24.999 -36.999s9.5 -29.5 9.5 -45.5v-564c0 -5.33301 -1.83301 -9.83301 -5.5 -13.5s-8.16699 -5.5 -13.5 -5.5h-139c-5.33301 -0 -9.66602 1.83301 -12.999 5.5
s-5 8.16699 -5 13.5v511h-112v-511c0 -5.33301 -1.66699 -9.83301 -5 -13.5s-7.66602 -5.5 -12.999 -5.5h-126c-5.33301 -0 -9.83301 1.83301 -13.5 5.5s-5.5 8.16699 -5.5 13.5v511h-112v-511c0 -12.667 -6.33301 -19 -19 -19h-138c-12.667 -0 -19 6.33301 -19 19v662
c0 12.667 6.33301 19 19 19h603v0z" />
    <glyph glyph-name="N" unicode="N" horiz-adv-x="746" 
d="M551 700c16 0 31.168 -3.16895 45.501 -9.50195s26.666 -14.666 36.999 -24.999s18.666 -22.666 24.999 -36.999s9.5 -29.5 9.5 -45.5v-564c0 -5.33301 -1.83301 -9.83301 -5.5 -13.5s-8.16699 -5.5 -13.5 -5.5h-139c-5.33301 -0 -9.66602 1.83301 -12.999 5.5
s-5 8.16699 -5 13.5v493c0 5.33301 -1.83301 9.66602 -5.5 12.999s-8.16699 5 -13.5 5h-198c-5.33301 0 -9.83301 -1.66699 -13.5 -5s-5.5 -7.66602 -5.5 -12.999v-493c0 -12.667 -6.33301 -19 -19 -19h-138c-12.667 -0 -19 6.33301 -19 19v662c0 12.667 6.33301 19 19 19
h452v0z" />
    <glyph glyph-name="O" unicode="O" horiz-adv-x="743" 
d="M549 700c16 0 31.167 -3.16699 45.5 -9.5s26.666 -14.666 36.999 -24.999s18.666 -22.666 24.999 -36.999s9.5 -29.5 9.5 -45.5v-466c0 -16 -3.16699 -31.167 -9.5 -45.5s-14.666 -26.833 -24.999 -37.5s-22.666 -19 -36.999 -25s-29.5 -9 -45.5 -9h-354
c-16 0 -31.167 3 -45.5 9s-26.833 14.333 -37.5 25s-19 23.167 -25 37.5s-9 29.5 -9 45.5v466c0 16 3 31.167 9 45.5s14.333 26.666 25 36.999s23.167 18.666 37.5 24.999s29.5 9.5 45.5 9.5h354zM489 530h-235v-360h235v360z" />
    <glyph glyph-name="P" unicode="P" horiz-adv-x="651" 
d="M498 700c16 0 31.167 -3.17188 45.5 -9.50488s26.666 -14.666 36.999 -24.999s18.666 -22.666 24.999 -36.999s9.5 -29.5 9.5 -45.5v-265c0 -16 -3.16699 -31.167 -9.5 -45.5s-14.666 -26.666 -24.999 -36.999s-22.666 -18.666 -36.999 -24.999s-29.5 -9.5 -45.5 -9.5
h-223c-5.33301 0 -9.83301 -1.66699 -13.5 -5s-5.5 -7.66602 -5.5 -12.999v-164c0 -12.667 -6.33301 -19 -19 -19h-138c-12.667 -0 -19 6.33301 -19 19v662c0 12.667 6.33301 19 19 19h399zM445 363.995v177h-195v-177h195z" />
    <glyph glyph-name="Q" unicode="Q" horiz-adv-x="718" 
d="M537 700c16 0 30.999 -3.16699 44.999 -9.5s26.333 -14.666 37 -24.999s19 -22.666 25 -36.999s9 -29.5 9 -45.5v-466c0 -16 -3 -31.167 -9 -45.5s-14.333 -26.833 -25 -37.5s-23 -19 -37 -25s-29 -9 -45 -9h-89v-95c0 -5.33301 -1.83301 -9.83301 -5.5 -13.5
s-8.16699 -5.5 -13.5 -5.5h-139c-5.33301 0 -9.66602 1.83301 -12.999 5.5s-5 8.16699 -5 13.5v95h-89c-16 0 -31.167 3 -45.5 9s-26.833 14.333 -37.5 25s-19 23.167 -25 37.5s-9 29.5 -9 45.5v466c0 16 3 31.167 9 45.5s14.333 26.666 25 36.999
s23.167 18.666 37.5 24.999s29.5 9.5 45.5 9.5h354zM476.999 530h-235v-367h235v367z" />
    <glyph glyph-name="R" unicode="R" horiz-adv-x="752" 
d="M680 16c2.66699 -4.66699 3 -8.50391 1 -11.5039s-5.66699 -4.5 -11 -4.5h-159c-5.33301 0 -10.666 1.5 -15.999 4.5s-9.33301 6.83301 -12 11.5l-106 190c-1.33301 2.66699 -3.66602 4 -6.99902 4h-119c-3.33301 0 -5 -1.66699 -5 -5v-186
c0 -12.667 -6.33301 -19 -19 -19h-138c-12.667 0 -19 6.33301 -19 19v662c0 12.667 6.33301 19 19 19h452c16 0 31.167 -3.16699 45.5 -9.5s26.666 -14.666 36.999 -24.999s18.666 -22.666 24.999 -36.999s9.5 -29.5 9.5 -45.5v-263c0 -25.333 -7.5 -48.166 -22.5 -68.499
s-34.167 -34.166 -57.5 -41.499l-3 -1c-4.66699 -1.33301 -5.66699 -3.33301 -3 -6l1 -2zM481 536.996h-241v-170h241v170z" />
    <glyph glyph-name="S" unicode="S" horiz-adv-x="684" 
d="M495 421c16 0 31.167 -2.99805 45.5 -8.99805s26.666 -14.333 36.999 -25s18.666 -23 24.999 -37s9.5 -29 9.5 -45v-188c0 -16 -3.16699 -31.167 -9.5 -45.5s-14.666 -26.833 -24.999 -37.5s-22.666 -19 -36.999 -25s-29.5 -9 -45.5 -9h-399
c-12.667 0 -19 6.33301 -19 19v121c0 5.33301 1.83301 9.83301 5.5 13.5s8.16699 5.5 13.5 5.5h340c5.33301 0 9.83301 1.66699 13.5 5s5.5 7.66602 5.5 12.999v83c0 5.33301 -1.83301 9.83301 -5.5 13.5s-8.16699 5.5 -13.5 5.5h-242c-16 0 -31.167 3 -45.5 9
s-26.833 14.333 -37.5 25s-19 23 -25 37s-9 29 -9 45v188c0 16 3 31.167 9 45.5s14.333 26.666 25 36.999s23.167 18.666 37.5 24.999s29.5 9.5 45.5 9.5h377c12.667 0 19 -6.33301 19 -19v-123c0 -5.33301 -1.83301 -9.66602 -5.5 -12.999s-8.16699 -5 -13.5 -5h-319
c-5.33301 0 -9.66602 -1.83301 -12.999 -5.5s-5 -8.16699 -5 -13.5v-81c0 -5.33301 1.66699 -9.83301 5 -13.5s7.66602 -5.5 12.999 -5.5h243v0z" />
    <glyph glyph-name="T" unicode="T" horiz-adv-x="615" 
d="M575 549c0 -5.33301 -1.83496 -9.83301 -5.50195 -13.5s-8.16699 -5.5 -13.5 -5.5h-142c-5.33301 0 -9.83301 -1.66699 -13.5 -5s-5.5 -7.66602 -5.5 -12.999v-493c0 -5.33301 -1.66699 -9.83301 -5 -13.5s-7.66602 -5.5 -12.999 -5.5h-139
c-5.33301 0 -9.83301 1.83301 -13.5 5.5s-5.5 8.16699 -5.5 13.5v493c0 5.33301 -1.66699 9.66602 -5 12.999s-7.66602 5 -12.999 5h-142c-5.33301 0 -9.83301 1.83301 -13.5 5.5s-5.5 8.16699 -5.5 13.5v132c0 12.667 6.33301 19 19 19h142h37h139h37h142
c5.33301 0 9.83301 -1.83301 13.5 -5.5s5.5 -8.16699 5.5 -13.5v-132z" />
    <glyph glyph-name="U" unicode="U" horiz-adv-x="745" 
d="M648 700c5.33301 0 9.83203 -1.83301 13.499 -5.5s5.5 -8.16699 5.5 -13.5v-564c0 -16 -3.16699 -31.167 -9.5 -45.5s-14.666 -26.833 -24.999 -37.5s-22.666 -19 -36.999 -25s-29.5 -9 -45.5 -9h-354c-16 0 -31.167 3 -45.5 9s-26.833 14.333 -37.5 25
s-19 23.167 -25 37.5s-9 29.5 -9 45.5v564c0 12.667 6.33301 19 19 19h138c12.667 0 19 -6.33301 19 -19v-493c0 -5.33301 1.83301 -9.66602 5.5 -12.999s8.16699 -5 13.5 -5h198c5.33301 0 9.66602 1.66699 12.999 5s5 7.66602 5 12.999v493
c0 5.33301 1.83301 9.83301 5.5 13.5s8.16699 5.5 13.5 5.5h139v0z" />
    <glyph glyph-name="V" unicode="V" horiz-adv-x="746" 
d="M551 0h-452.001c-12.667 -0 -19 6.33301 -19 19v662c0 12.667 6.33301 19 19 19h138c12.667 0 19 -6.33301 19 -19v-493c0 -5.33301 1.83301 -9.66602 5.5 -12.999s8.16699 -5 13.5 -5h198c5.33301 0 9.66602 1.66699 12.999 5s5 7.66602 5 12.999v493
c0 5.33301 1.83301 9.83301 5.5 13.5s8.16699 5.5 13.5 5.5h139c5.33301 0 9.83301 -1.83301 13.5 -5.5s5.5 -8.16699 5.5 -13.5v-564c0 -16 -3.16699 -31.167 -9.5 -45.5s-14.666 -26.833 -24.999 -37.5s-22.666 -19 -36.999 -25s-29.5 -9 -45.5 -9z" />
    <glyph glyph-name="W" unicode="W" horiz-adv-x="896" 
d="M799 700c5.33301 0 9.83203 -1.83301 13.499 -5.5s5.5 -8.16699 5.5 -13.5v-564c0 -16 -3.16699 -31.167 -9.5 -45.5s-14.666 -26.833 -24.999 -37.5s-22.666 -19 -36.999 -25s-29.5 -9 -45.5 -9h-505c-16 0 -31.167 3 -45.5 9s-26.833 14.333 -37.5 25
s-19 23.167 -25 37.5s-9 29.5 -9 45.5v564c0 12.667 6.33301 19 19 19h138c12.667 0 19 -6.33301 19 -19v-511h111v511c0 5.33301 1.83301 9.83301 5.5 13.5s8.16699 5.5 13.5 5.5h126c5.33301 0 9.83301 -1.83301 13.5 -5.5s5.5 -8.16699 5.5 -13.5v-511h112v511
c0 5.33301 1.66699 9.83301 5 13.5s7.66602 5.5 12.999 5.5h139v0z" />
    <glyph glyph-name="X" unicode="X" horiz-adv-x="809" 
d="M738 16c3.33301 -4.66699 4 -8.5 2 -11.5s-5.66699 -4.5 -11 -4.5h-150c-5.33301 0 -10.666 1.5 -15.999 4.5s-9.33301 6.83301 -12 11.5l-146 209l-147 -209c-2.66699 -4.66699 -6.66699 -8.5 -12 -11.5s-10.666 -4.5 -15.999 -4.5h-150c-5.33301 0 -9 1.5 -11 4.5
s-1.33301 6.83301 2 11.5l215 329c2.66699 4.66699 4 10 4 16s-1.33301 11.333 -4 16l-202 307c-3.33301 4.66699 -4 8.5 -2 11.5s5.66699 4.5 11 4.5h150c5.33301 0 10.666 -1.5 15.999 -4.5s9.33301 -6.83301 12 -11.5l134 -188l133 188
c2.66699 4.66699 6.66699 8.5 12 11.5s10.666 4.5 15.999 4.5h150c5.33301 0 9 -1.5 11 -4.5s1.33301 -6.83301 -2 -11.5l-202 -307c-2.66699 -4.66699 -4 -10 -4 -16s1.33301 -11.333 4 -16l215 -329v0z" />
    <glyph glyph-name="Y" unicode="Y" horiz-adv-x="671" 
d="M598 700c5.33301 0 9.83105 -1.83301 13.498 -5.5s5.5 -8.16699 5.5 -13.5v-357c0 -16 -3.16699 -31.167 -9.5 -45.5s-14.666 -26.666 -24.999 -36.999s-22.666 -18.666 -36.999 -24.999s-29.5 -9.5 -45.5 -9.5h-76v-188c0 -5.33301 -1.83301 -9.83301 -5.5 -13.5
s-8.16699 -5.5 -13.5 -5.5h-139c-5.33301 0 -9.66602 1.83301 -12.999 5.5s-5 8.16699 -5 13.5v188h-76c-16 0 -31.167 3.16699 -45.5 9.5s-26.833 14.666 -37.5 24.999s-19 22.666 -25 36.999s-9 29.5 -9 45.5v357c0 12.667 6.33301 19 19 19h132
c5.33301 0 9.83301 -1.83301 13.5 -5.5s5.5 -8.16699 5.5 -13.5v-298c0 -5.33301 1.66699 -9.83301 5 -13.5s7.66602 -5.5 12.999 -5.5h185c12.667 0 19 6.33301 19 19v298c0 12.667 6.33301 19 19 19h132v0z" />
    <glyph glyph-name="Z" unicode="Z" horiz-adv-x="692" 
d="M613 555c0 -5.33301 -1.33203 -10.999 -3.99902 -16.999s-5.66699 -11 -9 -15l-325 -366h319c5.33301 0 9.83301 -1.83301 13.5 -5.5s5.5 -8.16699 5.5 -13.5v-119c0 -5.33301 -1.83301 -9.83301 -5.5 -13.5s-8.16699 -5.5 -13.5 -5.5h-497c-12.667 0 -19 6.33301 -19 19
v125c0 5.33301 1.16699 11.166 3.5 17.499s5.16602 11.5 8.49902 15.5l332 366h-319c-5.33301 0 -9.83301 1.83301 -13.5 5.5s-5.5 8.16699 -5.5 13.5v119c0 5.33301 1.83301 9.83301 5.5 13.5s8.16699 5.5 13.5 5.5h491c5.33301 0 9.83301 -1.83301 13.5 -5.5
s5.5 -8.16699 5.5 -13.5v-126z" />
    <glyph glyph-name="bracketleft" unicode="[" horiz-adv-x="438" 
d="M99 934l18 -0.00195312h218h18c5.33301 0 9.83301 -1.83301 13.5 -5.5s5.5 -8.16699 5.5 -13.5v-19v-87v-19c0 -5.33301 -1.83301 -9.66602 -5.5 -12.999s-8.16699 -5 -13.5 -5h-18h-68c-5.33301 0 -9.83301 -1.83301 -13.5 -5.5s-5.5 -8.16699 -5.5 -13.5v-806
c0 -5.33301 1.83301 -9.66602 5.5 -12.999s8.16699 -5 13.5 -5h68h18c5.33301 0 9.83301 -1.83301 13.5 -5.5s5.5 -8.16699 5.5 -13.5v-19v-87v-19c0 -5.33301 -1.83301 -9.66602 -5.5 -12.999s-8.16699 -5 -13.5 -5h-18h-218h-18c-5.33301 0 -9.83301 1.66699 -13.5 5
s-5.5 7.66602 -5.5 12.999v15v14v19v65v18v19v830v19v18v60v19v17v17c0 5.33301 1.83301 9.83301 5.5 13.5s8.16699 5.5 13.5 5.5z" />
    <glyph glyph-name="backslash" unicode="\" horiz-adv-x="391" 
d="M364 -44c1.33301 -5.33301 0.5 -9.99902 -2.5 -13.999s-7.16699 -6.66699 -12.5 -8l-129 -27c-5.33301 -1.33301 -10 -0.5 -14 2.5s-6.66699 7.16699 -8 12.5l-172 822c-1.33301 5.33301 -0.5 10 2.5 14s7.16699 6.66699 12.5 8l129 27
c5.33301 1.33301 10 0.666016 14 -2.00098s6.66699 -6.66699 8 -12z" />
    <glyph glyph-name="bracketright" unicode="]" horiz-adv-x="437" 
d="M340 934c5.33301 0 9.83301 -1.83105 13.5 -5.49805s5.5 -8.16699 5.5 -13.5v-17v-17v-19v-60v-18v-19v-830v-19v-18v-65v-19v-14v-15c0 -5.33301 -1.83301 -9.66602 -5.5 -12.999s-8.16699 -5 -13.5 -5h-18h-218h-18c-5.33301 0 -9.83301 1.66699 -13.5 5
s-5.5 7.66602 -5.5 12.999v19v87v19c0 5.33301 1.83301 9.83301 5.5 13.5s8.16699 5.5 13.5 5.5h18h68c5.33301 0 9.83301 1.66699 13.5 5s5.5 7.66602 5.5 12.999v806c0 5.33301 -1.83301 9.83301 -5.5 13.5s-8.16699 5.5 -13.5 5.5h-68h-18
c-5.33301 0 -9.83301 1.66699 -13.5 5s-5.5 7.66602 -5.5 12.999v19v87v19c0 5.33301 1.83301 9.83301 5.5 13.5s8.16699 5.5 13.5 5.5h18h218h18v0z" />
    <glyph glyph-name="asciicircum" unicode="^" horiz-adv-x="504" 
d="M461 437c4.66699 -11.333 0.666992 -17 -12 -17h-63c-5.33301 0 -10.5 1.5 -15.5 4.5s-8.16699 7.16699 -9.5 12.5l-109 269l-109 -269c-1.33301 -5.33301 -4.5 -9.5 -9.5 -12.5s-10.167 -4.5 -15.5 -4.5h-63c-12.667 0 -16.667 5.66699 -12 17l142 340
c2 5.33301 5.5 9.5 10.5 12.5s10.167 4.5 15.5 4.5h19h44h19c5.33301 0 10.5 -1.5 15.5 -4.5s8.5 -7.16699 10.5 -12.5l142 -340v0z" />
    <glyph glyph-name="underscore" unicode="_" horiz-adv-x="786" 
d="M707 -151c0 -5.33301 -1.83301 -9.83301 -5.5 -13.5s-8.16699 -5.5 -13.5 -5.5h-589c-5.33301 0 -9.83301 1.83301 -13.5 5.5s-5.5 8.16699 -5.5 13.5v132c0 12.667 6.33301 19 19 19h589c5.33301 0 9.83301 -1.83301 13.5 -5.5s5.5 -8.16699 5.5 -13.5v-132z" />
    <glyph glyph-name="grave" unicode="`" horiz-adv-x="290" 
d="M51 800c-5.33301 1.33301 -9 4.00391 -11 8.00391s-2 8.66699 0 14l36 87c2 5.33301 5.16699 8.66602 9.5 9.99902s8.83301 0.666016 13.5 -2.00098l156 -96c4 -2.66699 6.83301 -6.66699 8.5 -12s1.5 -10.333 -0.5 -15l-8 -20
c-1.33301 -4.66699 -4.5 -8.33398 -9.5 -11.001s-10.167 -3.33398 -15.5 -2.00098z" />
    <glyph glyph-name="a" unicode="a" horiz-adv-x="745" 
d="M550 700c16 0 31.168 -3.16699 45.501 -9.5s26.666 -14.666 36.999 -24.999s18.666 -22.666 24.999 -36.999s9.5 -29.5 9.5 -45.5v-564c0 -5.33301 -1.83301 -9.83301 -5.5 -13.5s-8.16699 -5.5 -13.5 -5.5h-139c-5.33301 0 -9.83301 1.83301 -13.5 5.5
s-5.5 8.16699 -5.5 13.5v179c0 5.33301 -1.66699 9.83301 -5 13.5s-7.66602 5.5 -12.999 5.5h-198c-5.33301 0 -9.83301 -1.83301 -13.5 -5.5s-5.5 -8.16699 -5.5 -13.5v-179c0 -12.667 -6.33301 -19 -19 -19h-138c-12.667 0 -19 6.33301 -19 19v564c0 16 3 31.167 9 45.5
s14.333 26.666 25 36.999s23.167 18.666 37.5 24.999s29.5 9.5 45.5 9.5h354zM490.001 367v176h-235v-176h235z" />
    <glyph glyph-name="b" unicode="b" horiz-adv-x="743" 
d="M613 365c-3.33301 -4 -4.83203 -9.00391 -4.49902 -15.0039s2.16602 -10.667 5.49902 -14l42 -50c3.33301 -4 6.16602 -9.16699 8.49902 -15.5s3.5 -12.166 3.5 -17.499v-136c0 -16 -3.16699 -31.167 -9.5 -45.5s-14.666 -26.833 -24.999 -37.5s-22.666 -19 -36.999 -25
s-29.5 -9 -45.5 -9h-452c-12.667 0 -19 6.33301 -19 19v662c0 12.667 6.33301 19 19 19h452c16 0 31.167 -3.16699 45.5 -9.5s26.666 -14.666 36.999 -24.999s18.666 -22.666 24.999 -36.999s9.5 -29.5 9.5 -45.5v-130c0 -5.33301 -1.16699 -11.166 -3.5 -17.499
s-5.16602 -11.5 -8.49902 -15.5zM508.001 289.996h-269v-137h269v137zM508.001 547.996h-269v-125h269v125z" />
    <glyph glyph-name="c" unicode="c" horiz-adv-x="691" 
d="M272 530c-5.33301 0 -9.83301 -1.66699 -13.5 -5s-5.5 -7.66602 -5.5 -12.999v-324c0 -5.33301 1.83301 -9.66602 5.5 -12.999s8.16699 -5 13.5 -5h321c5.33301 0 9.83301 -1.83301 13.5 -5.5s5.5 -8.16699 5.5 -13.5v-132c0 -5.33301 -1.83301 -9.83301 -5.5 -13.5
s-8.16699 -5.5 -13.5 -5.5h-209h-172h-18c-16 0 -31.167 3 -45.5 9s-26.833 14.333 -37.5 25s-19 23.167 -25 37.5s-9 29.5 -9 45.5v18v73v233v65v77c0 16 3 31.167 9 45.5s14.333 26.666 25 36.999s23.167 18.666 37.5 24.999s29.5 9.5 45.5 9.5h18h381
c5.33301 0 9.83301 -1.83301 13.5 -5.5s5.5 -8.16699 5.5 -13.5v-132c0 -5.33301 -1.83301 -9.83301 -5.5 -13.5s-8.16699 -5.5 -13.5 -5.5h-321v0z" />
    <glyph glyph-name="d" unicode="d" horiz-adv-x="745" 
d="M551 700c16 0 31.167 -3.16895 45.5 -9.50195s26.666 -14.666 36.999 -24.999s18.666 -22.666 24.999 -36.999s9.5 -29.5 9.5 -45.5v-466c0 -16 -3.16699 -31.167 -9.5 -45.5s-14.666 -26.833 -24.999 -37.5s-22.666 -19 -36.999 -25s-29.5 -9 -45.5 -9h-452
c-12.667 -0 -19 6.33301 -19 19v662c0 12.667 6.33301 19 19 19h452zM256 169.998h235v360h-235v-360z" />
    <glyph glyph-name="e" unicode="e" horiz-adv-x="694" 
d="M596 700c5.33301 0 9.83301 -1.83398 13.5 -5.50098s5.5 -8.16699 5.5 -13.5v-57v-30v-39c0 -5.33301 -1.83301 -9.66602 -5.5 -12.999s-8.16699 -5 -13.5 -5h-71h-208h-56c-3.33301 0 -5 -1.66699 -5 -5v-109c0 -2.66699 1.66699 -4 5 -4h286
c5.33301 0 9.66602 -1.83301 12.999 -5.5s5 -8.16699 5 -13.5v-100c0 -5.33301 -1.66699 -9.83301 -5 -13.5s-7.66602 -5.5 -12.999 -5.5h-286c-3.33301 0 -5 -1.66699 -5 -5v-49v-1v-58c0 -3.33301 1.66699 -5 5 -5h42h226h67c5.33301 0 9.83301 -1.83301 13.5 -5.5
s5.5 -8.16699 5.5 -13.5v-40v-52v-33c0 -5.33301 -1.83301 -9.83301 -5.5 -13.5s-8.16699 -5.5 -13.5 -5.5h-57h-380h-60c-12.667 -0 -19 6.33301 -19 19v34v580v48c0 5.33301 1.83301 9.83301 5.5 13.5s8.16699 5.5 13.5 5.5h73h392h32v0z" />
    <glyph glyph-name="f" unicode="f" horiz-adv-x="635" 
d="M596 700c5.33301 0 9.83301 -1.83301 13.5 -5.5s5.5 -8.16699 5.5 -13.5v-132c0 -5.33301 -1.83301 -9.83301 -5.5 -13.5s-8.16699 -5.5 -13.5 -5.5h-335c-3.33301 0 -5 -1.33301 -5 -4v-119c0 -3.33301 1.66699 -5 5 -5h254c5.33301 0 9.66602 -1.83301 12.999 -5.5
s5 -8.16699 5 -13.5v-115c0 -5.33301 -1.66699 -9.83301 -5 -13.5s-7.66602 -5.5 -12.999 -5.5h-254c-3.33301 0 -5 -1.66699 -5 -5v-225c0 -12.667 -6.33301 -19 -19 -19h-138c-12.667 -0 -19 6.33301 -19 19v662c0 5.33301 1.83301 9.83301 5.5 13.5s8.16699 5.5 13.5 5.5
h497v0z" />
    <glyph glyph-name="g" unicode="g" horiz-adv-x="737" 
d="M647 382c5.33301 0 9.83203 -1.83203 13.499 -5.49902s5.5 -8.16699 5.5 -13.5v-246c0 -16 -3.16699 -31.167 -9.5 -45.5s-14.666 -26.833 -24.999 -37.5s-22.666 -19 -36.999 -25s-29.5 -9 -45.5 -9h-354c-16 0 -31.167 3 -45.5 9s-26.833 14.333 -37.5 25
s-19 23.167 -25 37.5s-9 29.5 -9 45.5v466c0 16 3 31.167 9 45.5s14.333 26.666 25 36.999s23.167 18.666 37.5 24.999s29.5 9.5 45.5 9.5h413c5.33301 0 9.83301 -1.83301 13.5 -5.5s5.5 -8.16699 5.5 -13.5v-132c0 -5.33301 -1.83301 -9.83301 -5.5 -13.5
s-8.16699 -5.5 -13.5 -5.5h-335c-5.33301 0 -9.83301 -1.66699 -13.5 -5s-5.5 -7.66602 -5.5 -12.999v-324c0 -5.33301 1.83301 -9.66602 5.5 -12.999s8.16699 -5 13.5 -5h198c5.33301 0 9.66602 1.66699 12.999 5s5 7.66602 5 12.999v175
c0 5.33301 1.83301 9.83301 5.5 13.5s8.16699 5.5 13.5 5.5h139v0z" />
    <glyph glyph-name="h" unicode="h" horiz-adv-x="747" 
d="M649 700c5.33301 0 9.83301 -1.83301 13.5 -5.5s5.5 -8.16699 5.5 -13.5v-662c0 -5.33301 -1.83301 -9.83301 -5.5 -13.5s-8.16699 -5.5 -13.5 -5.5h-139c-5.33301 -0 -9.83301 1.83301 -13.5 5.5s-5.5 8.16699 -5.5 13.5v231c0 5.33301 -1.66699 9.66602 -5 12.999
s-7.66602 5 -12.999 5h-198c-5.33301 0 -9.83301 -1.66699 -13.5 -5s-5.5 -7.66602 -5.5 -12.999v-231c0 -12.667 -6.33301 -19 -19 -19h-138c-12.667 -0 -19 6.33301 -19 19v662c0 12.667 6.33301 19 19 19h138c12.667 0 19 -6.33301 19 -19v-224
c0 -12.667 6.33301 -19 19 -19h198c5.33301 0 9.66602 1.83301 12.999 5.5s5 8.16699 5 13.5v224c0 5.33301 1.83301 9.83301 5.5 13.5s8.16699 5.5 13.5 5.5h139z" />
    <glyph glyph-name="i" unicode="i" horiz-adv-x="333" 
d="M256 19c0 -12.667 -6.33301 -19 -19 -19h-138c-12.667 -0 -19 6.33301 -19 19v662c0 12.667 6.33301 19 19 19h138c12.667 0 19 -6.33301 19 -19v-662z" />
    <glyph glyph-name="j" unicode="j" horiz-adv-x="635" 
d="M538 700c5.33301 0 9.83203 -1.83301 13.499 -5.5s5.5 -8.16699 5.5 -13.5v-564c0 -16 -3.16699 -31.167 -9.5 -45.5s-14.666 -26.833 -24.999 -37.5s-22.666 -19 -36.999 -25s-29.5 -9 -45.5 -9h-301c-16 0 -31.167 3 -45.5 9s-26.833 14.333 -37.5 25
s-19 23.167 -25 37.5s-9 29.5 -9 45.5v214c0 12.667 6.33301 19 19 19h138c12.667 0 19 -6.33301 19 -19v-143c0 -5.33301 1.83301 -9.66602 5.5 -12.999s8.16699 -5 13.5 -5h145c5.33301 0 9.83301 1.66699 13.5 5s5.5 7.66602 5.5 12.999v493
c0 5.33301 1.66699 9.83301 5 13.5s7.66602 5.5 12.999 5.5h139v0z" />
    <glyph glyph-name="k" unicode="k" horiz-adv-x="761" 
d="M478 405c-2 -2 -2.33496 -4.33398 -1.00195 -7.00098l234 -382c2.66699 -4.66699 3 -8.5 1 -11.5s-5.66699 -4.5 -11 -4.5h-166c-5.33301 0 -10.666 1.5 -15.999 4.5s-9.33301 6.83301 -12 11.5l-151 273c-2 3.33301 -3.66699 3.66602 -5 0.999023l-83 -91
c-3.33301 -3.33301 -6.16602 -8.16602 -8.49902 -14.499s-3.5 -12.166 -3.5 -17.499v-148c0 -12.667 -6.33301 -19 -19 -19h-138c-12.667 -0 -19 6.33301 -19 19v662c0 12.667 6.33301 19 19 19h138c12.667 0 19 -6.33301 19 -19v-297l258 302c3.33301 4 8 7.33301 14 10
s11.667 4 17 4h166c5.33301 0 8.5 -1.33301 9.5 -4s-0.166992 -6 -3.5 -10z" />
    <glyph glyph-name="l" unicode="l" horiz-adv-x="567" 
d="M531 170c5.33301 0 9.66602 -1.83398 12.999 -5.50098s5 -8.16699 5 -13.5v-132c0 -5.33301 -1.66699 -9.83301 -5 -13.5s-7.66602 -5.5 -12.999 -5.5h-432c-12.667 0 -19 6.33301 -19 19v662c0 12.667 6.33301 19 19 19h138c12.667 0 19 -6.33301 19 -19v-493
c0 -5.33301 1.83301 -9.66602 5.5 -12.999s8.16699 -5 13.5 -5h256z" />
    <glyph glyph-name="m" unicode="m" horiz-adv-x="958" 
d="M864 700c4 -1.33301 7.49902 -3.66602 10.499 -6.99902s4.5 -7.33301 4.5 -12v-662c0 -5.33301 -1.83301 -9.83301 -5.5 -13.5s-8.16699 -5.5 -13.5 -5.5h-134c-5.33301 0 -9.66602 1.83301 -12.999 5.5s-5 8.16699 -5 13.5v351l-70 -170l-26 -63l-23 -55.5l-16.5 -40.5
c-4.33301 -10.667 -6.83301 -16.334 -7.5 -17.001l-2 -7c-2 -4.66699 -5.5 -8.66699 -10.5 -12s-10.167 -5 -15.5 -5h-116c-5.33301 0 -10.5 1.66699 -15.5 5s-8.5 7.33301 -10.5 12l-3 7c-0.666992 0.666992 -3.16699 6.33398 -7.5 17.001l-16.5 40.5l-22.5 55.5l-25.5 63
l-69 170v-351c0 -12.667 -6.33301 -19 -19 -19h-133c-12.667 0 -19 6.33301 -19 19v662c0 7.33301 3 12.666 9 15.999c2 2 5 3 9 3h1h138h11c5.33301 0 10.5 -1.66699 15.5 -5s8.5 -7.33301 10.5 -12l205 -469l205 469c2 4.66699 5.5 8.66699 10.5 12s10.167 5 15.5 5h11
h139h1h3v0z" />
    <glyph glyph-name="n" unicode="n" horiz-adv-x="747" 
d="M649 700c5.33301 0 9.83301 -1.83301 13.5 -5.5s5.5 -8.16699 5.5 -13.5v-662c0 -5.33301 -1.83301 -9.83301 -5.5 -13.5s-8.16699 -5.5 -13.5 -5.5h-132h-12c-5.33301 0 -10.666 1.5 -15.999 4.5s-9.33301 6.83301 -12 11.5l-221 408v-405
c0 -12.667 -6.33301 -19 -19 -19h-138c-12.667 -0 -19 6.33301 -19 19v662c0 12.667 6.33301 19 19 19h142c5.33301 0 10.666 -1.5 15.999 -4.5s9.33301 -6.83301 12 -11.5l222 -409v406c0 5.33301 1.83301 9.83301 5.5 13.5s8.16699 5.5 13.5 5.5h139v0z" />
    <glyph glyph-name="o" unicode="o" horiz-adv-x="743" 
d="M549 700c16 0 31.167 -3.16699 45.5 -9.5s26.666 -14.666 36.999 -24.999s18.666 -22.666 24.999 -36.999s9.5 -29.5 9.5 -45.5v-466c0 -16 -3.16699 -31.167 -9.5 -45.5s-14.666 -26.833 -24.999 -37.5s-22.666 -19 -36.999 -25s-29.5 -9 -45.5 -9h-354
c-16 0 -31.167 3 -45.5 9s-26.833 14.333 -37.5 25s-19 23.167 -25 37.5s-9 29.5 -9 45.5v466c0 16 3 31.167 9 45.5s14.333 26.666 25 36.999s23.167 18.666 37.5 24.999s29.5 9.5 45.5 9.5h354zM489 530h-235v-360h235v360z" />
    <glyph glyph-name="p" unicode="p" horiz-adv-x="651" 
d="M498 700c16 0 31.167 -3.17188 45.5 -9.50488s26.666 -14.666 36.999 -24.999s18.666 -22.666 24.999 -36.999s9.5 -29.5 9.5 -45.5v-265c0 -16 -3.16699 -31.167 -9.5 -45.5s-14.666 -26.666 -24.999 -36.999s-22.666 -18.666 -36.999 -24.999s-29.5 -9.5 -45.5 -9.5
h-223c-5.33301 0 -9.83301 -1.66699 -13.5 -5s-5.5 -7.66602 -5.5 -12.999v-164c0 -12.667 -6.33301 -19 -19 -19h-138c-12.667 -0 -19 6.33301 -19 19v662c0 12.667 6.33301 19 19 19h399zM445 363.995v177h-195v-177h195z" />
    <glyph glyph-name="q" unicode="q" horiz-adv-x="721" 
d="M533 700c16 0 31.1689 -3.16699 45.502 -9.5s26.666 -14.666 36.999 -24.999s18.666 -22.666 24.999 -36.999s9.5 -29.5 9.5 -45.5v-466c0 -16 -3 -31 -9 -45s-14.167 -26.333 -24.5 -37s-22.333 -19 -36 -25s-28.5 -9.33301 -44.5 -10h-19
c-2.66699 0 -3.33398 -1.33301 -2.00098 -4l54 -94c2.66699 -4.66699 3.16699 -8.5 1.5 -11.5s-5.16699 -4.5 -10.5 -4.5h-166c-5.33301 0 -10.666 1.5 -15.999 4.5s-9.33301 6.83301 -12 11.5l-54 94c-2.66699 2.66699 -5 4 -7 4h-126c-16 0 -31.167 3 -45.5 9
s-26.833 14.333 -37.5 25s-19 23.167 -25 37.5s-9 29.5 -9 45.5v466c0 16 3 31.167 9 45.5s14.333 26.666 25 36.999s23.167 18.666 37.5 24.999s29.5 9.5 45.5 9.5h354zM238.002 163h235v367h-235v-367z" />
    <glyph glyph-name="r" unicode="r" horiz-adv-x="762" 
d="M690 16c2.66699 -4.66699 3 -8.50391 1 -11.5039s-5.66699 -4.5 -11 -4.5h-159c-5.33301 0 -10.666 1.5 -15.999 4.5s-9.33301 6.83301 -12 11.5l-106 190c-1.33301 2.66699 -3.66602 4 -6.99902 4h-119c-3.33301 0 -5 -1.66699 -5 -5v-186
c0 -12.667 -6.33301 -19 -19 -19h-138c-12.667 0 -19 6.33301 -19 19v662c0 12.667 6.33301 19 19 19h452c16 0 31.167 -3.16699 45.5 -9.5s26.666 -14.666 36.999 -24.999s18.666 -22.666 24.999 -36.999s9.5 -29.5 9.5 -45.5v-263c0 -25.333 -7.5 -48.166 -22.5 -68.499
s-34.167 -34.166 -57.5 -41.499l-3 -1c-4.66699 -1.33301 -5.66699 -3.33301 -3 -6l1 -2zM491 536.996h-241v-170h241v170z" />
    <glyph glyph-name="s" unicode="s" horiz-adv-x="684" 
d="M495 421c16 0 31.167 -2.99805 45.5 -8.99805s26.666 -14.333 36.999 -25s18.666 -23 24.999 -37s9.5 -29 9.5 -45v-188c0 -16 -3.16699 -31.167 -9.5 -45.5s-14.666 -26.833 -24.999 -37.5s-22.666 -19 -36.999 -25s-29.5 -9 -45.5 -9h-399
c-12.667 0 -19 6.33301 -19 19v121c0 5.33301 1.83301 9.83301 5.5 13.5s8.16699 5.5 13.5 5.5h340c5.33301 0 9.83301 1.66699 13.5 5s5.5 7.66602 5.5 12.999v83c0 5.33301 -1.83301 9.83301 -5.5 13.5s-8.16699 5.5 -13.5 5.5h-242c-16 0 -31.167 3 -45.5 9
s-26.833 14.333 -37.5 25s-19 23 -25 37s-9 29 -9 45v188c0 16 3 31.167 9 45.5s14.333 26.666 25 36.999s23.167 18.666 37.5 24.999s29.5 9.5 45.5 9.5h377c12.667 0 19 -6.33301 19 -19v-123c0 -5.33301 -1.83301 -9.66602 -5.5 -12.999s-8.16699 -5 -13.5 -5h-319
c-5.33301 0 -9.66602 -1.83301 -12.999 -5.5s-5 -8.16699 -5 -13.5v-81c0 -5.33301 1.66699 -9.83301 5 -13.5s7.66602 -5.5 12.999 -5.5h243v0z" />
    <glyph glyph-name="t" unicode="t" horiz-adv-x="615" 
d="M575 549c0 -5.33301 -1.83496 -9.83301 -5.50195 -13.5s-8.16699 -5.5 -13.5 -5.5h-142c-5.33301 0 -9.83301 -1.66699 -13.5 -5s-5.5 -7.66602 -5.5 -12.999v-493c0 -5.33301 -1.66699 -9.83301 -5 -13.5s-7.66602 -5.5 -12.999 -5.5h-139
c-5.33301 0 -9.83301 1.83301 -13.5 5.5s-5.5 8.16699 -5.5 13.5v493c0 5.33301 -1.66699 9.66602 -5 12.999s-7.66602 5 -12.999 5h-142c-5.33301 0 -9.83301 1.83301 -13.5 5.5s-5.5 8.16699 -5.5 13.5v132c0 12.667 6.33301 19 19 19h142h37h139h37h142
c5.33301 0 9.83301 -1.83301 13.5 -5.5s5.5 -8.16699 5.5 -13.5v-132z" />
    <glyph glyph-name="u" unicode="u" horiz-adv-x="745" 
d="M648 700c5.33301 0 9.83203 -1.83301 13.499 -5.5s5.5 -8.16699 5.5 -13.5v-564c0 -16 -3.16699 -31.167 -9.5 -45.5s-14.666 -26.833 -24.999 -37.5s-22.666 -19 -36.999 -25s-29.5 -9 -45.5 -9h-354c-16 0 -31.167 3 -45.5 9s-26.833 14.333 -37.5 25
s-19 23.167 -25 37.5s-9 29.5 -9 45.5v564c0 12.667 6.33301 19 19 19h138c12.667 0 19 -6.33301 19 -19v-493c0 -5.33301 1.83301 -9.66602 5.5 -12.999s8.16699 -5 13.5 -5h198c5.33301 0 9.66602 1.66699 12.999 5s5 7.66602 5 12.999v493
c0 5.33301 1.83301 9.83301 5.5 13.5s8.16699 5.5 13.5 5.5h139v0z" />
    <glyph glyph-name="v" unicode="v" horiz-adv-x="737" 
d="M680 700c5.33301 0 9.16992 -1.66699 11.5029 -5s2.83301 -7.66602 1.5 -12.999l-208 -664c-1.33301 -5.33301 -4.33301 -9.66602 -9 -12.999s-9.66699 -5 -15 -5h-186c-5.33301 0 -10.333 1.66699 -15 5s-7.66699 7.66602 -9 12.999l-207 664
c-1.33301 5.33301 -0.833008 9.66602 1.5 12.999s6.16602 5 11.499 5h150c5.33301 0 10.333 -1.66699 15 -5s7.66699 -7.66602 9 -12.999l137 -493l138 493c1.33301 5.33301 4.16602 9.66602 8.49902 12.999s9.16602 5 14.499 5h151v0z" />
    <glyph glyph-name="w" unicode="w" horiz-adv-x="1038" 
d="M990 700c5.33301 0 9.16797 -1.66699 11.501 -5s2.83301 -7.66602 1.5 -12.999l-195 -664c-1.33301 -5.33301 -4.33301 -9.66602 -9 -12.999s-9.66699 -5 -15 -5h-9h-102h-10c-5.33301 0 -10 1.66699 -14 5s-6.66699 7.66602 -8 12.999l-120 472l-120 -472
c-1.33301 -5.33301 -4.16602 -9.66602 -8.49902 -12.999s-9.16602 -5 -14.499 -5h-9h-102h-10c-5.33301 0 -10.166 1.66699 -14.499 5s-7.16602 7.66602 -8.49902 12.999l-195 664c-1.33301 5.33301 -0.833008 9.66602 1.5 12.999s6.16602 5 11.499 5h144
c5.33301 0 10.166 -1.66699 14.499 -5s7.16602 -7.66602 8.49902 -12.999l98 -420l119 420c2 9.33301 8.33301 15.333 19 18h4h124h4c10.667 -2.66699 17 -8.66699 19 -18l119 -420l98 420c1.33301 5.33301 4.16602 9.66602 8.49902 12.999s9.16602 5 14.499 5h144v0z" />
    <glyph glyph-name="x" unicode="x" horiz-adv-x="763" 
d="M715 16c3.33301 -4.66699 4 -8.5 2 -11.5s-5.66699 -4.5 -11 -4.5h-150c-5.33301 0 -10.666 1.5 -15.999 4.5s-9.33301 6.83301 -12 11.5l-146 209l-147 -209c-2.66699 -4.66699 -6.66699 -8.5 -12 -11.5s-10.666 -4.5 -15.999 -4.5h-150c-5.33301 0 -9 1.5 -11 4.5
s-1.33301 6.83301 2 11.5l215 329c2.66699 4.66699 4 10 4 16s-1.33301 11.333 -4 16l-202 307c-3.33301 4.66699 -4 8.5 -2 11.5s5.66699 4.5 11 4.5h150c5.33301 0 10.666 -1.5 15.999 -4.5s9.33301 -6.83301 12 -11.5l134 -188l133 188
c2.66699 4.66699 6.66699 8.5 12 11.5s10.666 4.5 15.999 4.5h150c5.33301 0 9 -1.5 11 -4.5s1.33301 -6.83301 -2 -11.5l-202 -307c-2.66699 -4.66699 -4 -10 -4 -16s1.33301 -11.333 4 -16l215 -329v0z" />
    <glyph glyph-name="y" unicode="y" horiz-adv-x="717" 
d="M670 700c5.33301 0 9.00195 -1.5 11.002 -4.5s1.66699 -6.83301 -1 -11.5l-225 -408c-2.66699 -4.66699 -4.83398 -10.334 -6.50098 -17.001s-2.5 -12.667 -2.5 -18v-222c0 -5.33301 -1.66699 -9.83301 -5 -13.5s-7.66602 -5.5 -12.999 -5.5h-139
c-5.33301 0 -9.83301 1.83301 -13.5 5.5s-5.5 8.16699 -5.5 13.5v222c0 5.33301 -0.833008 11.333 -2.5 18s-3.83398 12.334 -6.50098 17.001l-224 408c-2.66699 4.66699 -3 8.5 -1 11.5s5.66699 4.5 11 4.5h150c5.33301 0 10.5 -1.5 15.5 -4.5s8.83301 -6.83301 11.5 -11.5
l134 -263l134 263c2.66699 4.66699 6.66699 8.5 12 11.5s10.666 4.5 15.999 4.5h150v0z" />
    <glyph glyph-name="z" unicode="z" horiz-adv-x="692" 
d="M613 555c0 -5.33301 -1.33203 -10.999 -3.99902 -16.999s-5.66699 -11 -9 -15l-325 -366h319c5.33301 0 9.83301 -1.83301 13.5 -5.5s5.5 -8.16699 5.5 -13.5v-119c0 -5.33301 -1.83301 -9.83301 -5.5 -13.5s-8.16699 -5.5 -13.5 -5.5h-497c-12.667 0 -19 6.33301 -19 19
v125c0 5.33301 1.16699 11.166 3.5 17.499s5.16602 11.5 8.49902 15.5l332 366h-319c-5.33301 0 -9.83301 1.83301 -13.5 5.5s-5.5 8.16699 -5.5 13.5v119c0 5.33301 1.83301 9.83301 5.5 13.5s8.16699 5.5 13.5 5.5h491c5.33301 0 9.83301 -1.83301 13.5 -5.5
s5.5 -8.16699 5.5 -13.5v-126z" />
    <glyph glyph-name="braceleft" unicode="{" horiz-adv-x="466" 
d="M36 362c-0.666992 3.33301 -0.667969 5.99902 -0.000976562 7.99902s1.66699 4 3 6s2.33301 4 3 6l10 12.5c3.33301 4.33301 6 7.5 8 9.5l7 10c3.33301 4.66699 6.66602 9 9.99902 13l4 4c3.33301 4 6.66602 8.83301 9.99902 14.5s6 10.5 8 14.5s3.66699 11.167 5 21.5
s2 18.166 2 23.499v196v7v11v12v7v45v18v8v8c0 16 3.16699 31.167 9.5 45.5s14.666 26.666 24.999 36.999s22.666 18.666 36.999 24.999s29.5 9.5 45.5 9.5h15h15h19h7h18h19h45h18c5.33301 0 9.83301 -1.83301 13.5 -5.5s5.5 -8.16699 5.5 -13.5v-19v-87v-19
c0 -5.33301 -1.83301 -9.66602 -5.5 -12.999s-8.16699 -5 -13.5 -5h-18h-68c-5.33301 0 -9.66602 -1.83301 -12.999 -5.5s-5 -8.16699 -5 -13.5v-806c0 -5.33301 1.66699 -9.66602 5 -12.999s7.66602 -5 12.999 -5h68h18c5.33301 0 9.83301 -1.83301 13.5 -5.5
s5.5 -8.16699 5.5 -13.5v-19v-87v-19c0 -5.33301 -1.83301 -9.66602 -5.5 -12.999s-8.16699 -5 -13.5 -5h-18h-45h-19h-18h-7h-19h-15h-15c-16 0 -31.167 3 -45.5 9s-26.666 14.333 -36.999 25s-18.666 23 -24.999 37s-9.5 29 -9.5 45v15v14v19v44v19v18v14v7v12v11v7v160
c0 5.33301 -0.166992 11.333 -0.5 18s-1.16602 12 -2.49902 16s-4.33301 10 -9 18s-8 13.333 -10 16l-6 7l-2 2c-1.33301 0.666992 -3.33301 3 -6 7c-1.33301 2 -2.66602 3.66699 -3.99902 5l-2 2c-0.666992 1.33301 -2 3 -4 5l-5 6c-3.33301 3.33301 -6 7 -8 11
c-0.666992 0.666992 -1.16699 1.33398 -1.5 2.00098s-0.833008 1.33398 -1.5 2.00098c-1.33301 1.33301 -2.66602 3.33301 -3.99902 6c-2.66699 5.33301 -4 10.666 -4 15.999z" />
    <glyph glyph-name="bar" unicode="|" horiz-adv-x="325" 
d="M248 -101c0 -5.33301 -1.66699 -9.66602 -5 -12.999s-7.66602 -5 -12.999 -5h-131c-5.33301 0 -9.83301 1.66699 -13.5 5s-5.5 7.66602 -5.5 12.999v898c0 5.33301 1.83301 9.66602 5.5 12.999s8.16699 5 13.5 5h131c5.33301 0 9.66602 -1.66699 12.999 -5
s5 -7.66602 5 -12.999v-898z" />
    <glyph glyph-name="braceright" unicode="}" horiz-adv-x="469" 
d="M432 362c-1.33301 -7.33301 -2.66895 -12.666 -4.00195 -15.999c-1.33301 -2.66699 -2.66602 -4.66699 -3.99902 -6c-0.666992 -0.666992 -1.16699 -1.33398 -1.5 -2.00098s-0.833008 -1.33398 -1.5 -2.00098c-2 -4 -4.66699 -7.66699 -8 -11l-5 -6
c-2 -2 -3.33301 -3.66699 -4 -5l-2 -2c-1.33301 -1.33301 -2.66602 -3 -3.99902 -5c-1.33301 -1.33301 -2.5 -2.66602 -3.5 -3.99902s-1.83301 -2.33301 -2.5 -3l-2 -2l-6 -7c-2 -2.66699 -5.33301 -8 -10 -16s-7.66699 -14 -9 -18s-2.16602 -9.33301 -2.49902 -16
s-0.5 -12.667 -0.5 -18v-160v-7v-11v-12v-7v-14v-18v-19v-44v-19v-14v-15c0 -16 -3.16699 -31 -9.5 -45s-14.666 -26.333 -24.999 -37s-22.666 -19 -36.999 -25s-29.5 -9 -45.5 -9h-15h-15h-19h-7h-18h-19h-45h-18c-5.33301 0 -9.83301 1.66699 -13.5 5
s-5.5 7.66602 -5.5 12.999v19v87v19c0 5.33301 1.83301 9.83301 5.5 13.5s8.16699 5.5 13.5 5.5h18h68c5.33301 0 9.83301 1.66699 13.5 5s5.5 7.66602 5.5 12.999v806c0 5.33301 -1.83301 9.83301 -5.5 13.5s-8.16699 5.5 -13.5 5.5h-68h-18
c-5.33301 0 -9.83301 1.66699 -13.5 5s-5.5 7.66602 -5.5 12.999v19v87v19c0 5.33301 1.83301 9.83301 5.5 13.5s8.16699 5.5 13.5 5.5h18h45h19h18h7h19h15h15c16 0 31.167 -3.16699 45.5 -9.5s26.666 -14.666 36.999 -24.999s18.666 -22.666 24.999 -36.999
s9.5 -29.5 9.5 -45.5v-8v-8v-18v-45v-7v-12v-11v-7v-196c0 -5.33301 0.666992 -13.166 2 -23.499s3 -17.5 5 -21.5s4.83301 -8.83301 8.5 -14.5s7.16699 -10.5 10.5 -14.5l3 -4c3.33301 -4 6.66602 -8.33301 9.99902 -13l7 -10c2 -2 4.83301 -5.16699 8.5 -9.5l10.5 -12.5
c1.33301 -2 2.33301 -4 3 -6s1.16699 -4 1.5 -6s0.5 -4.66699 0.5 -8z" />
    <glyph glyph-name="asciitilde" unicode="~" horiz-adv-x="361" 
d="M323 862c2.66699 -2.66699 4.00195 -6.00098 4.00195 -10.001l-3 -24c-1.33301 -7.33301 -5.33301 -12.666 -12 -15.999l-8 -3l-134 -59c-2.66699 -1.33301 -4.66699 -2 -6 -2s-2.33301 0.333008 -3 1c-4 0 -7 1.33301 -9 4c-2.66699 2.66699 -3.66699 6 -3 10l4 34
l-101 -26c-0.666992 -0.666992 -2 -1 -4 -1c-4 0 -7.33301 1.33301 -10 4c-3.33301 3.33301 -4.33301 7 -3 11l3 23c0 3.33301 1.16699 6.5 3.5 9.5s5.16602 5.16699 8.49902 6.5l7 4l134 59c1.33301 0.666992 3.33301 1 6 1h3c2.66699 0 6 -1.33301 10 -4
c2 -3.33301 3 -7 3 -11l-5 -34l102 27c0.666992 0 1.16699 0.166992 1.5 0.5s1.16602 0.5 2.49902 0.5c4 0 7 -1.66699 9 -5z" />
    <glyph glyph-name="exclamdown" unicode="&#xa1;" horiz-adv-x="330" 
d="M253 542c0 -5.33301 -1.83301 -9.66602 -5.5 -12.999s-8.16699 -5 -13.5 -5h-138c-5.33301 0 -9.83301 1.66699 -13.5 5s-5.5 7.66602 -5.5 12.999v139c0 12.667 6.33301 19 19 19h138c12.667 0 19 -6.33301 19 -19v-139zM252 19
c0.666992 -5.33301 -0.833008 -9.83301 -4.5 -13.5s-8.16699 -5.5 -13.5 -5.5h-138c-5.33301 -0 -9.83301 1.83301 -13.5 5.5s-5.16699 8.16699 -4.5 13.5l18 436c0 5.33301 1.83301 9.83301 5.5 13.5s8.16699 5.5 13.5 5.5h100c5.33301 0 9.83301 -1.83301 13.5 -5.5
s5.5 -8.16699 5.5 -13.5z" />
    <glyph glyph-name="sterling" unicode="&#xa3;" horiz-adv-x="567" 
d="M531 170c5.33301 0 9.66602 -1.83398 12.999 -5.50098s5 -8.16699 5 -13.5v-132c0 -5.33301 -1.66699 -9.83301 -5 -13.5s-7.66602 -5.5 -12.999 -5.5h-432c-12.667 0 -19 6.33301 -19 19v662c0 12.667 6.33301 19 19 19h138c12.667 0 19 -6.33301 19 -19v-493
c0 -5.33301 1.83301 -9.66602 5.5 -12.999s8.16699 -5 13.5 -5h256z" />
    <glyph glyph-name="currency" unicode="&#xa4;" 
 />
    <glyph glyph-name="yen" unicode="&#xa5;" horiz-adv-x="671" 
d="M598 700c5.33301 0 9.83105 -1.83301 13.498 -5.5s5.5 -8.16699 5.5 -13.5v-357c0 -16 -3.16699 -31.167 -9.5 -45.5s-14.666 -26.666 -24.999 -36.999s-22.666 -18.666 -36.999 -24.999s-29.5 -9.5 -45.5 -9.5h-76v-188c0 -5.33301 -1.83301 -9.83301 -5.5 -13.5
s-8.16699 -5.5 -13.5 -5.5h-139c-5.33301 0 -9.66602 1.83301 -12.999 5.5s-5 8.16699 -5 13.5v188h-76c-16 0 -31.167 3.16699 -45.5 9.5s-26.833 14.666 -37.5 24.999s-19 22.666 -25 36.999s-9 29.5 -9 45.5v357c0 12.667 6.33301 19 19 19h132
c5.33301 0 9.83301 -1.83301 13.5 -5.5s5.5 -8.16699 5.5 -13.5v-298c0 -5.33301 1.66699 -9.83301 5 -13.5s7.66602 -5.5 12.999 -5.5h185c12.667 0 19 6.33301 19 19v298c0 12.667 6.33301 19 19 19h132v0z" />
    <glyph glyph-name="brokenbar" unicode="&#xa6;" 
 />
    <glyph glyph-name="section" unicode="&#xa7;" 
 />
    <glyph glyph-name="dieresis" unicode="&#xa8;" horiz-adv-x="400" 
d="M280 860c14 0 25.833 -5 35.5 -15s14.5 -22 14.5 -36c0 -13.333 -4.83301 -25 -14.5 -35s-21.5 -15 -35.5 -15s-25.833 5 -35.5 15s-14.5 21.667 -14.5 35c0 14 4.83301 26 14.5 36s21.5 15 35.5 15zM120 860c14 0 25.833 -5 35.5 -15s14.5 -22 14.5 -36
c0 -13.333 -4.83301 -25 -14.5 -35s-21.5 -15 -35.5 -15s-25.833 5 -35.5 15s-14.5 21.667 -14.5 35c0 14 4.83301 26 14.5 36s21.5 15 35.5 15z" />
    <glyph glyph-name="copyright" unicode="&#xa9;" horiz-adv-x="430" 
d="M398 467c5.33301 0 8.83203 -1.5 10.499 -4.5s1.16699 -6.83301 -1.5 -11.5l-127 -218l-119 -201l-9 -16c-2.66699 -4.66699 -6.66699 -8.5 -12 -11.5s-10.666 -4.5 -15.999 -4.5h-19h-31h-19c-5.33301 0 -9 1.66699 -11 5s-2 7.33301 0 12l144 349
c2 4.66699 1.83301 8.66699 -0.5 12s-6.16602 5 -11.499 5h-105h-18c-5.33301 0 -9 1.5 -11 4.5s-1.66699 6.83301 1 11.5l9 17l70 125l78 143c2.66699 4 6.66699 7.66699 12 11s10.666 5 15.999 5h75h57h19c5.33301 0 8.83301 -1.5 10.5 -4.5s1.16699 -6.83301 -1.5 -11.5
l-61 -109l-53 -92c-2.66699 -4.66699 -3 -8.5 -1 -11.5s5.66699 -4.5 11 -4.5h95h19v0z" />
    <glyph glyph-name="guillemotleft" unicode="&#xab;" 
 />
    <glyph glyph-name="registered" unicode="&#xae;" 
 />
    <glyph glyph-name="degree" unicode="&#xb0;" 
 />
    <glyph glyph-name="plusminus" unicode="&#xb1;" 
 />
    <glyph glyph-name="twosuperior" unicode="&#xb2;" 
 />
    <glyph glyph-name="threesuperior" unicode="&#xb3;" 
 />
    <glyph glyph-name="acute" unicode="&#xb4;" horiz-adv-x="291" 
d="M63 760c-5.33301 -1.33301 -10.501 -0.833984 -15.501 1.49902s-8.5 6.16602 -10.5 11.499l-8 20c-2 4.66699 -2.16699 9.5 -0.5 14.5s4.83398 9.16699 9.50098 12.5l156 96c4.66699 2.66699 9.16699 3.33398 13.5 2.00098s7.5 -4.66602 9.5 -9.99902l36 -88
c1.33301 -4.66699 1 -9 -1 -13s-5.66699 -6.66699 -11 -8z" />
    <glyph glyph-name="cedilla" unicode="&#xb8;" horiz-adv-x="209" 
d="M63 -185c-5.33301 0 -9 1.99902 -11 5.99902c-3.33301 3.33301 -3.66602 7.33301 -0.999023 12l37 92h-32c-5.33301 0 -9.33301 2 -12 6c-2.66699 4.66699 -2.33398 9 0.999023 13l50 91c1.33301 3.33301 3.66602 5.83301 6.99902 7.5s6.66602 2.5 9.99902 2.5l49 1
c4.66699 0 8.33398 -2.33301 11.001 -7c2 -4 2 -8.33301 0 -13l-32 -55h27c4.66699 0 8.33398 -2.33301 11.001 -7c2 -3.33301 2 -7.66602 0 -12.999l-73 -121l-3 -5c-3.33301 -6.66699 -9 -10 -17 -10h-22z" />
    <glyph glyph-name="onequarter" unicode="&#xbc;" horiz-adv-x="1666" 
 />
    <glyph glyph-name="onehalf" unicode="&#xbd;" horiz-adv-x="1666" 
 />
    <glyph glyph-name="threequarters" unicode="&#xbe;" horiz-adv-x="1666" 
 />
    <glyph glyph-name="questiondown" unicode="&#xbf;" horiz-adv-x="538" 
d="M251 681c0 5.33301 1.66699 9.83301 5 13.5s7.66602 5.5 12.999 5.5h139c5.33301 0 9.83301 -1.83301 13.5 -5.5s5.5 -8.16699 5.5 -13.5v-139c0 -5.33301 -1.83301 -9.66602 -5.5 -12.999s-8.16699 -5 -13.5 -5h-139c-5.33301 0 -9.66602 1.66699 -12.999 5
s-5 7.66602 -5 12.999v139zM162 0l292 0.000976562c5.33301 0 9.66602 1.83301 12.999 5.5s5 8.16699 5 13.5v132c0 5.33301 -1.66699 9.83301 -5 13.5s-7.66602 5.5 -12.999 5.5h-214c-5.33301 0 -9.83301 1.66699 -13.5 5s-5.5 7.66602 -5.5 12.999v111
c0 5.33301 1.83301 9.83301 5.5 13.5s8.16699 5.5 13.5 5.5h168c5.33301 0 9.83301 1.83301 13.5 5.5s5.5 8.16699 5.5 13.5v119c0 5.33301 -1.83301 9.66602 -5.5 12.999s-8.16699 5 -13.5 5h-344c-5.33301 0 -9.83301 -1.66699 -13.5 -5s-5.5 -7.66602 -5.5 -12.999v-339
c0 -16 3 -31.167 9 -45.5s14.333 -26.833 25 -37.5s23.167 -19 37.5 -25s29.5 -9 45.5 -9z" />
    <glyph glyph-name="Agrave" unicode="&#xc0;" horiz-adv-x="701" 
d="M529 700c16 0 31.168 -3.16699 45.501 -9.5s26.666 -14.666 36.999 -24.999s18.666 -22.666 24.999 -36.999s9.5 -29.5 9.5 -45.5v-564c0 -5.33301 -1.83301 -9.83301 -5.5 -13.5s-8.16699 -5.5 -13.5 -5.5h-139c-5.33301 0 -9.83301 1.83301 -13.5 5.5
s-5.5 8.16699 -5.5 13.5v179c0 5.33301 -1.66699 9.66602 -5 12.999s-7.66602 5 -12.999 5h-198c-5.33301 0 -9.83301 -1.66699 -13.5 -5s-5.5 -7.66602 -5.5 -12.999v-179c0 -12.667 -6.33301 -19 -19 -19h-138c-12.667 0 -19 6.33301 -19 19v564c0 16 3 31.167 9 45.5
s14.333 26.666 25 36.999s23.167 18.666 37.5 24.999s29.5 9.5 45.5 9.5h354zM469.001 367v176h-235v-176h235zM251.001 800c-5.33301 1.33301 -9.00098 4.00391 -11.001 8.00391s-2 8.66699 0 14l36 87c1.33301 5.33301 4.33301 8.66602 9 9.99902s9 0.666016 13 -2.00098
l156 -96c4.66699 -2.66699 7.83398 -6.66699 9.50098 -12s1.5 -10.333 -0.5 -15l-8 -20c-2 -4.66699 -5.33301 -8.33398 -10 -11.001s-9.66699 -3.33398 -15 -2.00098z" />
    <glyph glyph-name="Aacute" unicode="&#xc1;" horiz-adv-x="702" 
d="M527 700h-354.001c-16 0 -31.167 -3.16699 -45.5 -9.5s-26.833 -14.666 -37.5 -24.999s-19 -22.666 -25 -36.999s-9 -29.5 -9 -45.5v-564c0 -12.667 6.33301 -19 19 -19h138c12.667 0 19 6.33301 19 19v179c0 5.33301 1.83301 9.66602 5.5 12.999s8.16699 5 13.5 5h198
c5.33301 0 9.66602 -1.66699 12.999 -5s5 -7.66602 5 -12.999v-179c0 -5.33301 1.83301 -9.83301 5.5 -13.5s8.16699 -5.5 13.5 -5.5h139c5.33301 0 9.83301 1.83301 13.5 5.5s5.5 8.16699 5.5 13.5v564c0 16 -3.16699 31.167 -9.5 45.5s-14.666 26.666 -24.999 36.999
s-22.666 18.666 -36.999 24.999s-29.5 9.5 -45.5 9.5zM231.999 367v176h235v-176h-235zM270.999 760c-5.33301 -1.33301 -10.334 -0.833984 -15.001 1.49902s-8 6.16602 -10 11.499l-8 20c-2 4.66699 -2.16699 9.5 -0.5 14.5s4.83398 9.16699 9.50098 12.5l156 96
c4.66699 2.66699 9.16699 3.33398 13.5 2.00098s7.5 -4.66602 9.5 -9.99902l35 -88c2 -4.66699 2 -9 0 -13s-5.66699 -6.66699 -11 -8z" />
    <glyph glyph-name="Acircumflex" unicode="&#xc2;" horiz-adv-x="713" 
d="M534 700c16 0 31.168 -3.16699 45.501 -9.5s26.666 -14.666 36.999 -24.999s18.666 -22.666 24.999 -36.999s9.5 -29.5 9.5 -45.5v-564c0 -5.33301 -1.83301 -9.83301 -5.5 -13.5s-8.16699 -5.5 -13.5 -5.5h-139c-5.33301 0 -9.83301 1.83301 -13.5 5.5
s-5.5 8.16699 -5.5 13.5v179c0 5.33301 -1.66699 9.66602 -5 12.999s-7.66602 5 -12.999 5h-198c-5.33301 0 -9.83301 -1.66699 -13.5 -5s-5.5 -7.66602 -5.5 -12.999v-179c0 -12.667 -6.33301 -19 -19 -19h-138c-12.667 0 -19 6.33301 -19 19v564c0 16 3 31.167 9 45.5
s14.333 26.666 25 36.999s23.167 18.666 37.5 24.999s29.5 9.5 45.5 9.5h354zM474.001 367v176h-235v-176h235zM529.001 774c-1.33301 -4.66699 -4.33301 -8 -9 -10s-9.66699 -2.33301 -15 -1l-131 45c-4.66699 2 -10.334 3 -17.001 3s-12.667 -1 -18 -3l-130 -45
c-5.33301 -1.33301 -10.333 -1 -15 1s-8 5.33301 -10 10l-8 20c-2 4.66699 -2.16699 9.66699 -0.5 15s4.83398 9.33301 9.50098 12l156 96c4.66699 2.66699 10 4 16 4s11.333 -1.33301 16 -4l156 -96c4 -2.66699 6.83301 -6.66699 8.5 -12s1.5 -10.333 -0.5 -15z" />
    <glyph glyph-name="Atilde" unicode="&#xc3;" horiz-adv-x="709" 
d="M532 700c16 0 31.168 -3.16699 45.501 -9.5s26.666 -14.666 36.999 -24.999s18.666 -22.666 24.999 -36.999s9.5 -29.5 9.5 -45.5v-564c0 -5.33301 -1.83301 -9.83301 -5.5 -13.5s-8.16699 -5.5 -13.5 -5.5h-139c-5.33301 0 -9.83301 1.83301 -13.5 5.5
s-5.5 8.16699 -5.5 13.5v179c0 5.33301 -1.66699 9.66602 -5 12.999s-7.66602 5 -12.999 5h-198c-5.33301 0 -9.83301 -1.66699 -13.5 -5s-5.5 -7.66602 -5.5 -12.999v-179c0 -12.667 -6.33301 -19 -19 -19h-138c-12.667 0 -19 6.33301 -19 19v564c0 16 3 31.167 9 45.5
s14.333 26.666 25 36.999s23.167 18.666 37.5 24.999s29.5 9.5 45.5 9.5h354zM472.001 367v176h-235v-176h235zM497.001 862c2.66699 -2.66699 4.00195 -6.00098 4.00195 -10.001l-3 -24c-1.33301 -7.33301 -5.33301 -12.666 -12 -15.999l-8 -3l-134 -59
c-2.66699 -1.33301 -4.66699 -2 -6 -2s-2.33301 0.333008 -3 1c-4 0 -7 1.33301 -9 4c-2.66699 2.66699 -3.66699 6 -3 10l4 34l-101 -26c-0.666992 -0.666992 -2 -1 -4 -1c-4 0 -7.33301 1.33301 -10 4c-3.33301 3.33301 -4.33301 7 -3 11l3 23
c0 3.33301 1.16699 6.5 3.5 9.5s5.16602 5.16699 8.49902 6.5l7 4l134 59c1.33301 0.666992 3.33301 1 6 1h3c2.66699 0 6 -1.33301 10 -4c2 -3.33301 3 -7 3 -11l-5 -34l102 27c0.666992 0 1.16699 0.166992 1.5 0.5s1.16602 0.5 2.49902 0.5c4 0 7 -1.66699 9 -5z" />
    <glyph glyph-name="Adieresis" unicode="&#xc4;" horiz-adv-x="710" 
d="M532 700c16 0 31.168 -3.16699 45.501 -9.5s26.666 -14.666 36.999 -24.999s18.666 -22.666 24.999 -36.999s9.5 -29.5 9.5 -45.5v-564c0 -5.33301 -1.83301 -9.83301 -5.5 -13.5s-8.16699 -5.5 -13.5 -5.5h-139c-5.33301 0 -9.83301 1.83301 -13.5 5.5
s-5.5 8.16699 -5.5 13.5v179c0 5.33301 -1.66699 9.66602 -5 12.999s-7.66602 5 -12.999 5h-198c-5.33301 0 -9.83301 -1.66699 -13.5 -5s-5.5 -7.66602 -5.5 -12.999v-179c0 -12.667 -6.33301 -19 -19 -19h-138c-12.667 0 -19 6.33301 -19 19v564c0 16 3 31.167 9 45.5
s14.333 26.666 25 36.999s23.167 18.666 37.5 24.999s29.5 9.5 45.5 9.5h354zM472.001 367v176h-235v-176h235zM435.001 860c13.333 0 25 -5 35 -15s15 -22 15 -36c0 -13.333 -5 -25 -15 -35s-21.667 -15 -35 -15c-14 0 -26 5 -36 15s-15 21.667 -15 35c0 14 5 26 15 36
s22 15 36 15zM275.001 860c13.333 0 25 -5 35 -15s15 -22 15 -36c0 -13.333 -5 -25 -15 -35s-21.667 -15 -35 -15c-14 0 -26 5 -36 15s-15 21.667 -15 35c0 14 5 26 15 36s22 15 36 15z" />
    <glyph glyph-name="Aring" unicode="&#xc5;" horiz-adv-x="703" 
d="M529 700c16 0 31.168 -3.16699 45.501 -9.5s26.666 -14.666 36.999 -24.999s18.666 -22.666 24.999 -36.999s9.5 -29.5 9.5 -45.5v-564c0 -5.33301 -1.83301 -9.83301 -5.5 -13.5s-8.16699 -5.5 -13.5 -5.5h-139c-5.33301 0 -9.83301 1.83301 -13.5 5.5
s-5.5 8.16699 -5.5 13.5v179c0 5.33301 -1.66699 9.66602 -5 12.999s-7.66602 5 -12.999 5h-198c-5.33301 0 -9.83301 -1.66699 -13.5 -5s-5.5 -7.66602 -5.5 -12.999v-179c0 -12.667 -6.33301 -19 -19 -19h-138c-12.667 0 -19 6.33301 -19 19v564c0 16 3 31.167 9 45.5
s14.333 26.666 25 36.999s23.167 18.666 37.5 24.999s29.5 9.5 45.5 9.5h354zM469.001 367v176h-235v-176h235zM352.001 899c21.333 0 39.333 -7.5 54 -22.5s22 -33.167 22 -54.5s-7.33301 -39.333 -22 -54s-32.667 -22 -54 -22s-39.5 7.33301 -54.5 22
s-22.5 32.667 -22.5 54s7.5 39.5 22.5 54.5s33.167 22.5 54.5 22.5zM352.001 791c8.66699 0 16 3 22 9s9 13.333 9 22c0 9.33301 -3 16.833 -9 22.5s-13.333 8.5 -22 8.5s-16 -2.83301 -22 -8.5s-9 -13.167 -9 -22.5c0 -8.66699 3 -16 9 -22s13.333 -9 22 -9z" />
    <glyph glyph-name="AE" unicode="&#xc6;" horiz-adv-x="1104" 
d="M1006 700c5.33301 0 9.83105 -1.83203 13.498 -5.49902s5.5 -8.16699 5.5 -13.5v-57v-30v-39c0 -5.33301 -1.83301 -9.66602 -5.5 -12.999s-8.16699 -5 -13.5 -5h-71h-208h-56c-2.66699 0 -4 -1.66699 -4 -5v-109c0 -2.66699 1.33301 -4 4 -4h286
c5.33301 0 9.83301 -1.83301 13.5 -5.5s5.5 -8.16699 5.5 -13.5v-100c0 -5.33301 -1.83301 -9.83301 -5.5 -13.5s-8.16699 -5.5 -13.5 -5.5h-286c-2.66699 0 -4 -1.66699 -4 -5v-49v-1v-58c0 -3.33301 1.33301 -5 4 -5h42h227h66c12.667 0 19 -6.33301 19 -19v-40v-52v-33
c0 -12.667 -6.33301 -19 -19 -19h-57h-440c-3.33301 0 -5.66602 0.333008 -6.99902 1c-8 3.33301 -12 9.33301 -12 18v34v145c0 5.33301 -1.66699 9.66602 -5 12.999s-7.66602 5 -12.999 5h-198c-5.33301 0 -9.83301 -1.66699 -13.5 -5s-5.5 -7.66602 -5.5 -12.999v-179
c0 -12.667 -6.33301 -19 -19 -19h-138c-12.667 0 -19 6.33301 -19 19v564c0 16 3 31.167 9 45.5s14.333 26.666 25 36.999s23.167 18.666 37.5 24.999s29.5 9.5 45.5 9.5h779h31zM489.998 367.001v176h-235v-176h235z" />
    <glyph glyph-name="Ccedilla" unicode="&#xc7;" horiz-adv-x="633" 
d="M250 530c-5.33301 0 -9.83398 -1.66797 -13.501 -5.00098s-5.5 -7.66602 -5.5 -12.999v-324c0 -5.33301 1.83301 -9.83301 5.5 -13.5s8.16699 -5.5 13.5 -5.5h321c5.33301 0 9.83301 -1.66699 13.5 -5s5.5 -7.66602 5.5 -12.999v-132
c0 -5.33301 -1.83301 -9.83301 -5.5 -13.5s-8.16699 -5.5 -13.5 -5.5h-182l-17 -29h27c4.66699 0 8.33398 -2.33301 11.001 -7c2 -3.33301 2 -7.66602 0 -12.999l-73 -121l-3 -5c-3.33301 -6.66699 -9 -10 -17 -10h-22c-5.33301 0 -9 2 -11 6
c-3.33301 3.33301 -3.66602 7.33301 -0.999023 12l37 92h-32c-5.33301 0 -9.33301 2 -12 6c-2.66699 4.66699 -2.33398 9 0.999023 13l30 56h-117h-18c-16 0 -31.167 3 -45.5 9s-26.833 14.333 -37.5 25s-19 23.167 -25 37.5s-9 29.5 -9 45.5v18v73v233v65v77
c0 16 3 31.167 9 45.5s14.333 26.666 25 36.999s23.167 18.666 37.5 24.999s29.5 9.5 45.5 9.5h18h381c5.33301 0 9.83301 -1.83301 13.5 -5.5s5.5 -8.16699 5.5 -13.5v-132c0 -5.33301 -1.83301 -9.83301 -5.5 -13.5s-8.16699 -5.5 -13.5 -5.5h-321v0z" />
    <glyph glyph-name="Egrave" unicode="&#xc8;" horiz-adv-x="640" 
d="M576 700c5.33301 0 9.83301 -1.83398 13.5 -5.50098s5.5 -8.16699 5.5 -13.5v-57v-30v-39c0 -5.33301 -1.83301 -9.66602 -5.5 -12.999s-8.16699 -5 -13.5 -5h-71h-208h-56c-3.33301 0 -5 -1.66699 -5 -5v-109c0 -2.66699 1.66699 -4 5 -4h286
c5.33301 0 9.66602 -1.83301 12.999 -5.5s5 -8.16699 5 -13.5v-100c0 -5.33301 -1.66699 -9.83301 -5 -13.5s-7.66602 -5.5 -12.999 -5.5h-286c-3.33301 0 -5 -1.66699 -5 -5v-49v-1v-58c0 -3.33301 1.66699 -5 5 -5h42h226h67c5.33301 0 9.83301 -1.83301 13.5 -5.5
s5.5 -8.16699 5.5 -13.5v-40v-52v-33c0 -5.33301 -1.83301 -9.83301 -5.5 -13.5s-8.16699 -5.5 -13.5 -5.5h-57h-380h-60c-12.667 -0 -19 6.33301 -19 19v34v580v48c0 5.33301 1.83301 9.83301 5.5 13.5s8.16699 5.5 13.5 5.5h73h392h32zM227 799.999
c-5.33301 1.33301 -9.00098 4.00293 -11.001 8.00293s-2 8.66699 0 14l35 88c2 4.66699 5.16699 7.66699 9.5 9s8.83301 0.666016 13.5 -2.00098l156 -96c4.66699 -2.66699 7.83398 -6.66699 9.50098 -12s1.5 -10.333 -0.5 -15l-8 -20
c-2 -4.66699 -5.33301 -8.33398 -10 -11.001s-9.66699 -3.33398 -15 -2.00098z" />
    <glyph glyph-name="Eacute" unicode="&#xc9;" horiz-adv-x="642" 
d="M574 700l-32 0.000976562h-392h-73c-5.33301 0 -9.83301 -1.83301 -13.5 -5.5s-5.5 -8.16699 -5.5 -13.5v-48v-580v-34c0 -12.667 6.33301 -19 19 -19h60h380h57c5.33301 0 9.83301 1.83301 13.5 5.5s5.5 8.16699 5.5 13.5v33v52v40
c0 5.33301 -1.83301 9.83301 -5.5 13.5s-8.16699 5.5 -13.5 5.5h-67h-226h-42c-3.33301 0 -5 1.66699 -5 5v58v1v49c0 3.33301 1.66699 5 5 5h286c5.33301 0 9.66602 1.83301 12.999 5.5s5 8.16699 5 13.5v100c0 5.33301 -1.66699 9.83301 -5 13.5s-7.66602 5.5 -12.999 5.5
h-286c-3.33301 0 -5 1.33301 -5 4v109c0 3.33301 1.66699 5 5 5h56h208h71c5.33301 0 9.83301 1.66699 13.5 5s5.5 7.66602 5.5 12.999v39v30v57c0 5.33301 -1.83301 9.83301 -5.5 13.5s-8.16699 5.5 -13.5 5.5zM247 760.001
c-5.33301 -1.33301 -10.334 -0.833984 -15.001 1.49902s-8 6.16602 -10 11.499l-8 20c-2 4.66699 -2.16699 9.5 -0.5 14.5s4.83398 9.16699 9.50098 12.5l156 96c4 2.66699 8.33301 3.33398 13 2.00098s7.66699 -4.66602 9 -9.99902l36 -88c2 -4.66699 2 -9 0 -13
s-5.66699 -6.66699 -11 -8z" />
    <glyph glyph-name="Ecircumflex" unicode="&#xca;" horiz-adv-x="655" 
d="M505 774c-2 -4.66699 -5.33301 -8 -10 -10s-9.66699 -2.33301 -15 -1l-130 45c-5.33301 2 -11.333 3 -18 3s-12.334 -1 -17.001 -3l-131 -45c-5.33301 -1.33301 -10.333 -1 -15 1s-8 5.33301 -10 10l-7 20c-2 4.66699 -2.16699 9.66699 -0.5 15s4.5 9.33301 8.5 12
l156 96c4.66699 2.66699 10 4 16 4s11.333 -1.33301 16 -4l156 -96c4.66699 -2.66699 7.83398 -6.66699 9.50098 -12s1.5 -10.333 -0.5 -15zM581 700c5.33301 0 9.83301 -1.83398 13.5 -5.50098s5.5 -8.16699 5.5 -13.5v-57v-30v-39
c0 -5.33301 -1.83301 -9.66602 -5.5 -12.999s-8.16699 -5 -13.5 -5h-71h-208h-56c-3.33301 0 -5 -1.66699 -5 -5v-109c0 -2.66699 1.66699 -4 5 -4h286c5.33301 0 9.66602 -1.83301 12.999 -5.5s5 -8.16699 5 -13.5v-100c0 -5.33301 -1.66699 -9.83301 -5 -13.5
s-7.66602 -5.5 -12.999 -5.5h-286c-3.33301 0 -5 -1.66699 -5 -5v-49v-1v-58c0 -3.33301 1.66699 -5 5 -5h42h226h67c5.33301 0 9.83301 -1.83301 13.5 -5.5s5.5 -8.16699 5.5 -13.5v-40v-52v-33c0 -5.33301 -1.83301 -9.83301 -5.5 -13.5s-8.16699 -5.5 -13.5 -5.5h-57
h-380h-60c-12.667 -0 -19 6.33301 -19 19v34v580v48c0 5.33301 1.83301 9.83301 5.5 13.5s8.16699 5.5 13.5 5.5h73h392h32z" />
    <glyph glyph-name="Edieresis" unicode="&#xcb;" horiz-adv-x="646" 
d="M580 700c5.33301 0 9.83301 -1.83398 13.5 -5.50098s5.5 -8.16699 5.5 -13.5v-57v-30v-39c0 -5.33301 -1.83301 -9.66602 -5.5 -12.999s-8.16699 -5 -13.5 -5h-71h-208h-56c-3.33301 0 -5 -1.66699 -5 -5v-109c0 -2.66699 1.66699 -4 5 -4h286
c5.33301 0 9.66602 -1.83301 12.999 -5.5s5 -8.16699 5 -13.5v-100c0 -5.33301 -1.66699 -9.83301 -5 -13.5s-7.66602 -5.5 -12.999 -5.5h-286c-3.33301 0 -5 -1.66699 -5 -5v-49v-1v-58c0 -3.33301 1.66699 -5 5 -5h42h226h67c5.33301 0 9.83301 -1.83301 13.5 -5.5
s5.5 -8.16699 5.5 -13.5v-40v-52v-33c0 -5.33301 -1.83301 -9.83301 -5.5 -13.5s-8.16699 -5.5 -13.5 -5.5h-57h-380h-60c-12.667 -0 -19 6.33301 -19 19v34v580v48c0 5.33301 1.83301 9.83301 5.5 13.5s8.16699 5.5 13.5 5.5h73h392h32zM411 859.999
c14 0 25.833 -5 35.5 -15s14.5 -22 14.5 -36c0 -13.333 -4.83301 -25 -14.5 -35s-21.5 -15 -35.5 -15s-25.833 5 -35.5 15s-14.5 21.667 -14.5 35c0 14 4.83301 26 14.5 36s21.5 15 35.5 15zM251 859.999c14 0 25.833 -5 35.5 -15s14.5 -22 14.5 -36
c0 -13.333 -4.83301 -25 -14.5 -35s-21.5 -15 -35.5 -15s-25.833 5 -35.5 15s-14.5 21.667 -14.5 35c0 14 4.83301 26 14.5 36s21.5 15 35.5 15z" />
    <glyph glyph-name="Igrave" unicode="&#xcc;" horiz-adv-x="325" 
d="M253 19c0 -12.667 -6.33301 -19 -19 -19h-138c-12.667 -0 -19 6.33301 -19 19v662c0 5.33301 1.83301 9.83301 5.5 13.5s8.16699 5.5 13.5 5.5h138c5.33301 0 9.83301 -1.83301 13.5 -5.5s5.5 -8.16699 5.5 -13.5v-662zM64 800c-5.33301 1.33301 -9 4.00391 -11 8.00391
s-2 8.66699 0 14l36 87c2 5.33301 5.16699 8.66602 9.5 9.99902s8.83301 0.666016 13.5 -2.00098l156 -96c4 -2.66699 6.83301 -6.66699 8.5 -12s1.5 -10.333 -0.5 -15l-7 -20c-2 -4.66699 -5.5 -8.33398 -10.5 -11.001s-10.167 -3.33398 -15.5 -2.00098z" />
    <glyph glyph-name="Iacute" unicode="&#xcd;" horiz-adv-x="327" 
d="M249 19c0 -12.667 -6.33301 -19 -19 -19h-138c-12.667 -0 -19 6.33301 -19 19v662c0 5.33301 1.83301 9.83301 5.5 13.5s8.16699 5.5 13.5 5.5h138c5.33301 0 9.83301 -1.83301 13.5 -5.5s5.5 -8.16699 5.5 -13.5v-662zM83 760
c-5.33301 -1.33301 -10.501 -0.833984 -15.501 1.49902s-8.5 6.16602 -10.5 11.499l-8 20c-1.33301 4.66699 -1.16602 9.5 0.500977 14.5s4.5 9.16699 8.5 12.5l156 96c4.66699 2.66699 9.16699 3.33398 13.5 2.00098s7.5 -4.66602 9.5 -9.99902l36 -88
c1.33301 -4.66699 1 -9 -1 -13s-5.66699 -6.66699 -11 -8z" />
    <glyph glyph-name="Icircumflex" unicode="&#xce;" horiz-adv-x="432" 
d="M304 19c0 -12.667 -6.33301 -19 -19 -19h-138c-12.667 -0 -19 6.33301 -19 19v662c0 5.33301 1.83301 9.83301 5.5 13.5s8.16699 5.5 13.5 5.5h138c5.33301 0 9.83301 -1.83301 13.5 -5.5s5.5 -8.16699 5.5 -13.5v-662zM389 774c-2 -4.66699 -5.33496 -8 -10.002 -10
s-9.66699 -2.33301 -15 -1l-130 45c-5.33301 2 -11.333 3 -18 3s-12.667 -1 -18 -3l-130 -45c-5.33301 -1.33301 -10.333 -1 -15 1s-8 5.33301 -10 10l-8 20c-2 4.66699 -2.16699 9.66699 -0.5 15s4.83398 9.33301 9.50098 12l156 96c4.66699 2.66699 10 4 16 4
s11.333 -1.33301 16 -4l156 -96c4 -2.66699 6.83301 -6.66699 8.5 -12s1.83398 -10.333 0.500977 -15z" />
    <glyph glyph-name="Idieresis" unicode="&#xcf;" horiz-adv-x="342" 
d="M259 19c0 -12.667 -6.33301 -19 -19 -19h-138c-12.667 -0 -19 6.33301 -19 19v662c0 5.33301 1.83301 9.83301 5.5 13.5s8.16699 5.5 13.5 5.5h138c5.33301 0 9.83301 -1.83301 13.5 -5.5s5.5 -8.16699 5.5 -13.5v-662zM251 860c14 0 25.833 -5 35.5 -15
s14.5 -22 14.5 -36c0 -13.333 -4.83301 -25 -14.5 -35s-21.5 -15 -35.5 -15s-25.833 5 -35.5 15s-14.5 21.667 -14.5 35c0 14 4.83301 26 14.5 36s21.5 15 35.5 15zM91 860c14 0 25.833 -5 35.5 -15s14.5 -22 14.5 -36c0 -13.333 -4.83301 -25 -14.5 -35
s-21.5 -15 -35.5 -15s-25.833 5 -35.5 15s-14.5 21.667 -14.5 35c0 14 4.83301 26 14.5 36s21.5 15 35.5 15z" />
    <glyph glyph-name="Eth" unicode="&#xd0;" horiz-adv-x="680" 
 />
    <glyph glyph-name="Ntilde" unicode="&#xd1;" horiz-adv-x="712" 
d="M631 700c5.33301 0 9.83301 -1.83301 13.5 -5.5s5.5 -8.16699 5.5 -13.5v-662c0 -5.33301 -1.83301 -9.83301 -5.5 -13.5s-8.16699 -5.5 -13.5 -5.5h-132h-12c-5.33301 0 -10.666 1.5 -15.999 4.5s-9.33301 6.83301 -12 11.5l-221 408v-405
c0 -12.667 -6.33301 -19 -19 -19h-138c-12.667 -0 -19 6.33301 -19 19v662c0 5.33301 1.83301 9.83301 5.5 13.5s8.16699 5.5 13.5 5.5h142c5.33301 0 10.666 -1.5 15.999 -4.5s9.33301 -6.83301 12 -11.5l222 -409v406c0 5.33301 1.83301 9.83301 5.5 13.5
s8.16699 5.5 13.5 5.5h139zM498 862c2.66699 -2.66699 4.00195 -6.00098 4.00195 -10.001l-3 -24c-1.33301 -7.33301 -5.33301 -12.666 -12 -15.999l-8 -3l-134 -59c-2.66699 -1.33301 -4.66699 -2 -6 -2s-2.33301 0.333008 -3 1c-4 0 -7 1.33301 -9 4
c-2.66699 2.66699 -3.66699 6 -3 10l4 34l-101 -26c-0.666992 -0.666992 -2 -1 -4 -1c-4 0 -7.33301 1.33301 -10 4c-3.33301 3.33301 -4.33301 7 -3 11l3 23c0 3.33301 1.16699 6.5 3.5 9.5s5.16602 5.16699 8.49902 6.5l7 4l134 59c1.33301 0.666992 3.33301 1 6 1h3
c2.66699 0 6 -1.33301 10 -4c2 -3.33301 3 -7 3 -11l-5 -34l102 27c0.666992 0 1.16699 0.166992 1.5 0.5s1.16602 0.5 2.49902 0.5c4 0 7 -1.66699 9 -5z" />
    <glyph glyph-name="Ograve" unicode="&#xd2;" horiz-adv-x="700" 
d="M250 800c-5.33301 1.33301 -9.00098 4.00391 -11.001 8.00391s-2 8.66699 0 14l36 87c1.33301 5.33301 4.33301 8.66602 9 9.99902s9 0.666016 13 -2.00098l156 -96c4.66699 -2.66699 7.83398 -6.66699 9.50098 -12s1.5 -10.333 -0.5 -15l-8 -20
c-2 -4.66699 -5.33301 -8.33398 -10 -11.001s-9.66699 -3.33398 -15 -2.00098zM527.999 700.004c16 0 31.167 -3.16699 45.5 -9.5s26.666 -14.666 36.999 -24.999s18.666 -22.666 24.999 -36.999s9.5 -29.5 9.5 -45.5v-466c0 -16 -3.16699 -31.167 -9.5 -45.5
s-14.666 -26.833 -24.999 -37.5s-22.666 -19 -36.999 -25s-29.5 -9 -45.5 -9h-354c-16 0 -31.167 3 -45.5 9s-26.833 14.333 -37.5 25s-19 23.167 -25 37.5s-9 29.5 -9 45.5v466c0 16 3 31.167 9 45.5s14.333 26.666 25 36.999s23.167 18.666 37.5 24.999s29.5 9.5 45.5 9.5
h354zM467.999 530.004h-235v-361h235v361z" />
    <glyph glyph-name="Oacute" unicode="&#xd3;" horiz-adv-x="701" 
d="M271 760c-5.33301 -1.33301 -10.334 -0.833984 -15.001 1.49902s-8 6.16602 -10 11.499l-8 20c-2 4.66699 -2.16699 9.5 -0.5 14.5s4.83398 9.16699 9.50098 12.5l156 96c4.66699 2.66699 9.16699 3.33398 13.5 2.00098s7.5 -4.66602 9.5 -9.99902l35 -88
c2 -4.66699 2 -9 0 -13s-5.66699 -6.66699 -11 -8zM526.999 699.999h-354c-16 0 -31.167 -3.16699 -45.5 -9.5s-26.833 -14.666 -37.5 -24.999s-19 -22.666 -25 -36.999s-9 -29.5 -9 -45.5v-466c0 -16 3 -31.167 9 -45.5s14.333 -26.833 25 -37.5s23.167 -19 37.5 -25
s29.5 -9 45.5 -9h354c16 0 31.167 3 45.5 9s26.666 14.333 36.999 25s18.666 23.167 24.999 37.5s9.5 29.5 9.5 45.5v466c0 16 -3.16699 31.167 -9.5 45.5s-14.666 26.666 -24.999 36.999s-22.666 18.666 -36.999 24.999s-29.5 9.5 -45.5 9.5zM466.999 168.999h-235v361h235
v-361z" />
    <glyph glyph-name="Ocircumflex" unicode="&#xd4;" horiz-adv-x="711" 
d="M528 774c-1.33301 -4.66699 -4.33301 -8 -9 -10s-9.66699 -2.33301 -15 -1l-131 45c-4.66699 2 -10.334 3 -17.001 3s-12.667 -1 -18 -3l-130 -45c-5.33301 -1.33301 -10.333 -1 -15 1s-8 5.33301 -10 10l-8 20c-2 4.66699 -2.16699 9.66699 -0.5 15
s4.83398 9.33301 9.50098 12l156 96c4.66699 2.66699 10 4 16 4s11.333 -1.33301 16 -4l156 -96c4 -2.66699 6.83301 -6.66699 8.5 -12s1.5 -10.333 -0.5 -15zM533 700c16 0 31.167 -3.16699 45.5 -9.5s26.666 -14.666 36.999 -24.999s18.666 -22.666 24.999 -36.999
s9.5 -29.5 9.5 -45.5v-466c0 -16 -3.16699 -31.167 -9.5 -45.5s-14.666 -26.833 -24.999 -37.5s-22.666 -19 -36.999 -25s-29.5 -9 -45.5 -9h-354c-16 0 -31.167 3 -45.5 9s-26.833 14.333 -37.5 25s-19 23.167 -25 37.5s-9 29.5 -9 45.5v466c0 16 3 31.167 9 45.5
s14.333 26.666 25 36.999s23.167 18.666 37.5 24.999s29.5 9.5 45.5 9.5h354zM473 530h-235v-361h235v361z" />
    <glyph glyph-name="Otilde" unicode="&#xd5;" horiz-adv-x="705" 
d="M495 881c2.66699 -2.66699 4 -6.33301 4 -11l-3 -23c-1.33301 -7.33301 -5.33301 -12.666 -12 -15.999l-8 -3l-134 -60c-1.33301 -0.666992 -3.33301 -1 -6 -1h-3c-4 0 -7 1.66699 -9 5c-3.33301 2 -4.33301 5.33301 -3 10l4 34l-101 -27h-4c-4.66699 0 -8 1.33301 -10 4
c-3.33301 3.33301 -4.33301 7 -3 11l3 23c1.33301 7.33301 5.33301 12.666 12 15.999l7 3l134 60c1.33301 0.666992 3.33301 1 6 1h3c2.66699 0 6 -1.33301 10 -4c2 -3.33301 3 -7 3 -11l-5 -34l102 27h4c4 0 7 -1.33301 9 -4zM530 700.001c16 0 31.167 -3.16699 45.5 -9.5
s26.666 -14.666 36.999 -24.999s18.666 -22.666 24.999 -36.999s9.5 -29.5 9.5 -45.5v-466c0 -16 -3.16699 -31.167 -9.5 -45.5s-14.666 -26.833 -24.999 -37.5s-22.666 -19 -36.999 -25s-29.5 -9 -45.5 -9h-354c-16 0 -31.167 3 -45.5 9s-26.833 14.333 -37.5 25
s-19 23.167 -25 37.5s-9 29.5 -9 45.5v466c0 16 3 31.167 9 45.5s14.333 26.666 25 36.999s23.167 18.666 37.5 24.999s29.5 9.5 45.5 9.5h354zM470 530.001h-235v-361h235v361z" />
    <glyph glyph-name="Odieresis" unicode="&#xd6;" horiz-adv-x="708" 
d="M434 860c13.333 0 25 -5 35 -15s15 -22 15 -36c0 -13.333 -5 -25 -15 -35s-21.667 -15 -35 -15c-14 0 -26 5 -36 15s-15 21.667 -15 35c0 14 5 26 15 36s22 15 36 15zM274 860c13.333 0 25 -5 35 -15s15 -22 15 -36c0 -13.333 -5 -25 -15 -35s-21.667 -15 -35 -15
c-14 0 -26 5 -36 15s-15 21.667 -15 35c0 14 5 26 15 36s22 15 36 15zM531 700c16 0 31.167 -3.16699 45.5 -9.5s26.666 -14.666 36.999 -24.999s18.666 -22.666 24.999 -36.999s9.5 -29.5 9.5 -45.5v-466c0 -16 -3.16699 -31.167 -9.5 -45.5s-14.666 -26.833 -24.999 -37.5
s-22.666 -19 -36.999 -25s-29.5 -9 -45.5 -9h-354c-16 0 -31.167 3 -45.5 9s-26.833 14.333 -37.5 25s-19 23.167 -25 37.5s-9 29.5 -9 45.5v466c0 16 3 31.167 9 45.5s14.333 26.666 25 36.999s23.167 18.666 37.5 24.999s29.5 9.5 45.5 9.5h354zM471 530h-235v-361h235
v361z" />
    <glyph glyph-name="multiply" unicode="&#xd7;" 
 />
    <glyph glyph-name="Oslash" unicode="&#xd8;" horiz-adv-x="689" 
d="M495 700c16 0 31.167 -3.16699 45.5 -9.5s26.666 -14.666 36.999 -24.999s18.666 -22.666 24.999 -36.999s9.5 -29.5 9.5 -45.5v-466c0 -16 -3.16699 -31.167 -9.5 -45.5s-14.666 -26.833 -24.999 -37.5s-22.666 -19 -36.999 -25s-29.5 -9 -45.5 -9h-100h-31h-33h-47h-90
c-16 0 -31.167 3 -45.5 9s-26.833 14.333 -37.5 25s-19 23.167 -25 37.5s-9 29.5 -9 45.5v466c0 16 3 31.167 9 45.5s14.333 26.666 25 36.999s23.167 18.666 37.5 24.999s29.5 9.5 45.5 9.5h90h47h33h31h100zM240 537v-297l148 297h-148zM449 163v297l-148 -297h148z" />
    <glyph glyph-name="Ugrave" unicode="&#xd9;" horiz-adv-x="703" 
d="M628 700c5.33301 0 9.83203 -1.83301 13.499 -5.5s5.5 -8.16699 5.5 -13.5v-564c0 -16 -3.16699 -31.167 -9.5 -45.5s-14.666 -26.833 -24.999 -37.5s-22.666 -19 -36.999 -25s-29.5 -9 -45.5 -9h-354c-16 0 -31.167 3 -45.5 9s-26.833 14.333 -37.5 25
s-19 23.167 -25 37.5s-9 29.5 -9 45.5v564c0 5.33301 1.83301 9.83301 5.5 13.5s8.16699 5.5 13.5 5.5h138c5.33301 0 9.83301 -1.83301 13.5 -5.5s5.5 -8.16699 5.5 -13.5v-493c0 -5.33301 1.83301 -9.83301 5.5 -13.5s8.16699 -5.5 13.5 -5.5h198
c5.33301 0 9.66602 1.83301 12.999 5.5s5 8.16699 5 13.5v493c0 5.33301 1.83301 9.83301 5.5 13.5s8.16699 5.5 13.5 5.5h139zM251.999 800c-5.33301 1.33301 -9.00098 4.00391 -11.001 8.00391s-2 8.66699 0 14l36 87c1.33301 5.33301 4.33301 8.66602 9 9.99902
s9 0.666016 13 -2.00098l156 -96c4.66699 -2.66699 7.83398 -6.66699 9.50098 -12s1.5 -10.333 -0.5 -15l-8 -20c-2 -4.66699 -5.33301 -8.33398 -10 -11.001s-9.66699 -3.33398 -15 -2.00098z" />
    <glyph glyph-name="Uacute" unicode="&#xda;" horiz-adv-x="703" 
d="M626 700h-138.999c-5.33301 0 -9.83301 -1.83301 -13.5 -5.5s-5.5 -8.16699 -5.5 -13.5v-493c0 -5.33301 -1.66699 -9.83301 -5 -13.5s-7.66602 -5.5 -12.999 -5.5h-198c-5.33301 0 -9.83301 1.83301 -13.5 5.5s-5.5 8.16699 -5.5 13.5v493
c0 5.33301 -1.83301 9.83301 -5.5 13.5s-8.16699 5.5 -13.5 5.5h-138c-5.33301 0 -9.83301 -1.83301 -13.5 -5.5s-5.5 -8.16699 -5.5 -13.5v-564c0 -16 3 -31.167 9 -45.5s14.333 -26.833 25 -37.5s23.167 -19 37.5 -25s29.5 -9 45.5 -9h354c16 0 31.167 3 45.5 9
s26.666 14.333 36.999 25s18.666 23.167 24.999 37.5s9.5 29.5 9.5 45.5v564c0 5.33301 -1.83301 9.83301 -5.5 13.5s-8.16699 5.5 -13.5 5.5zM272.001 760c-5.33301 -1.33301 -10.334 -0.833984 -15.001 1.49902s-8 6.16602 -10 11.499l-8 20
c-2 4.66699 -2.16699 9.5 -0.5 14.5s4.83398 9.16699 9.50098 12.5l156 96c4.66699 2.66699 9.16699 3.33398 13.5 2.00098s7.5 -4.66602 9.5 -9.99902l35 -88c2 -4.66699 2 -9 0 -13s-5.66699 -6.66699 -11 -8z" />
    <glyph glyph-name="Ucircumflex" unicode="&#xdb;" horiz-adv-x="714" 
d="M632 700c5.33301 0 9.83203 -1.83301 13.499 -5.5s5.5 -8.16699 5.5 -13.5v-564c0 -16 -3.16699 -31.167 -9.5 -45.5s-14.666 -26.833 -24.999 -37.5s-22.666 -19 -36.999 -25s-29.5 -9 -45.5 -9h-354c-16 0 -31.167 3 -45.5 9s-26.833 14.333 -37.5 25
s-19 23.167 -25 37.5s-9 29.5 -9 45.5v564c0 5.33301 1.83301 9.83301 5.5 13.5s8.16699 5.5 13.5 5.5h138c5.33301 0 9.83301 -1.83301 13.5 -5.5s5.5 -8.16699 5.5 -13.5v-493c0 -5.33301 1.83301 -9.83301 5.5 -13.5s8.16699 -5.5 13.5 -5.5h198
c5.33301 0 9.66602 1.83301 12.999 5.5s5 8.16699 5 13.5v493c0 5.33301 1.83301 9.83301 5.5 13.5s8.16699 5.5 13.5 5.5h139zM528.999 774c-1.33301 -4.66699 -4.33301 -8 -9 -10s-9.66699 -2.33301 -15 -1l-131 45c-4.66699 2 -10.334 3 -17.001 3s-12.667 -1 -18 -3
l-130 -45c-5.33301 -1.33301 -10.333 -1 -15 1s-8 5.33301 -10 10l-8 20c-2 4.66699 -2.16699 9.66699 -0.5 15s4.83398 9.33301 9.50098 12l156 96c4.66699 2.66699 10 4 16 4s11.333 -1.33301 16 -4l156 -96c4 -2.66699 6.83301 -6.66699 8.5 -12s1.5 -10.333 -0.5 -15z
" />
    <glyph glyph-name="Udieresis" unicode="&#xdc;" horiz-adv-x="711" 
d="M631 700c5.33301 0 9.83203 -1.83301 13.499 -5.5s5.5 -8.16699 5.5 -13.5v-564c0 -16 -3.16699 -31.167 -9.5 -45.5s-14.666 -26.833 -24.999 -37.5s-22.666 -19 -36.999 -25s-29.5 -9 -45.5 -9h-354c-16 0 -31.167 3 -45.5 9s-26.833 14.333 -37.5 25
s-19 23.167 -25 37.5s-9 29.5 -9 45.5v564c0 5.33301 1.83301 9.83301 5.5 13.5s8.16699 5.5 13.5 5.5h138c5.33301 0 9.83301 -1.83301 13.5 -5.5s5.5 -8.16699 5.5 -13.5v-493c0 -5.33301 1.83301 -9.83301 5.5 -13.5s8.16699 -5.5 13.5 -5.5h198
c5.33301 0 9.66602 1.83301 12.999 5.5s5 8.16699 5 13.5v493c0 5.33301 1.83301 9.83301 5.5 13.5s8.16699 5.5 13.5 5.5h139zM435.999 860c13.333 0 25 -5 35 -15s15 -22 15 -36c0 -13.333 -5 -25 -15 -35s-21.667 -15 -35 -15c-14 0 -26 5 -36 15s-15 21.667 -15 35
c0 14 5 26 15 36s22 15 36 15zM275.999 860c13.333 0 25 -5 35 -15s15 -22 15 -36c0 -13.333 -5 -25 -15 -35s-21.667 -15 -35 -15c-14 0 -26 5 -36 15s-15 21.667 -15 35c0 14 5 26 15 36s22 15 36 15z" />
    <glyph glyph-name="Yacute" unicode="&#xdd;" horiz-adv-x="692" 
d="M267 765c-5.33301 -1.33301 -10.334 -0.669922 -15.001 1.99707s-8 6.33398 -10 11.001l-8 20c-2 4.66699 -2.16699 9.66699 -0.5 15s4.83398 9.33301 9.50098 12l156 96c4 2.66699 8.33301 3.33398 13 2.00098s8 -4.66602 10 -9.99902l35 -88c2 -4.66699 2 -9 0 -13
s-5.66699 -6.66699 -11 -8zM656.999 699.996h-150.002c-5.33301 0 -10.666 -1.5 -15.999 -4.5s-9.33301 -6.83301 -12 -11.5l-134 -263l-134 263c-2.66699 4.66699 -6.5 8.5 -11.5 11.5s-10.167 4.5 -15.5 4.5h-150c-5.33301 0 -9 -1.5 -11 -4.5s-1.66699 -6.83301 1 -11.5
l224 -408c2.66699 -4.66699 4.83398 -10.334 6.50098 -17.001s2.5 -12.667 2.5 -18v-222c0 -5.33301 1.83301 -9.83301 5.5 -13.5s8.16699 -5.5 13.5 -5.5h139c5.33301 0 9.66602 1.83301 12.999 5.5s5 8.16699 5 13.5v222c0 5.33301 0.833008 11.333 2.5 18
s3.83398 12.334 6.50098 17.001l225 408c2.66699 4.66699 3 8.5 1 11.5s-5.66699 4.5 -11 4.5z" />
    <glyph glyph-name="divide" unicode="&#xf7;" 
 />
    <glyph glyph-name="oslash" unicode="&#xf8;" 
 />
    <glyph glyph-name="OE" unicode="&#x152;" horiz-adv-x="1104" 
d="M1006 700c5.33301 0 9.83301 -1.83203 13.5 -5.49902s5.5 -8.16699 5.5 -13.5v-57v-30v-39c0 -5.33301 -1.83301 -9.66602 -5.5 -12.999s-8.16699 -5 -13.5 -5h-71h-208h-56c-2.66699 0 -4 -1.66699 -4 -5v-109c0 -2.66699 1.33301 -4 4 -4h286
c5.33301 0 9.83301 -1.83301 13.5 -5.5s5.5 -8.16699 5.5 -13.5v-100c0 -5.33301 -1.83301 -9.83301 -5.5 -13.5s-8.16699 -5.5 -13.5 -5.5h-286c-2.66699 0 -4 -1.66699 -4 -5v-49v-1v-58c0 -3.33301 1.33301 -5 4 -5h42h227h66c12.667 0 19 -6.33301 19 -19v-40v-52v-33
c0 -12.667 -6.33301 -19 -19 -19h-57h-399h-354c-16 0 -31.167 3 -45.5 9s-26.833 14.333 -37.5 25s-19 23.167 -25 37.5s-9 29.5 -9 45.5v466c0 16 3 31.167 9 45.5s14.333 26.666 25 36.999s23.167 18.666 37.5 24.999s29.5 9.5 45.5 9.5h779h31zM255 169.001h235v361
h-235v-361z" />
    <glyph glyph-name="Scaron" unicode="&#x160;" horiz-adv-x="654" 
d="M480 421c16 0 31.167 -2.99805 45.5 -8.99805s26.666 -14.333 36.999 -25s18.666 -23 24.999 -37s9.5 -29 9.5 -45v-188c0 -16 -3.16699 -31.167 -9.5 -45.5s-14.666 -26.833 -24.999 -37.5s-22.666 -19 -36.999 -25s-29.5 -9 -45.5 -9h-399
c-12.667 0 -19 6.33301 -19 19v121c0 5.33301 1.83301 9.83301 5.5 13.5s8.16699 5.5 13.5 5.5h340c5.33301 0 9.83301 1.66699 13.5 5s5.5 7.66602 5.5 12.999v83c0 5.33301 -1.83301 9.83301 -5.5 13.5s-8.16699 5.5 -13.5 5.5h-242c-16 0 -31.167 3 -45.5 9
s-26.833 14.333 -37.5 25s-19 23 -25 37s-9 29 -9 45v188c0 16 3 31.167 9 45.5s14.333 26.666 25 36.999s23.167 18.666 37.5 24.999s29.5 9.5 45.5 9.5h377c5.33301 0 9.83301 -1.83301 13.5 -5.5s5.5 -8.16699 5.5 -13.5v-123c0 -5.33301 -1.83301 -9.83301 -5.5 -13.5
s-8.16699 -5.5 -13.5 -5.5h-319c-5.33301 0 -9.83301 -1.66699 -13.5 -5s-5.5 -7.66602 -5.5 -12.999v-81c0 -5.33301 1.83301 -9.83301 5.5 -13.5s8.16699 -5.5 13.5 -5.5h243zM156 909.002c2 4.66699 5.33301 8 10 10s9.66699 2.33301 15 1l131 -45
c4.66699 -2 10.334 -3 17.001 -3s12.667 1 18 3l130 45c5.33301 1.33301 10.333 1 15 -1s8 -5.33301 10 -10l8 -20c2 -4.66699 2.16699 -9.66699 0.5 -15s-4.83398 -9.33301 -9.50098 -12l-156 -96c-4.66699 -2.66699 -10 -4 -16 -4s-11.333 1.33301 -16 4l-156 96
c-4 2.66699 -6.83301 6.66699 -8.5 12s-1.5 10.333 0.5 15z" />
    <glyph glyph-name="Ydieresis" unicode="&#x178;" horiz-adv-x="692" 
d="M658 700c5.33301 0 8.83691 -1.5 10.5039 -4.5s1.16699 -6.83301 -1.5 -11.5l-224 -408c-2.66699 -4.66699 -4.83398 -10.334 -6.50098 -17.001s-2.5 -12.667 -2.5 -18v-222c0 -12.667 -6.33301 -19 -19 -19h-138c-12.667 0 -19 6.33301 -19 19v222
c0 5.33301 -0.833008 11.333 -2.5 18s-3.83398 12.334 -6.50098 17.001l-224 408c-2.66699 4.66699 -3.16699 8.5 -1.5 11.5s5.16699 4.5 10.5 4.5h150c5.33301 0 10.666 -1.5 15.999 -4.5s9.33301 -6.83301 12 -11.5l134 -263l134 263c2.66699 4.66699 6.66699 8.5 12 11.5
s10.666 4.5 15.999 4.5h150zM426.004 860c14 0 25.833 -5 35.5 -15s14.5 -22 14.5 -36c0 -13.333 -4.83301 -25 -14.5 -35s-21.5 -15 -35.5 -15s-25.833 5 -35.5 15s-14.5 21.667 -14.5 35c0 14 4.83301 26 14.5 36s21.5 15 35.5 15zM266.004 860c14 0 25.833 -5 35.5 -15
s14.5 -22 14.5 -36c0 -13.333 -4.83301 -25 -14.5 -35s-21.5 -15 -35.5 -15s-25.833 5 -35.5 15s-14.5 21.667 -14.5 35c0 14 4.83301 26 14.5 36s21.5 15 35.5 15z" />
    <glyph glyph-name="Zcaron" unicode="&#x17d;" horiz-adv-x="648" 
d="M591 555c0 -5.33301 -1.33203 -11.167 -3.99902 -17.5s-5.66699 -11.166 -9 -14.499l-325 -366h319c5.33301 0 9.83301 -1.83301 13.5 -5.5s5.5 -8.16699 5.5 -13.5v-119c0 -5.33301 -1.83301 -9.83301 -5.5 -13.5s-8.16699 -5.5 -13.5 -5.5h-497
c-12.667 0 -19 6.33301 -19 19v125c0 5.33301 1.16699 11.166 3.5 17.499s5.16602 11.5 8.49902 15.5l332 366h-319c-5.33301 0 -9.83301 1.83301 -13.5 5.5s-5.5 8.16699 -5.5 13.5v119c0 5.33301 1.83301 9.83301 5.5 13.5s8.16699 5.5 13.5 5.5h491
c5.33301 0 9.83301 -1.83301 13.5 -5.5s5.5 -8.16699 5.5 -13.5v-126zM150.001 908.999c2 4.66699 5.33301 8 10 10s9.66699 2.33301 15 1l131 -45c4.66699 -2 10.334 -3 17.001 -3s12.667 1 18 3l130 45c5.33301 1.33301 10.333 1 15 -1s8 -5.33301 10 -10l8 -20
c2 -4.66699 2.16699 -9.66699 0.5 -15s-4.83398 -9.33301 -9.50098 -12l-156 -96c-4.66699 -2.66699 -10 -4 -16 -4s-11.333 1.33301 -16 4l-156 96c-4 2.66699 -6.83301 6.66699 -8.5 12s-1.5 10.333 0.5 15z" />
    <glyph glyph-name="florin" unicode="&#x192;" horiz-adv-x="635" 
d="M596 700c5.33301 0 9.83301 -1.83301 13.5 -5.5s5.5 -8.16699 5.5 -13.5v-132c0 -5.33301 -1.83301 -9.83301 -5.5 -13.5s-8.16699 -5.5 -13.5 -5.5h-335c-3.33301 0 -5 -1.33301 -5 -4v-109c0 -3.33301 1.66699 -5 5 -5h254c5.33301 0 9.66602 -1.83301 12.999 -5.5
s5 -8.16699 5 -13.5v-125c0 -5.33301 -1.66699 -9.83301 -5 -13.5s-7.66602 -5.5 -12.999 -5.5h-254c-3.33301 0 -5 -1.66699 -5 -5v-225c0 -12.667 -6.33301 -19 -19 -19h-138c-12.667 -0 -19 6.33301 -19 19v662c0 12.667 6.33301 19 19 19h497v0z" />
    <glyph glyph-name="circumflex" unicode="&#x2c6;" horiz-adv-x="451" 
d="M398 774c-2 -4.66699 -5.33301 -8 -10 -10s-9.66699 -2.33301 -15 -1l-130 45c-5.33301 2 -11.333 3 -18 3s-12.334 -1 -17.001 -3l-131 -45c-5.33301 -1.33301 -10.333 -1 -15 1s-8 5.33301 -10 10l-7 20c-2 4.66699 -2.16699 9.66699 -0.5 15s4.5 9.33301 8.5 12
l156 96c4.66699 2.66699 10 4 16 4s11.333 -1.33301 16 -4l156 -96c4.66699 -2.66699 7.83398 -6.66699 9.50098 -12s1.5 -10.333 -0.5 -15z" />
    <glyph glyph-name="caron" unicode="&#x2c7;" horiz-adv-x="444" 
d="M49 909c2 4.66699 5.33496 8 10.002 10s9.66699 2.33301 15 1l130 -45c5.33301 -2 11.333 -3 18 -3s12.667 1 18 3l130 45c5.33301 1.33301 10.333 1 15 -1s8 -5.33301 10 -10l8 -20c2 -4.66699 2.16699 -9.66699 0.5 -15s-4.83398 -9.33301 -9.50098 -12l-156 -96
c-4.66699 -2.66699 -10 -4 -16 -4s-11.333 1.33301 -16 4l-156 96c-4.66699 2.66699 -7.83398 6.66699 -9.50098 12s-1.5 10.333 0.5 15z" />
    <glyph glyph-name="ring" unicode="&#x2da;" horiz-adv-x="262" 
d="M132 899c21.333 0 39.333 -7.5 54 -22.5s22 -33.167 22 -54.5s-7.33301 -39.333 -22 -54s-32.667 -22 -54 -22s-39.5 7.33301 -54.5 22s-22.5 32.667 -22.5 54s7.5 39.5 22.5 54.5s33.167 22.5 54.5 22.5zM132 791c8.66699 0 16 3 22 9s9 13.333 9 22
c0 9.33301 -3 16.833 -9 22.5s-13.333 8.5 -22 8.5s-16 -2.83301 -22 -8.5s-9 -13.167 -9 -22.5c0 -8.66699 3 -16 9 -22s13.333 -9 22 -9z" />
    <glyph glyph-name="tilde" unicode="&#x2dc;" horiz-adv-x="361" 
d="M323 862c2.66699 -2.66699 4.00098 -6.00098 4.00098 -10.001l-3 -24c-1.33301 -7.33301 -5.33301 -12.666 -12 -15.999l-8 -3l-134 -59c-2.66699 -1.33301 -4.66699 -2 -6 -2s-2.33301 0.333008 -3 1c-4 0 -7 1.33301 -9 4c-2.66699 2.66699 -3.66699 6 -3 10l4 34
l-101 -26c-0.666992 -0.666992 -2 -1 -4 -1c-4 0 -7.33301 1.33301 -10 4c-2.66699 4 -3.66699 7.66699 -3 11l3 23c1.33301 8.66699 5.33301 14 12 16l7 4l134 59c1.33301 0.666992 3.33301 1 6 1h3c2.66699 0 6 -1.33301 10 -4c2 -3.33301 3 -7 3 -11l-5 -34l102 27
c0.666992 0 1.16699 0.166992 1.5 0.5s1.16602 0.5 2.49902 0.5c4 0 7 -1.66699 9 -5z" />
    <glyph glyph-name="endash" unicode="&#x2013;" horiz-adv-x="747" 
d="M668 254c0 -5.33301 -1.83301 -9.83301 -5.5 -13.5s-8.16699 -5.5 -13.5 -5.5h-550c-5.33301 0 -9.83301 1.83301 -13.5 5.5s-5.5 8.16699 -5.5 13.5v132c0 12.667 6.33301 19 19 19h550c5.33301 0 9.83301 -1.83301 13.5 -5.5s5.5 -8.16699 5.5 -13.5v-132z" />
    <glyph glyph-name="emdash" unicode="&#x2014;" horiz-adv-x="899" 
d="M820 254c0 -5.33301 -1.83301 -9.83301 -5.5 -13.5s-8.16699 -5.5 -13.5 -5.5h-702c-5.33301 0 -9.83301 1.83301 -13.5 5.5s-5.5 8.16699 -5.5 13.5v132c0 12.667 6.33301 19 19 19h702c5.33301 0 9.83301 -1.83301 13.5 -5.5s5.5 -8.16699 5.5 -13.5v-132z" />
    <glyph glyph-name="quoteleft" unicode="&#x2018;" horiz-adv-x="309" 
d="M222 608c5.33301 0 9.83301 -1.83398 13.5 -5.50098s5.5 -8.16699 5.5 -13.5v-139c0 -5.33301 -1.83301 -9.66602 -5.5 -12.999s-8.16699 -5 -13.5 -5h-138c-5.33301 0 -9.83301 1.66699 -13.5 5s-5.5 7.66602 -5.5 12.999v116v23c0 5.33301 1 11.333 3 18
s4.33301 12.334 7 17.001l40 60c3.33301 4.66699 7.66602 8.5 12.999 11.5s10.666 4.5 15.999 4.5h69c5.33301 0 8.83301 -1.5 10.5 -4.5s0.833984 -6.83301 -2.49902 -11.5l-40 -60c-2.66699 -4.66699 -4.16699 -8.5 -4.5 -11.5s0.833984 -4.5 3.50098 -4.5h42v0z" />
    <glyph glyph-name="quoteright" unicode="&#x2019;" horiz-adv-x="307" 
d="M87 524c-5.33301 0 -9.83301 1.66699 -13.5 5s-5.5 7.66602 -5.5 12.999v139c0 12.667 6.33301 19 19 19h138c12.667 0 19 -6.33301 19 -19v-116v-23c0 -5.33301 -0.833008 -11.166 -2.5 -17.499s-4.16699 -11.833 -7.5 -16.5l-40 -61
c-3.33301 -4 -7.66602 -7.5 -12.999 -10.5s-10.666 -4.5 -15.999 -4.5h-69c-5.33301 0 -8.83301 1.5 -10.5 4.5s-0.833984 6.5 2.49902 10.5l40 61c2.66699 4.66699 4.16699 8.5 4.5 11.5s-0.833984 4.5 -3.50098 4.5h-42v0z" />
    <glyph glyph-name="quotesinglbase" unicode="&#x201a;" 
 />
    <glyph glyph-name="quotedblleft" unicode="&#x201c;" horiz-adv-x="544" 
d="M451 608c5.33301 0 9.83398 -1.83398 13.501 -5.50098s5.5 -8.16699 5.5 -13.5v-139c0 -5.33301 -1.83301 -9.66602 -5.5 -12.999s-8.16699 -5 -13.5 -5h-139c-5.33301 0 -9.83301 1.66699 -13.5 5s-5.5 7.66602 -5.5 12.999v116v23c0 5.33301 1 11.333 3 18
s4.66699 12.334 8 17.001l40 60c2.66699 4.66699 6.66699 8.5 12 11.5s10.666 4.5 15.999 4.5h69c5.33301 0 8.83301 -1.5 10.5 -4.5s1.16699 -6.83301 -1.5 -11.5l-40 -60c-3.33301 -4.66699 -5 -8.5 -5 -11.5s1.33301 -4.5 4 -4.5h42zM230.001 607.999
c5.33301 0 9.83301 -1.83398 13.5 -5.50098s5.5 -8.16699 5.5 -13.5v-139c0 -5.33301 -1.83301 -9.66602 -5.5 -12.999s-8.16699 -5 -13.5 -5h-138c-5.33301 0 -9.83301 1.66699 -13.5 5s-5.5 7.66602 -5.5 12.999v116v23c0 5.33301 1 11.333 3 18s4.33301 12.334 7 17.001
l40 60c3.33301 4.66699 7.66602 8.5 12.999 11.5s10.666 4.5 15.999 4.5h69c5.33301 0 8.83301 -1.5 10.5 -4.5s0.833984 -6.83301 -2.49902 -11.5l-40 -60c-2.66699 -4.66699 -4.16699 -8.5 -4.5 -11.5s0.833984 -4.5 3.50098 -4.5h42z" />
    <glyph glyph-name="quotedblright" unicode="&#x201d;" horiz-adv-x="544" 
d="M94 524c-5.33301 0 -9.83301 1.66699 -13.5 5s-5.5 7.66602 -5.5 12.999v139c0 12.667 6.33301 19 19 19h138c12.667 0 19 -6.33301 19 -19v-116v-23c0 -5.33301 -0.833008 -11.166 -2.5 -17.499s-4.16699 -11.833 -7.5 -16.5l-40 -61
c-3.33301 -4 -7.66602 -7.5 -12.999 -10.5s-10.666 -4.5 -15.999 -4.5h-69c-5.33301 0 -8.83301 1.5 -10.5 4.5s-0.833984 6.5 2.49902 10.5l40 61c2.66699 4.66699 4.16699 8.5 4.5 11.5s-0.833984 4.5 -3.50098 4.5h-42zM314 524c-5.33301 0 -9.83496 1.66699 -13.502 5
s-5.5 7.66602 -5.5 12.999v139c0 5.33301 1.83301 9.83301 5.5 13.5s8.16699 5.5 13.5 5.5h139c5.33301 0 9.83301 -1.83301 13.5 -5.5s5.5 -8.16699 5.5 -13.5v-116v-23c0 -5.33301 -1 -11.166 -3 -17.499s-4.66699 -11.833 -8 -16.5l-39 -61
c-3.33301 -4 -7.66602 -7.5 -12.999 -10.5s-10.666 -4.5 -15.999 -4.5h-69c-5.33301 0 -8.83301 1.5 -10.5 4.5s-1.16699 6.5 1.5 10.5l40 61c3.33301 4.66699 5 8.5 5 11.5s-1.33301 4.5 -4 4.5h-42z" />
    <glyph glyph-name="dagger" unicode="&#x2020;" horiz-adv-x="412" 
d="M334 254c0 -5.33301 -1.83301 -9.83301 -5.5 -13.5s-8.16699 -5.5 -13.5 -5.5h-216c-5.33301 0 -9.83301 1.83301 -13.5 5.5s-5.5 8.16699 -5.5 13.5v132c0 12.667 6.33301 19 19 19h216c5.33301 0 9.83301 -1.83301 13.5 -5.5s5.5 -8.16699 5.5 -13.5v-132z" />
    <glyph glyph-name="daggerdbl" unicode="&#x2021;" horiz-adv-x="340" 
 />
    <glyph glyph-name="bullet" unicode="&#x2022;" horiz-adv-x="333" 
d="M237 352c5.33301 0 9.83301 -1.66699 13.5 -5s5.5 -7.66602 5.5 -12.999v-139c0 -5.33301 -1.83301 -9.83301 -5.5 -13.5s-8.16699 -5.5 -13.5 -5.5h-138c-5.33301 0 -9.83301 1.83301 -13.5 5.5s-5.5 8.16699 -5.5 13.5v139c0 5.33301 1.83301 9.66602 5.5 12.999
s8.16699 5 13.5 5h138v0z" />
    <glyph glyph-name="ellipsis" unicode="&#x2026;" horiz-adv-x="807" 
d="M237 176c12.667 0 19 -6.33301 19 -19v-138c0 -12.667 -6.33301 -19 -19 -19h-138c-12.667 -0 -19 6.33301 -19 19v138c0 12.667 6.33301 19 19 19h138zM473 176c12.667 0 19 -6.33301 19 -19v-138c0 -12.667 -6.33301 -19 -19 -19h-138c-12.667 -0 -19 6.33301 -19 19
v138c0 12.667 6.33301 19 19 19h138zM709 176c12.667 0 19 -6.33301 19 -19v-138c0 -12.667 -6.33301 -19 -19 -19h-138c-12.667 -0 -19 6.33301 -19 19v138c0 12.667 6.33301 19 19 19h138z" />
    <glyph glyph-name="guilsinglleft" unicode="&#x2039;" 
 />
    <glyph glyph-name="fraction" unicode="&#x2044;" horiz-adv-x="597" 
d="M570 700c5.33301 0 9 -1.5 11 -4.5s1.66699 -6.83301 -1 -11.5l-386 -668c-2.66699 -4.66699 -6.66699 -8.5 -12 -11.5s-10.666 -4.5 -15.999 -4.5h-139c-5.33301 0 -8.83301 1.5 -10.5 4.5s-1.16699 6.83301 1.5 11.5l386 668c2.66699 4.66699 6.66699 8.5 12 11.5
s10.666 4.5 15.999 4.5h138v0z" />
    <glyph glyph-name="Euro" unicode="&#x20ac;" 
 />
    <glyph glyph-name="trademark" unicode="&#x2122;" horiz-adv-x="830" 
d="M332 624c0 -6.66699 -3.33301 -10 -10 -10h-71c-6 0 -9 -2.66699 -9 -8v-248c0 -6.66699 -3.33301 -10 -10 -10h-70c-6 0 -9 3.33301 -9 10v248c0 2 -1 3.83301 -3 5.5s-4 2.5 -6 2.5h-72c-6 0 -9 3.33301 -9 10v66c0 6.66699 3 10 9 10h72h18h70h19h71
c6.66699 0 10 -3.33301 10 -10v-66zM743 700c5.33301 -1.33301 8.00488 -4.66699 8.00488 -10v-331c0 -6.66699 -3 -10 -9 -10h-70c-5.33301 0 -8 3.33301 -8 10v174l-33 -84c-8.66699 -21.333 -16.334 -41 -23.001 -59s-10.334 -27.667 -11.001 -29l-2 -3
c-0.666992 -2 -2.33398 -4 -5.00098 -6s-5.33398 -3 -8.00098 -3h-58c-2.66699 0 -5.16699 1 -7.5 3s-4.16602 4 -5.49902 6l-1 3c-0.666992 1.33301 -4.5 11 -11.5 29l-22.5 59l-32 84v-175c0 -3.33301 -1 -5.83301 -3 -7.5s-4 -2.5 -6 -2.5h-70
c-6.66699 0 -10 3.33301 -10 10v332c0 3.33301 1.33301 6.33301 4 9c0.666992 0 1.5 0.166992 2.5 0.5s1.83301 0.5 2.5 0.5h1h70h4c3.33301 0 6.16602 -1 8.49902 -3s4.16602 -4 5.49902 -6l101 -235l100 235c1.33301 2 3 4 5 6s4.66699 3 8 3h5h70h1z" />
    <glyph glyph-name="minus" unicode="&#x2212;" horiz-adv-x="747" 
d="M668 254c0 -5.33301 -1.83301 -9.83301 -5.5 -13.5s-8.16699 -5.5 -13.5 -5.5h-550c-5.33301 0 -9.83301 1.83301 -13.5 5.5s-5.5 8.16699 -5.5 13.5v132c0 12.667 6.33301 19 19 19h550c5.33301 0 9.83301 -1.83301 13.5 -5.5s5.5 -8.16699 5.5 -13.5v-132z" />
    <glyph glyph-name=".null" horiz-adv-x="0" 
 />
    <glyph glyph-name="nonmarkingreturn" horiz-adv-x="340" 
 />
    </font>
</defs>
</svg>
